<?xml version="1.0" encoding="utf-8"?>
<!-- Generator: Adobe Illustrator 21.0.2, SVG Export Plug-In . SVG Version: 6.00 Build 0)  -->
<svg version="1.1" id="Layer_1" xmlns="http://www.w3.org/2000/svg" xmlns:xlink="http://www.w3.org/1999/xlink" x="0px" y="0px"
	 viewBox="0 0 465.718 765.384" style="enable-background:new 0 0 465.718 765.384;" xml:space="preserve">
<style type="text/css">
	.st0{fill:#441633;}
	.st1{fill:url(#SVGID_1_);}
	.st2{fill:url(#SVGID_2_);}
	.st3{fill:url(#SVGID_3_);}
</style>
<path class="st0" d="M199.833,535.24l-19.846,202.178c30.735,34.688,65.312,39.802,105.725,0l-20.14-217.063L199.833,535.24z"/>
<path class="st0" d="M9.395,629.835c-5.479,39.871,4.907,65.749,60.065,70.812l216.252-175.791l-87.33-30.66L9.395,629.835z"/>
<path class="st0" d="M464.421,629.835c5.479,39.871-4.907,65.749-60.065,70.812L188.104,524.856l87.33-30.66L464.421,629.835z"/>
<linearGradient id="SVGID_1_" gradientUnits="userSpaceOnUse" x1="358.894" y1="137.8413" x2="358.894" y2="583.6259">
	<stop  offset="0" style="stop-color:#FFDF00"/>
	<stop  offset="0.1228" style="stop-color:#F6BF00"/>
	<stop  offset="0.2855" style="stop-color:#E7972C"/>
	<stop  offset="0.4459" style="stop-color:#DC7436"/>
	<stop  offset="0.6005" style="stop-color:#D4573A"/>
	<stop  offset="0.7476" style="stop-color:#CE413A"/>
	<stop  offset="0.8842" style="stop-color:#CB343A"/>
	<stop  offset="1" style="stop-color:#CA2F3A"/>
</linearGradient>
<path class="st1" d="M263.895,479.165c21.335-121.462,57.968-235.208,109.726-341.323c35.829,118.311,80.271,208.91,80.271,335.771
	C451.052,621.67,271.62,617.073,263.895,479.165z"/>
<linearGradient id="SVGID_2_" gradientUnits="userSpaceOnUse" x1="105.9789" y1="177.391" x2="105.9789" y2="623.1756" gradientTransform="matrix(0.9932 -0.1166 0.1166 0.9932 -68.29 -24.4599)">
	<stop  offset="0" style="stop-color:#FFDF00"/>
	<stop  offset="0.1228" style="stop-color:#F6BF00"/>
	<stop  offset="0.2855" style="stop-color:#E7972C"/>
	<stop  offset="0.4459" style="stop-color:#DC7436"/>
	<stop  offset="0.6005" style="stop-color:#D4573A"/>
	<stop  offset="0.7476" style="stop-color:#CE413A"/>
	<stop  offset="0.8842" style="stop-color:#CB343A"/>
	<stop  offset="1" style="stop-color:#CA2F3A"/>
</linearGradient>
<path class="st2" d="M3.105,489.435c-9.964-128.701,30.591-243.342,69.174-351.79c49.382,113.326,90.335,222.085,118.88,324.119
	C205.603,609.143,26.859,625.501,3.105,489.435z"/>
<linearGradient id="SVGID_3_" gradientUnits="userSpaceOnUse" x1="221.92" y1="0" x2="221.92" y2="583.6259">
	<stop  offset="0" style="stop-color:#FFDF00"/>
	<stop  offset="0.1228" style="stop-color:#F6BF00"/>
	<stop  offset="0.2855" style="stop-color:#E7972C"/>
	<stop  offset="0.4459" style="stop-color:#DC7436"/>
	<stop  offset="0.6005" style="stop-color:#D4573A"/>
	<stop  offset="0.7476" style="stop-color:#CE413A"/>
	<stop  offset="0.8842" style="stop-color:#CB343A"/>
	<stop  offset="1" style="stop-color:#CA2F3A"/>
</linearGradient>
<path class="st3" d="M97.546,446.864C125.478,287.844,173.438,138.928,241.201,0c46.908,154.894,83.554,302.563,105.092,439.595
	C342.574,633.433,107.659,627.415,97.546,446.864z"/>
</svg>
