<?xml version="1.0" encoding="utf-8"?>
<!-- Generator: Adobe Illustrator 21.0.2, SVG Export Plug-In . SVG Version: 6.00 Build 0)  -->
<svg version="1.1" id="Layer_1" xmlns="http://www.w3.org/2000/svg" xmlns:xlink="http://www.w3.org/1999/xlink" x="0px" y="0px"
	 viewBox="0 0 580.091 765.384" style="enable-background:new 0 0 580.091 765.384;" xml:space="preserve">
<style type="text/css">
	.st0{fill:url(#SVGID_1_);}
</style>
<linearGradient id="SVGID_1_" gradientUnits="userSpaceOnUse" x1="290.3551" y1="0" x2="290.3551" y2="765.3845">
	<stop  offset="0" style="stop-color:#161623"/>
	<stop  offset="0.4" style="stop-color:#171723"/>
	<stop  offset="0.544" style="stop-color:#1C1925"/>
	<stop  offset="0.6467" style="stop-color:#251C27"/>
	<stop  offset="0.7298" style="stop-color:#32212B"/>
	<stop  offset="0.8009" style="stop-color:#43252D"/>
	<stop  offset="0.8639" style="stop-color:#5A2A2E"/>
	<stop  offset="0.9209" style="stop-color:#772E2C"/>
	<stop  offset="0.9716" style="stop-color:#9B3128"/>
	<stop  offset="1" style="stop-color:#B33123"/>
</linearGradient>
<path class="st0" d="M413.036,761.666l-50.117-46.462l91.88,3.132c-74.691-37.048-118.757-44.784-152.96-129.99
	c11.418-31.828,28.82-36.565,76.48-41.242c46.191-12.142,63.104-54.297,76.48-85.094c23.329-28.111,43.605-40.008,59.513-28.713
	c11.775,7.266,23.469,11.875,34.977,10.441l1.566-10.441c-9.781,0.187-21.216-6.217-32.889-13.573
	c-19.148-14.317-40.327-6.147-62.646,14.617c7.745-26.863,25.037-45.172,58.991-48.55c25.107-5.66,38.284-20.802,40.198-44.896
	c7.407-10.057,15.799-16.625,25.58-18.272l-7.309-9.919c-10.063,3.718-18.661,8.875-24.536,16.706
	c-9.309,33.411-26.352,49.655-51.683,47.506c-0.622-29.373,5.471-51.349,19.838-64.212c11.974-22.419,17.834-43.606,13.051-62.646
	l-6.787,4.176c3.359,15.465-0.974,30.555-9.919,45.418l-13.051,21.404c-7.272-12.824-9.919-29.769-9.919-49.072l-5.742-0.522
	c0.046,21.912,2.842,41.778,12.007,56.903c-6.492,16.166-8.361,33.263-6.265,51.161c-10.045,2.845-20.142,9.196-30.279,18.272
	c-11.63,19.079-20.555,38.376-26.102,57.947l-8.353-62.124c-3.715,3.091-5.624,8.109-4.176,16.706l6.265,63.69
	c-14.881,25.88-42.451,39.213-80.395,42.286c-31.437,1.812-31.741-17.126-14.095-48.028c31.402-44.43,54.31-87.561,58.991-127.901
	c-4.59-14.398-11.89-27.547-21.404-39.676c25.589-12.921,33.137-29.623,13.881-59.4c-24.339-24.868-21.208-37.367,9.089-46.054
	c21.488-5.556,29.151-21.575,29.235-43.33l-10.963,2.61c0.386,14.863-6.024,25.974-21.926,31.845
	c-23.077,5.294-40.356,16.833-32.907,39.519c26.44,36.591,34.049,50.759-13.033,63.846c-15.817-14.074-37.933-27.279-62.124-40.198
	c-13.573-8.089-24.772-17.452-33.411-28.19c22.379,3.507,38.88-3.508,49.594-20.882l56.381-19.838l-3.654-6.265l-43.852,13.051
	c11.085-13.638,23.943-23.597,38.631-29.757l-3.654-12.529c-18.947,8.899-35.127,21.957-48.55,39.154
	c-7.871,19.061-26.116,28.835-49.091,24.727c-7.4-29.265,16.656-59.416,53.268-93.115l64.212,4.176
	c13.099,1.062,20.22-7.416,21.926-24.536c3.819-12.147,8.418-21.356,14.617-24.536l-6.265-7.309
	c-7.251,1.39-11.695,5.462-14.095,11.485c-8.594,41.5-39.14,29.893-75.697,24.014c6.64-6.313,10.535-15.867,12.529-27.668
	l20.882-21.404l-9.397-5.22l-15.139,15.139c-6.495-18.136-19.455-28.743-37.065-33.933L262.687,0h-8.875l7.831,24.014L211.526,4.698
	l3.132,10.441l60.035,26.624c37,26.35,12.237,72.386-48.028,104.931l-7.831-7.309c16.897-12.97,23.795-31.865,22.97-55.337
	l-6.787,0.522c0.941,19.204-4.951,36.094-19.316,50.116c-17.568-14.729-22.564-32.529-17.75-52.727
	c-1.17-20.188-10.001-37.59-25.058-52.727l-5.742,3.654c21.581,21.104,28.889,43.767,18.272,68.388
	c7.571,20.649,18.608,38.73,34.455,53.249c-21.763,30.815-29.469,62.462-13.051,95.535c-47.148-10.063-67.767-32.241-47.506-73.087
	l28.713-14.617l-3.132-5.22l-22.448,10.963l5.743-33.933l-5.743,3.132c-20.839,63.975-24.468,82.892-7.309,98.145
	c-40.068-4.941-34.739-66.46-19.838-139.909l-10.963-4.176c-18.752,83.352-20.242,145.063,20.36,154.004l19.316,4.698
	c-11.304,18.384-26.036,28.974-46.462,26.624c0.293-24.742-16.776-46.001-41.242-65.778l-5.22,7.831
	c20.336,17.02,36.901,35.137,39.154,57.425l-36.543-25.058c-20.245-21.815-40.421-12.174-60.557,15.661l6.265,6.265
	c11.085-14.343,22.482-23.873,34.455-24.536c10.86,4.805,20.338,12.108,28.713,21.404l-39.154,0l2.61,6.265l44.374-0.522
	c28.677,22.752,56.78,9.604,84.572-22.97l45.94,15.139c46.155,29.409,91.783,58.618,108.064,76.741
	c-2.802,35.405-20.463,67.393-48.028,97.101c-20.116-27.873-41-44.713-62.646-50.638c-8.75-15.236-13.531-30.908-14.617-46.984
	c0.346-16.792-9.523-37.74-23.492-56.903l-7.309,5.742c11.85,14.006,20.885,31.256,22.56,45.399
	c-1.41,13.474,3.003,30.714,8.241,49.092c-26.947,2.421-42.548-9.16-42.808-39.676c-14.731-35.506-37.065-37.579-62.124-27.668
	l0.522,9.397c31.287-9.113,51.162,1.841,49.072,51.422c0.341,23.229,19.933,29.544,48.55,27.93
	c56.048,14.858,79.866,51.912,37.065,86.66c-15.676,2.233-31.515,2.012-47.506-0.522c7.868-33.711-14.496-52.07-51.161-63.168
	c-25.168-33.086-46.53-43.096-64.212-30.801l8.353,12.529c11.614-8.517,24.165-5.682,38.631,20.36l45.94,26.624
	c13.32,10.594,16.292,21.033,9.397,31.323c-15.482-1.714-30.111-9.907-44.374-20.882c-11.796-12.829-24.638-20.038-39.154-18.272
	c-6.778-12.971-19.451-20.334-36.543-23.492c-9.779-7.136-16.4-15.833-19.838-26.102l-7.831,2.61
	c2.434,6.762,5.669,12.975,12.529,16.706l-20.882-1.566l-1.044,8.353l24.536,0.522l19.838,9.919
	c9.885,2.722,16.931,7.414,20.36,14.617c-16.561,1.644-32.198,8.392-46.984,19.838c-6.233,10.354-15.469,2.178-26.102-14.617
	l-7.309,7.309l15.661,21.404c4.908,10.858,21.734,1.102,40.198-11.485l-16.706,31.323l7.309,3.132l21.404-36.021
	c21.009-4.992,36.69,3.215,48.55,20.882c4.2,14.065,21.096,21.719,53.771,21.404c13.88,1.795,25.792,5.548,34.455,12.529
	c-7.84,17.538-13.613,34.414-14.095,49.594c-15.179-2.438-24.995-12.621-32.889-25.58l-30.279-17.228l-37.587-29.235l-3.654,7.309
	l27.146,24.014c-15.361,1.073-26.693,8.349-33.933,21.926l9.397,4.698c21.709-22.618,43.301-23.587,64.734,4.698
	c9.475,13.43,20.765,21.802,34.455,23.492l33.411,60.035c26.101,29.144-5.769,50.991-60.557,69.954l86.138-6.265
	c14.734,34.935,34.965,46.282,64.734,16.706c15.454-3.624,33.468-3.328,71.52,27.668
	C399.746,766.732,409.223,766.514,413.036,761.666z"/>
</svg>
