<?xml version="1.0" encoding="utf-8"?>
<!-- Generator: Adobe Illustrator 21.0.2, SVG Export Plug-In . SVG Version: 6.00 Build 0)  -->
<svg version="1.1" id="Layer_1" xmlns="http://www.w3.org/2000/svg" xmlns:xlink="http://www.w3.org/1999/xlink" x="0px" y="0px"
	 viewBox="0 0 505.6 409.1" style="enable-background:new 0 0 505.6 409.1;" xml:space="preserve">
<style type="text/css">
	.st0{fill:url(#SVGID_1_);}
</style>
<g>
	
		<linearGradient id="SVGID_1_" gradientUnits="userSpaceOnUse" x1="250.6235" y1="412" x2="250.6235" y2="202.5" gradientTransform="matrix(1 0 0 -1 0 412)">
		<stop  offset="0" style="stop-color:#422A41"/>
		<stop  offset="0.4433" style="stop-color:#432C42"/>
		<stop  offset="0.6194" style="stop-color:#483347"/>
		<stop  offset="0.7481" style="stop-color:#513F50"/>
		<stop  offset="0.8536" style="stop-color:#5D515C"/>
		<stop  offset="0.9439" style="stop-color:#6C676C"/>
		<stop  offset="1" style="stop-color:#797979"/>
	</linearGradient>
	<path class="st0" d="M416.9,209.4c23.5,0,21.9-31.9,0-31.9h-38.8c-26.9,0-23-35.2,0-35.2H482c22.9,0,22.6-35.6,0-35.6H275
		c-12,0,99.5,0,113.4,0c56.1,0,54.9-67.5,1.6-68.8c-13-0.3-115-2.3-115-2.3h16.1c27.6,0,27.9-35.6,0-35.6h-204
		c-23.6,0-23.6,35.6,0,35.6h60.1c25.2,0,25.2,36.1,0,36.1H20.3c-24.8,0-23.5,35.5,0,35.5h114.9c21,0,21.7,35.2,0,35.2h-28.7
		c-21.5,0-21.5,35.2-0.2,35.2h65.1c-23.6,0-22.6,31.9,0.2,31.9h245.3V209.4z"/>
</g>
</svg>
