<?xml version="1.0" encoding="utf-8"?>
<!-- Generator: Adobe Illustrator 21.0.2, SVG Export Plug-In . SVG Version: 6.00 Build 0)  -->
<svg version="1.1" id="Layer_1" xmlns="http://www.w3.org/2000/svg" xmlns:xlink="http://www.w3.org/1999/xlink" x="0px" y="0px"
	 viewBox="0 0 505.6 409.1" style="enable-background:new 0 0 505.6 409.1;" xml:space="preserve">
<style type="text/css">
	.st0{fill:none;stroke:#00B7EF;stroke-miterlimit:10;}
</style>
<line class="st0" x1="192.6" y1="209.4" x2="279.3" y2="393.5"/>
<line class="st0" x1="201.5" y1="264.2" x2="215.6" y2="294.2"/>
<line class="st0" x1="227.6" y1="319.9" x2="241.7" y2="349.9"/>
<line class="st0" x1="252.4" y1="372" x2="266.6" y2="402"/>
<line class="st0" x1="176.4" y1="209.4" x2="191" y2="240.5"/>
<line class="st0" x1="234.7" y1="264.2" x2="248.8" y2="294.2"/>
<line class="st0" x1="260.7" y1="319.9" x2="274.9" y2="349.9"/>
<line class="st0" x1="285.6" y1="372" x2="299.8" y2="402"/>
<line class="st0" x1="209.5" y1="209.4" x2="224.2" y2="240.5"/>
<line class="st0" x1="266.7" y1="264.2" x2="280.8" y2="294.2"/>
<line class="st0" x1="292.7" y1="319.9" x2="306.9" y2="349.9"/>
<line class="st0" x1="317.6" y1="372" x2="331.7" y2="402"/>
<line class="st0" x1="241.5" y1="209.4" x2="256.2" y2="240.5"/>
<line class="st0" x1="298.6" y1="264.2" x2="312.8" y2="294.2"/>
<line class="st0" x1="324.7" y1="319.9" x2="338.9" y2="349.9"/>
<line class="st0" x1="349.6" y1="372" x2="363.7" y2="402"/>
<line class="st0" x1="273.5" y1="209.4" x2="288.2" y2="240.5"/>
<line class="st0" x1="330.6" y1="264.2" x2="344.8" y2="294.2"/>
<line class="st0" x1="356.7" y1="319.9" x2="370.8" y2="349.9"/>
<line class="st0" x1="381.6" y1="372" x2="395.7" y2="402"/>
<line class="st0" x1="305.5" y1="209.4" x2="320.2" y2="240.5"/>
<line class="st0" x1="365" y1="264.2" x2="379.1" y2="294.2"/>
<line class="st0" x1="391" y1="319.9" x2="405.2" y2="349.9"/>
<line class="st0" x1="415.9" y1="372" x2="430.1" y2="402"/>
<line class="st0" x1="339.9" y1="209.4" x2="354.5" y2="240.5"/>
<line class="st0" x1="397" y1="264.2" x2="411.1" y2="294.2"/>
<line class="st0" x1="423" y1="319.9" x2="437.2" y2="349.9"/>
<line class="st0" x1="447.9" y1="372" x2="462.1" y2="402"/>
<line class="st0" x1="371.9" y1="209.4" x2="386.5" y2="240.5"/>
<line class="st0" x1="224.9" y1="209.4" x2="311.7" y2="393.5"/>
<line class="st0" x1="257.3" y1="209.4" x2="344" y2="393.5"/>
<line class="st0" x1="289.6" y1="209.4" x2="376.4" y2="393.5"/>
<line class="st0" x1="322" y1="209.4" x2="408.8" y2="393.5"/>
<line class="st0" x1="354.3" y1="209.4" x2="441.1" y2="393.5"/>
<line class="st0" x1="386.7" y1="209.4" x2="473.5" y2="393.5"/>
</svg>
