<?xml version="1.0" encoding="utf-8"?>
<!-- Generator: Adobe Illustrator 21.0.2, SVG Export Plug-In . SVG Version: 6.00 Build 0)  -->
<svg version="1.1" id="Layer_1" xmlns="http://www.w3.org/2000/svg" xmlns:xlink="http://www.w3.org/1999/xlink" x="0px" y="0px"
	 viewBox="0 0 182.819 524.604" style="enable-background:new 0 0 182.819 524.604;" xml:space="preserve">
<style type="text/css">
	.st0{fill:url(#SVGID_1_);}
	.st1{fill:url(#SVGID_2_);}
	.st2{fill:none;stroke:#413741;stroke-miterlimit:10;}
	.st3{fill:#413741;}
	.st4{fill:url(#SVGID_3_);}
	.st5{fill:#FFFFFF;}
</style>
<g>
	<linearGradient id="SVGID_1_" gradientUnits="userSpaceOnUse" x1="107.9132" y1="236.7944" x2="107.9132" y2="103.5853">
		<stop  offset="0" style="stop-color:#C5E4E3"/>
		<stop  offset="0.4027" style="stop-color:#C3E1E1"/>
		<stop  offset="0.5477" style="stop-color:#BAD9DA"/>
		<stop  offset="0.6512" style="stop-color:#ABCACD"/>
		<stop  offset="0.7348" style="stop-color:#96B6BC"/>
		<stop  offset="0.8064" style="stop-color:#7D9EA6"/>
		<stop  offset="0.8698" style="stop-color:#5F828D"/>
		<stop  offset="0.9271" style="stop-color:#3D6673"/>
		<stop  offset="0.9782" style="stop-color:#1A4A59"/>
		<stop  offset="1" style="stop-color:#023F4E"/>
	</linearGradient>
	<path class="st0" d="M114.045,103.585c-54.387,3.293-81.014,32.485-81.038,73.984c5.287,32.983,28.545,53.217,71.855,59.225
		c49.324-3.671,76.579-24.919,77.957-66.777C177.22,130.719,153.126,109.733,114.045,103.585z"/>
	<path class="st2" d="M74.295,229.617c6.362-23.201,63.739-19.76,63.739,1.011"/>
	<path class="st2" d="M143.11,228.716c-6.55-26.244-60.273-28.437-73.984-1.564"/>
	<circle class="st3" cx="98.546" cy="244.829" r="3.709"/>
	<ellipse class="st3" cx="88.065" cy="307.198" rx="5.706" ry="6.277"/>
	<circle class="st2" cx="85.909" cy="325.842" r="3.55"/>
	<linearGradient id="SVGID_2_" gradientUnits="userSpaceOnUse" x1="131.1481" y1="370.9521" x2="-26.4691" y2="461.9524">
		<stop  offset="0" style="stop-color:#023F4E"/>
		<stop  offset="0.0287" style="stop-color:#1A4D5B"/>
		<stop  offset="0.0874" style="stop-color:#3A6874"/>
		<stop  offset="0.1539" style="stop-color:#57838C"/>
		<stop  offset="0.229" style="stop-color:#719CA1"/>
		<stop  offset="0.3167" style="stop-color:#87B0B2"/>
		<stop  offset="0.4253" style="stop-color:#96C0BF"/>
		<stop  offset="0.5775" style="stop-color:#9FC9C7"/>
		<stop  offset="1" style="stop-color:#A1CBC9"/>
	</linearGradient>
	<path class="st1" d="M88.065,313.475l14.189,7.433c-12.991,82.518-30.306,156.917-62.8,202.811L0,507.798
		c31.045-29.776,54.584-105.18,74.295-203.849L88.065,313.475z"/>
	<g>
		<path class="st3" d="M104.832,104.203c-3.52,1.293-6.665,3.591-8.967,6.552c-0.098,0.126-0.199,0.264-0.208,0.424
			c-0.007,0.12,0.039,0.236,0.093,0.344c0.532,1.06,1.786,1.545,2.961,1.701c1.175,0.156,2.392,0.08,3.522,0.442
			c0.951,0.305,1.776,0.9,2.651,1.38c2.476,1.359,5.442,1.801,8.206,1.221c2.764-0.58,5.303-2.175,7.024-4.415
			c0.277-0.361,0.546-0.776,0.52-1.231c-0.026-0.46-0.346-0.845-0.662-1.181c-3.659-3.889-9.002-6.135-14.34-6.029"/>
		<g>
			<path class="st3" d="M104.666,103.6c-2.343,0.97-10.618,4.786-9.455,8.238c0.503,1.494,2.297,1.626,3.501,2.01
				c2.933,0.937,4.835,1.53,7.545,2.505c1.644,0.592,3.409,0.872,5.156,0.765c2.882-0.176,10.038-2.69,9.824-6.663
				c-0.119-2.222-4.393-4.526-6.04-5.387c-3.002-1.569-6.207-2.202-9.565-2.282c-0.805-0.019-0.804,1.231,0,1.25
				c3.788,0.09,8.733,0.98,11.537,3.818c5.726,5.796-4.561,8.71-8.958,7.772c-1.814-0.387-3.312-1.502-4.987-2.189
				c-0.785-0.322-1.87-0.311-2.57-0.673c-0.762-0.071-1.341-0.541-1.739-1.409c-1.943-0.782-2.09-1.625-0.441-2.527
				c1.062-1.776,4.858-3.334,6.523-4.023C105.731,104.502,105.41,103.292,104.666,103.6L104.666,103.6z"/>
		</g>
	</g>
	<path class="st3" d="M166.362,213.591c-19.379-43.031-96.332-39.636-119.379-4.27c5.083,6.292,12.265,12.291,21.296,18.032
		c13.779-25.271,66.382-27.79,74.714,1.225C151.906,225.138,159.748,220.214,166.362,213.591z"/>
	<ellipse class="st5" cx="72.434" cy="127.228" rx="3.308" ry="3.383"/>
	<path class="st2" d="M109.69,0c2.446,104.471-4.761,208.963-21.625,313.475"/>
</g>
</svg>
