<?xml version="1.0" encoding="utf-8"?>
<!-- Generator: Adobe Illustrator 21.0.2, SVG Export Plug-In . SVG Version: 6.00 Build 0)  -->
<svg version="1.1" id="Layer_1" xmlns="http://www.w3.org/2000/svg" xmlns:xlink="http://www.w3.org/1999/xlink" x="0px" y="0px"
	 viewBox="0 0 431.425 765.384" style="enable-background:new 0 0 431.425 765.384;" xml:space="preserve">
<style type="text/css">
	.st0{fill:#382D2D;}
	.st1{fill:#D1C6C1;}
	.st2{fill:#447466;}
	.st3{fill:#2E4A41;}
	.st4{fill:#6E1330;}
	.st5{fill:#2D1B1D;}
	.st6{fill:url(#SVGID_1_);}
	.st7{fill:none;stroke:#000000;stroke-miterlimit:10;}
</style>
<path class="st0" d="M35.2,413.845c10.719-201.457,305.561-242.331,356.23-4.25c10.919,123.474-58.797,355.789-173.078,355.789
	C104.551,760.673,50.088,601.071,35.2,413.845z"/>
<path class="st1" d="M284.43,657.742c-36.252-50.651-102.546-64.565-148.38,2.003C170.473,708.306,241.358,720.361,284.43,657.742z"
	/>
<path class="st2" d="M183.347,422.759c-47.988-17.543-89.669-11.915-120.044,36.296L183.347,422.759z"/>
<path class="st3" d="M183.347,422.759c-27.821,41.412-67.82,53.549-120.044,36.296L183.347,422.759z"/>
<path class="st2" d="M365.503,464.981c-29.121-41.982-66.435-61.391-119.035-39.479L365.503,464.981z"/>
<path class="st3" d="M365.503,464.981c-46.596,17.825-86.284,4.706-119.035-39.479L365.503,464.981z"/>
<path class="st4" d="M215.713,413.996l-32.365,8.764l-21.953-6.357l-21.81-2.721l-25.399,2.721l-17.927,8.231l-14.762,11.724
	l-18.193,22.698l-22.707,10.98l-4.655-47.276c33.621-86.928,109.535-104.682,171.443-41.086L215.713,413.996z"/>
<path class="st4" d="M214.942,414.16l31.526,11.342l22.84-7.171l22.008-1.846l24.616,5.237l16.833,7.874l14.065,11.721
	l20.413,24.081l22.102,9.108l1.839-58.868c-27.354-71.359-103.235-92.33-169.743-31.963L214.942,414.16z"/>
<polygon class="st4" points="214.942,414.16 170.473,564.648 213.734,604.028 "/>
<polyline class="st5" points="214.942,414.16 213.734,604.028 255.231,566.361 214.486,408.887 "/>
<linearGradient id="SVGID_1_" gradientUnits="userSpaceOnUse" x1="215.7125" y1="9.094947e-13" x2="215.7125" y2="422.7591">
	<stop  offset="0" style="stop-color:#F08350"/>
	<stop  offset="0.017" style="stop-color:#E4774F"/>
	<stop  offset="0.0764" style="stop-color:#C1584A"/>
	<stop  offset="0.1437" style="stop-color:#A44042"/>
	<stop  offset="0.2197" style="stop-color:#8F2E3C"/>
	<stop  offset="0.3085" style="stop-color:#802237"/>
	<stop  offset="0.4183" style="stop-color:#751A33"/>
	<stop  offset="0.5723" style="stop-color:#6F1531"/>
	<stop  offset="1" style="stop-color:#6E1330"/>
</linearGradient>
<path class="st6" d="M35.941,422.759L0,185.368l16.492-16.492l18.471,23.088l-18.471-74.543L39.58,98.951l23.723,21.938
	L57.391,60.69l29.026-16.492l21.769,21.109l-0.66-36.282l31.664-13.193L160.3,36.942V14.513L193.943,0l24.408,25.068l27.706-22.429
	l30.345,13.193v20.45l18.471-20.45l30.345,18.471l-1.979,31.005l21.769-19.79l29.026,15.832l-8.576,50.135l24.408-17.811
	l25.068,21.109l-12.534,57.766l13.853-15.547l15.172,19.79L391.43,409.595C346.255,206.923,62.009,179.35,35.941,422.759z"/>
<path class="st3" d="M269.249,656.407c-28.887,38.307-85.092,38.307-119.476,2.838L269.249,656.407z"/>
<path class="st4" d="M269.249,656.407c-32.655-35.167-84.15-39.249-119.476,2.838L269.249,656.407z"/>
<polygon class="st1" points="208.632,658.039 208.632,684.893 212.942,686.148 212.942,657.742 "/>
<line class="st7" x1="284.608" y1="657.45" x2="340.761" y2="657.45"/>
<line class="st7" x1="136.801" y1="659.245" x2="90.487" y2="659.245"/>
<line class="st7" x1="34.963" y1="191.964" x2="50.088" y2="352.618"/>
<line class="st7" x1="62.009" y1="118.081" x2="77.049" y2="306.694"/>
<line class="st7" x1="108.186" y1="65.307" x2="119.377" y2="270.874"/>
<line class="st7" x1="160.3" y1="36.942" x2="167.027" y2="252.338"/>
<line class="st7" x1="218.351" y1="25.068" x2="212.852" y2="248.196"/>
<line class="st7" x1="276.402" y1="36.282" x2="259.772" y2="256.764"/>
<line class="st7" x1="323.239" y1="65.307" x2="306.951" y2="279.79"/>
<line class="st7" x1="365.458" y1="111.484" x2="340.761" y2="309.477"/>
<line class="st7" x1="402.399" y1="171.515" x2="371.758" y2="355.751"/>
<path class="st1" d="M216.327,408.887c50.95-29.806,59.519-39.98,96.597-44.447c38.239,3.299,53.818,44.447,29.764,33.263
	C313.883,377.239,264.471,388.078,216.327,408.887z"/>
<path class="st1" d="M216.327,408.887c15.355-33.803,19.793-65.016,19.75-99.855c1.187-44.095,21.671-29.17,12.103,31.963
	C240.539,368.966,231.145,388.995,216.327,408.887z"/>
<path class="st1" d="M214.486,408.887c-50.95-29.806-59.519-39.98-96.597-44.447c-38.239,3.299-53.818,44.447-29.764,33.263
	C116.93,377.239,166.343,388.078,214.486,408.887z"/>
<path class="st1" d="M214.486,408.887c-15.355-33.803-19.793-65.016-19.75-99.855c-1.187-44.095-21.671-29.17-12.103,31.963
	C190.274,368.966,199.668,388.995,214.486,408.887z"/>
<path class="st1" d="M377.332,550.826c-13.347-22.015-50.947-40.7-92.087-58.899c40.022,29.647,75.41,60.534,81.998,99.129
	C372.485,577.315,376.348,563.817,377.332,550.826z"/>
<path class="st1" d="M362.736,604.835c-14.704-30.806-34.777-44.825-62.497-63.344c31.049,34.45,50.01,62.897,52.297,90.602
	L362.736,604.835z"/>
<path class="st1" d="M54.473,554.874c13.347-22.015,50.947-40.7,92.087-58.899c-40.022,29.647-75.41,60.534-81.998,99.129
	C59.321,581.364,55.458,567.866,54.473,554.874z"/>
<path class="st1" d="M69.069,608.884c14.704-30.806,34.777-44.825,62.497-63.344c-31.049,34.45-50.01,62.897-52.297,90.602
	L69.069,608.884z"/>
</svg>
