<?xml version="1.0" encoding="utf-8"?>
<!-- Generator: Adobe Illustrator 21.0.2, SVG Export Plug-In . SVG Version: 6.00 Build 0)  -->
<svg version="1.1" id="Layer_1" xmlns="http://www.w3.org/2000/svg" xmlns:xlink="http://www.w3.org/1999/xlink" x="0px" y="0px"
	 viewBox="0 0 1020.972 263.761" style="enable-background:new 0 0 1020.972 263.761;" xml:space="preserve">
<style type="text/css">
	.st0{fill:#B55066;}
</style>
<path class="st0" d="M439.698,189.193c-16.562,0-17.199-21.021,0-21.021h289.204c14.651,0,15.288-21.021,0-21.021H605.958
	c-18.473,0-18.473-21.021,0-21.021h184.097c18.473,0,17.836-21.021,0-21.021H682.4c-22.295,0-22.932-21.021,0-21.021h193.652
	c14.014,0,15.288-21.021,0-21.021H529.517c-14.651,0-14.651,21.021,0,21.021h52.235c17.199,0,17.836,21.021,0,21.021H188.715
	c-15.925,0-15.925-21.021,0-21.021h296.848c17.199,0,17.836-21.021,0-21.021H326.947c-19.11,0-19.11-21.021,0-21.021h52.235
	c18.473,0,19.11-21.021,0-21.021H12.9C-4.3,21.021-4.3,0,12.9,0h447.183c19.11,0,18.473,21.021,0,21.021h-33.762
	c-16.562,0-14.651,21.021,0,21.021h289.204h293.026c16.562,0,16.562,21.021,0,21.021h-84.086c-14.014,0-12.103,21.021,0,21.021
	h42.043c20.384,0,19.747,21.021,0,21.021H844.838c-14.333,0-17.916,11.825-10.75,17.737c2.389,1.971,5.972,3.285,10.75,3.285
	c21.658,0,21.658,21.021,0,21.021h-71.982c-12.103,0-12.74,21.021,0,21.021l210.851-0.637c19.11,0,19.747,21.021,0,21.021h-93.641
	c-91.093-0.637-123.58,30.577-81.538,69.434c-26.773,8.514-53.133,7.907-78.99-3.822c-1.102-6.125-5.697-14.51-10.192-22.295
	c-6.987-12.102-13.562-22.932-5.096-22.932c20.384,0,21.021-21.021-4.459-21.021"/>
<path class="st0" d="M717.081,208.94h-51.73c-14.64,0-14.64,21.021,0,21.021h61.002L717.081,208.94z"/>
</svg>
