<?xml version="1.0" encoding="utf-8"?>
<!-- Generator: Adobe Illustrator 21.0.2, SVG Export Plug-In . SVG Version: 6.00 Build 0)  -->
<svg version="1.1" id="Layer_1" xmlns="http://www.w3.org/2000/svg" xmlns:xlink="http://www.w3.org/1999/xlink" x="0px" y="0px"
	 viewBox="0 0 597.416 290.055" style="enable-background:new 0 0 597.416 290.055;" xml:space="preserve">
<style type="text/css">
	.st0{fill:url(#SVGID_1_);stroke:#D08B3C;stroke-miterlimit:10;}
	.st1{fill:#F4C38E;}
	.st2{fill:#664696;}
	.st3{fill:#BF8355;}
	.st4{fill:#C68469;}
	.st5{fill:#9F1546;}
	.st6{fill:#9D1546;}
	.st7{fill:#D08B3C;}
	.st8{fill:none;stroke:#D08B3C;stroke-width:0.25;stroke-miterlimit:10;}
</style>
<g>
	<linearGradient id="SVGID_1_" gradientUnits="userSpaceOnUse" x1="191.5489" y1="8.1469" x2="369.8996" y2="317.0593">
		<stop  offset="0" style="stop-color:#442E86"/>
		<stop  offset="0.1582" style="stop-color:#472E87"/>
		<stop  offset="0.3357" style="stop-color:#532F87"/>
		<stop  offset="0.5225" style="stop-color:#653188"/>
		<stop  offset="0.7158" style="stop-color:#7D348A"/>
		<stop  offset="0.9122" style="stop-color:#9B398C"/>
		<stop  offset="1" style="stop-color:#A93C8D"/>
	</linearGradient>
	<path class="st0" d="M552.201,211.807c-191.622-9.496-271.248-99.502-342.522-167.935c-4.414,3.567-10.884,4.013-15.346-2.747
		C166.842,68.818,125.081,88.099,67.39,93.316c-22.796,2.031-42.272,8.649-57.685,20.876
		c53.815,17.673,103.106,46.011,151.628,85.703c56.995,44.718,116.891,71.095,181.486,67.756
		c45.083-1.427,90.127-13.894,135.142-34.426C504.095,223.086,528.89,215.84,552.201,211.807z"/>
	<circle class="st1" cx="203.571" cy="36.76" r="10.57"/>
	<circle class="st1" cx="7.511" cy="113.428" r="6.774"/>
	<circle class="st1" cx="555.655" cy="211.144" r="7.748"/>
	<path class="st1" d="M593.592,223.018c0.509-6.188-2.336-10.772-10.566-12.78l-19.732-0.347l-5.827,9.001
		c1.87,7.808,5.997,15.585,11.371,23.346c5.453,1.013,10.753,1.69,14.289-1.509l2.314,2.918c5.668-1.16,9.693-4.736,11.975-10.767
		C597.233,228.912,595.805,225.721,593.592,223.018z"/>
	<path class="st1" d="M338.735,268.731c-1.14,5.449-0.772,11.201,0.747,17.184c-0.127,0.943,7.686,2.176,8.005,1.708
		c0.217-0.318,2.455,2.135,2.455,2.135c1.475,1.751,12.616-4.823,15.263-4.483c2.013,0.259,9.873-7.306,7.898-7.792
		c-5.23-1.857-10.786-5.832-16.467-10.612L338.735,268.731z"/>
	<path class="st1" d="M253.26,5.169c-15.376-13.237-54.283,0.802-51.467,21.18l11.857,7.223c10.774-6.888,21.772-5.913,33.059,2.081
		c0.891-7.16,0.869-13.63-1.337-18.451l6.284,1.07c-0.04-3.795-0.543-7.126-2.674-8.824c-4.099-0.233-10.095-0.575-16.445-0.936
		C238.419,5.197,245.229,3.873,253.26,5.169z"/>
	<path class="st1" d="M19.674,76.369c-14.178,2.65-18.447,15.28-16.155,31.595l9.974,2.287
		c6.698-10.174,15.541-16.271,24.057-20.292c2.492-3.388,2.297-7.388,0.49-11.754c-2.49-1.053-4.935-0.749-7.346,0.612
		c-0.194-2.67-1.932-4.555-5.265-5.632C22.613,73.594,20.695,74.655,19.674,76.369z"/>
	<g>
		<g>
			<g>
				<path class="st2" d="M134.578,132.873c-4.893-4.339-11.228-8.664-19.708-7.541c-8.653,1.147-12.09,7.438-12.745,12.51
					c-1.363,10.547,14.192,23.048,32.189,19.169c-2.118-1.803-4.236-3.606-6.354-5.409c-4.534,2.307-9.855-7.333-10.505-8.726
					c-0.692-1.271-1.127-2.553-1.304-3.844c2.18-4.58,5.123-4.45,8.828,0.39c1.184,3.539,10.362,3.614,9.9,0.114
					c-0.711-5.385-10.521-9.538-17.748-6.703c-8.314,3.261-6.365,11.311-0.669,16.683c13.727,12.946,41.829,9.614,42.267-3.879
					c-3.121,0.224-6.242,0.447-9.363,0.671c2.783,2.781,3.912,5.203,3.828,8.184c-0.11,3.941,10,4.836,10.11,0.911
					c0.112-3.993-1.595-7.624-5.322-11.348c-2.896-2.894-9.264-2.402-9.363,0.671c-0.153,4.725-7.195,8.336-15.416,6.516
					c-3.562-0.789-6.875-2.682-8.895-4.67c-0.589-0.727-1.177-1.455-1.766-2.182c-1.681-2.353-0.938-4.275,2.227-5.764
					c3.3,0.038,6.6,0.076,9.9,0.114c-3.467-10.358-27.325-13.156-28.63-2.444c-0.98,8.045,13.391,28.418,29.323,20.311
					c4.128-2.1-1.478-6.46-6.354-5.409c-9.467,2.04-16.521-4.927-16.887-9.957c-0.33-4.538,4.623-14.287,13.84-6.115
					C129.933,138.648,138.583,136.424,134.578,132.873L134.578,132.873z"/>
			</g>
			<g>
				<path class="st2" d="M156.666,161.148c4.166,3.455,11.365,2.674,14.462,0.154c1.955-1.592,2.637-3.574,2.914-5.672
					c0.153-1.16,0.103-2.357,0.374-3.498c0.321-1.353,1.573-1.855,2.249-2.923c-2.188,3.46,7.699,5.881,9.872,2.446
					c2.695-4.261-5.635-9.292-12.728-8.692c-3.901,0.33-6.762,2.09-8.209,4.174c-0.916,1.319-1.185,2.777-1.366,4.268
					c-0.124,1.02-1.635,5.228-0.672,6.027C159.37,153.957,152.512,157.703,156.666,161.148L156.666,161.148z"/>
			</g>
			<g>
				<path class="st2" d="M193.405,155.225c-5.507-2.909-11.181,0.372-10.985,3.669c0.202,3.392,4.323,6.945,9.551,8.559
					c6.092,1.88,12.105,0.809,15.712-1.836c2.071-1.518,3.221-3.413,3.761-5.477c0.233-0.889,0.349-1.819,0.468-2.728
					c0.073-0.671,0.146-1.341,0.22-2.012c-2.571-0.226-3.236,0.158-1.995,1.153c3.085,3.828,11.683,1.552,8.617-2.253
					c-1.77-2.195-4.697-4.461-8.743-4.909c-4.164-0.461-6.998,1.35-7.751,3.563c-0.891,2.618,0.098,5.726-2.436,7.917
					c-1.031,0.891-2.772,1.745-4.879,1.078c-0.873-0.276-1.239-0.849-1.893-1.207c-0.237-0.191-0.37-0.397-0.4-0.618
					c-0.229-1.049-1.539-1.045-3.928,0.014C194.07,162.962,198.72,158.032,193.405,155.225L193.405,155.225z"/>
			</g>
		</g>
		<g>
			<g>
				<path class="st2" d="M215.502,86.869c-12.489-6.489,4.175-8.322,11.627-7.61c8.229,0.786,18.967,5.736,14.485,11.252
					c-2.259,2.78,4.229,6.679,8.187,4.421c15.18-8.662-16.782-19.474-30.126-19.879c-17.903-0.543-15.761,14.219,0.792,17.447
					c0.31-1.983,0.62-3.967,0.929-5.95c2.274-1.601,4.91-1.96,7.908-1.076c1.88,0.305,3.622,0.87,5.225,1.696
					c3.014,1.425,5.764,3.677,6.684,5.862c2.169,5.151-4.745,8.947-12.465,8.51c-5.062-0.286-6.604,3.474-2.161,5.54
					c5.71,2.655,11.495,4.089,18.08,4.472c6.47,0.377,6.143-5.788-0.359-6.166c-4.916-0.286-8.777-1.237-13.041-3.22
					c-0.72,1.847-1.441,3.693-2.161,5.54c22.236,1.258,30.939-15.207,11.155-24.912c-7.94-3.895-20.718-6.078-27.146-1.773
					c-5.919,3.964-0.586,10.606,8.639,11.692c5.649,0.665,6.68-4.829,0.929-5.95c-7.549-2.768-7.431-4.548,0.355-5.339
					c2.106,0.252,4.166,0.657,6.181,1.216c2.219,0.547,17.488,4.826,13.178,7.285c2.729,1.474,5.458,2.947,8.187,4.421
					c8.413-10.354-10.409-21.088-27.923-21.468c-8.482-0.184-19.076,1.191-22.031,6.232c-2.89,4.931,3.644,9.27,10.189,12.671
					C216.206,94.581,220.86,89.653,215.502,86.869L215.502,86.869z"/>
			</g>
			<g>
				<path class="st2" d="M247.978,111.937c-1.196-0.662-7.503-0.208-9.031-0.252c-2.574-0.075-5.147-0.143-7.548,0.217
					c-3.855,0.578-7.355,2.11-8.396,4.548c-1.788,4.187,5.559,9.749,12.872,8.614c5.895-0.914,3.036-7.119-2.912-6.197
					c1.4-0.217,2.14-0.895,3.79-1.021c2.055-0.157,4.317,0.114,6.438,0.165c3.699,0.089,7.276-0.041,10.304-1.1
					c4.496-1.572,6.607-5.796,1.379-8.691C249.679,105.345,242.721,109.026,247.978,111.937L247.978,111.937z"/>
			</g>
			<g>
				<path class="st2" d="M249.593,127.334c-0.326,0.748-0.652,1.497-0.978,2.245c0.342,0.073,0.683,0.145,1.025,0.218
					c0.515,0.464,1.464,0.628,1.951,1.188c1.089,1.251,0.163,2.234-1.396,2.89c-3.824,1.611-9.38,0.519-13.955,0.767
					c-3.594,0.195-6.595,1.505-6.68,3.863c-0.095,2.617,3.363,4.774,7.035,6.181c5.907,2.265,10.644-2.627,4.681-4.914
					c-1.498-0.857-2.206-0.501-2.124,1.066c1.112,0.031,2.224,0.063,3.337,0.095c1.51,0.031,3.054,0.066,4.544,0.027
					c3.45-0.091,6.711-0.569,9.441-1.638c4.763-1.866,7.208-5.342,4.795-9.216c-2.069-3.322-7.444-6.19-13.011-6.694
					c-5.41-0.49-11.442,2.548-7.28,6.174C244.991,133.085,253.644,130.864,249.593,127.334L249.593,127.334z"/>
			</g>
		</g>
		<g>
			<g>
				<path class="st2" d="M300.943,250.882c12.489,6.489-4.175,8.322-11.627,7.61c-8.229-0.786-18.967-5.736-14.485-11.252
					c2.259-2.78-4.229-6.679-8.187-4.421c-15.18,8.662,16.782,19.474,30.126,19.879c17.903,0.543,15.761-14.219-0.792-17.447
					c-0.31,1.983-0.62,3.967-0.929,5.95c-2.274,1.601-4.91,1.96-7.908,1.076c-1.88-0.305-3.622-0.87-5.225-1.696
					c-3.014-1.425-5.764-3.677-6.684-5.862c-2.169-5.151,4.745-8.947,12.465-8.51c5.062,0.286,6.604-3.474,2.161-5.54
					c-5.71-2.655-11.495-4.089-18.08-4.472c-6.47-0.377-6.143,5.788,0.359,6.166c4.916,0.286,8.777,1.237,13.041,3.22
					c0.72-1.847,1.441-3.693,2.161-5.54c-22.236-1.258-30.939,15.207-11.155,24.912c7.94,3.895,20.718,6.078,27.146,1.773
					c5.919-3.964,0.586-10.606-8.639-11.692c-5.649-0.665-6.68,4.829-0.929,5.95c7.549,2.768,7.431,4.548-0.355,5.339
					c-2.106-0.252-4.166-0.657-6.181-1.216c-2.219-0.547-17.488-4.826-13.178-7.285c-2.729-1.474-5.458-2.947-8.187-4.421
					c-8.413,10.354,10.409,21.088,27.923,21.468c8.482,0.184,19.076-1.191,22.031-6.232c2.89-4.931-3.644-9.27-10.189-12.671
					C300.238,243.17,295.585,248.098,300.943,250.882L300.943,250.882z"/>
			</g>
			<g>
				<path class="st2" d="M268.466,225.815c1.196,0.662,7.503,0.208,9.031,0.252c2.574,0.075,5.147,0.143,7.548-0.217
					c3.855-0.578,7.355-2.11,8.396-4.548c1.788-4.187-5.559-9.749-12.872-8.614c-5.895,0.914-3.036,7.119,2.912,6.197
					c-1.4,0.217-2.14,0.895-3.79,1.021c-2.055,0.157-4.317-0.114-6.438-0.165c-3.699-0.089-7.276,0.041-10.304,1.1
					c-4.496,1.572-6.607,5.796-1.379,8.691C266.765,232.406,273.723,228.725,268.466,225.815L268.466,225.815z"/>
			</g>
			<g>
				<path class="st2" d="M266.851,210.418c0.326-0.748,0.652-1.497,0.978-2.245c-0.342-0.073-0.683-0.145-1.025-0.218
					c-0.515-0.464-1.464-0.628-1.951-1.188c-1.089-1.251-0.163-2.234,1.396-2.89c3.824-1.611,9.38-0.519,13.955-0.767
					c3.594-0.195,6.595-1.505,6.68-3.863c0.095-2.617-3.363-4.774-7.035-6.181c-5.907-2.265-10.644,2.627-4.681,4.914
					c1.498,0.857,2.206,0.501,2.124-1.066c-1.112-0.031-2.224-0.063-3.337-0.095c-1.51-0.031-3.054-0.066-4.544-0.027
					c-3.45,0.091-6.711,0.569-9.441,1.638c-4.763,1.866-7.208,5.342-4.795,9.216c2.069,3.322,7.444,6.19,13.011,6.694
					c5.41,0.49,11.442-2.548,7.28-6.174C271.454,204.666,262.8,206.887,266.851,210.418L266.851,210.418z"/>
			</g>
		</g>
		<g>
			<g>
				<path class="st2" d="M381.866,204.878c4.893,4.339,11.228,8.664,19.708,7.541c8.653-1.147,12.09-7.438,12.745-12.51
					c1.363-10.547-14.192-23.048-32.189-19.169c2.118,1.803,4.236,3.606,6.354,5.409c4.534-2.307,9.855,7.333,10.505,8.726
					c0.692,1.271,1.127,2.553,1.304,3.844c-2.18,4.58-5.123,4.45-8.828-0.39c-1.184-3.539-10.362-3.614-9.9-0.114
					c0.711,5.385,10.521,9.538,17.748,6.703c8.314-3.261,6.365-11.311,0.669-16.683c-13.727-12.946-41.829-9.614-42.267,3.879
					c3.121-0.224,6.242-0.447,9.363-0.671c-2.783-2.781-3.912-5.203-3.828-8.184c0.11-3.941-10-4.836-10.11-0.911
					c-0.112,3.993,1.595,7.624,5.322,11.348c2.896,2.894,9.264,2.402,9.363-0.671c0.153-4.725,7.195-8.336,15.416-6.516
					c3.562,0.789,6.875,2.682,8.895,4.67c0.589,0.727,1.177,1.455,1.766,2.182c1.681,2.353,0.938,4.275-2.227,5.764
					c-3.3-0.038-6.6-0.076-9.9-0.114c3.467,10.358,27.325,13.156,28.63,2.444c0.98-8.045-13.391-28.418-29.323-20.311
					c-4.128,2.1,1.478,6.46,6.354,5.409c9.467-2.04,16.521,4.927,16.887,9.957c0.33,4.538-4.623,14.287-13.84,6.115
					C386.511,199.104,377.861,201.327,381.866,204.878L381.866,204.878z"/>
			</g>
			<g>
				<path class="st2" d="M359.778,176.603c-4.166-3.455-11.365-2.674-14.462-0.154c-1.955,1.592-2.637,3.574-2.914,5.672
					c-0.153,1.16-0.103,2.357-0.374,3.498c-0.321,1.353-1.573,1.855-2.249,2.923c2.188-3.46-7.699-5.881-9.872-2.446
					c-2.695,4.261,5.635,9.292,12.728,8.692c3.901-0.33,6.762-2.09,8.209-4.174c0.916-1.319,1.185-2.777,1.366-4.268
					c0.124-1.02,1.635-5.228,0.672-6.027C357.074,183.795,363.933,180.048,359.778,176.603L359.778,176.603z"/>
			</g>
			<g>
				<path class="st2" d="M323.039,182.527c5.507,2.909,11.181-0.372,10.985-3.669c-0.202-3.392-4.323-6.945-9.551-8.559
					c-6.092-1.88-12.105-0.809-15.712,1.836c-2.071,1.518-3.221,3.413-3.761,5.477c-0.233,0.889-0.349,1.819-0.468,2.728
					c-0.073,0.671-0.146,1.341-0.22,2.012c2.571,0.226,3.236-0.158,1.995-1.153c-3.085-3.828-11.683-1.552-8.617,2.253
					c1.77,2.195,4.697,4.461,8.743,4.909c4.164,0.461,6.998-1.35,7.751-3.563c0.891-2.618-0.098-5.726,2.436-7.917
					c1.031-0.891,2.772-1.745,4.879-1.078c0.873,0.276,1.239,0.849,1.893,1.207c0.237,0.191,0.37,0.397,0.4,0.618
					c0.229,1.049,1.539,1.045,3.928-0.014C322.374,174.789,317.725,179.72,323.039,182.527L323.039,182.527z"/>
			</g>
		</g>
		<g>
			<g>
				<path class="st3" d="M196.705,115.342c-1.086,2.265,0.994,4.417,3.274,3.221c0.496-0.26,0.704-0.892,0.574-1.412
					c-0.017-0.067-0.969-2.267-1.174-1.836c0.702-1.477,8.121,2.734,9.484,3.73c3.618,2.644,6.145,6.278,8.338,10.133
					c5.322,9.355,8.758,19.6,9.535,30.358c0.115,1.595,2.616,1.608,2.5,0c-0.954-13.219-5.625-27.829-14.247-38.127
					c-3.386-4.045-8.488-7.864-13.891-8.49c-1.351-0.156-3.52-0.086-4.193,1.376c-0.568,1.234,1.022,4.263,1.96,2.308
					C199.556,115.16,197.401,113.891,196.705,115.342L196.705,115.342z"/>
			</g>
		</g>
		<g>
			<g>
				<path class="st3" d="M178.123,127.819c0.773,0.195,1.546,0.389,2.319,0.584c0-0.72,0-1.439,0-2.159
					c-1.721,0.953-4.103-2.472-6.211,0.013c-1.038,1.223-0.712,2.408-0.037,3.79c2.563,5.25,10.591,7.786,15.636,9.49
					c18.194,6.146,37.515,9.519,56.597,11.31c1.601,0.15,1.591-2.351,0-2.5c-15.451-1.45-30.756-4.15-45.74-8.203
					c-6.426-1.738-13.308-3.432-19.094-6.834c-1.408-0.828-2.841-1.777-3.982-2.958c-1.863-1.928-0.821-1.871,1.087-1.776
					c1.486,0.074,1.661,0.57,3.006-0.175c0.894-0.495,0.715-1.627,0-2.159c-1.168-0.869-2.15-1.072-3.581-0.925
					C176.538,125.482,176.521,127.984,178.123,127.819L178.123,127.819z"/>
			</g>
		</g>
		<g>
			<g>
				<path class="st3" d="M339.461,209.393c-0.773-0.195-1.546-0.389-2.319-0.584c0,0.72,0,1.439,0,2.159
					c1.721-0.953,4.103,2.472,6.211-0.013c1.038-1.223,0.712-2.408,0.037-3.79c-2.563-5.25-10.591-7.786-15.636-9.49
					c-18.194-6.146-37.515-9.519-56.597-11.31c-1.601-0.15-1.591,2.351,0,2.5c15.451,1.45,30.756,4.15,45.74,8.203
					c6.426,1.738,13.308,3.432,19.094,6.834c1.408,0.828,2.841,1.777,3.982,2.958c1.863,1.928,0.821,1.871-1.087,1.776
					c-1.486-0.074-1.661-0.57-3.006,0.175c-0.894,0.495-0.715,1.627,0,2.159c1.168,0.869,2.15,1.072,3.581,0.925
					C341.046,211.73,341.063,209.228,339.461,209.393L339.461,209.393z"/>
			</g>
		</g>
		<g>
			<g>
				<path class="st3" d="M320.879,221.87c1.086-2.265-0.994-4.417-3.274-3.221c-0.496,0.26-0.704,0.892-0.574,1.412
					c0.017,0.067,0.969,2.267,1.174,1.836c-0.702,1.477-8.121-2.734-9.484-3.73c-3.618-2.644-6.145-6.278-8.338-10.133
					c-5.322-9.355-8.758-19.6-9.535-30.358c-0.115-1.595-2.616-1.608-2.5,0c0.954,13.219,5.625,27.829,14.247,38.127
					c3.386,4.045,8.488,7.864,13.891,8.49c1.351,0.156,3.52,0.086,4.193-1.376c0.568-1.234-1.022-4.263-1.96-2.308
					C318.028,222.052,320.183,223.322,320.879,221.87L320.879,221.87z"/>
			</g>
		</g>
		<g>
			<g>
				<g>
					<g>
						<path class="st4" d="M249.882,163.69c-2.855-1.848-5.994-2.78-9.354-3.175c-1.013-0.119-1.462,1.13-1.079,1.881
							c2.378,4.667,9.214,5.187,13.766,5.747c1.488,0.183,1.558-2.004,0.332-2.455c-3.514-1.295-7.028-2.59-10.542-3.885
							c-0.984-0.362-2.044,0.969-1.412,1.836c2.241,3.072,6.409,4.02,10.013,3.469c0.928-0.142,1.201-1.504,0.552-2.089
							c-2.102-1.895-4.641-2.871-7.424-3.253c-1.543-0.212-2.261,1.95-0.665,2.411c2.828,0.817,5.656,1.633,8.483,2.45
							c1.435,0.414,2.066-1.496,0.963-2.285c-2.237-1.599-4.697-2.655-7.337-3.394c-1.589-0.445-2.119,1.825-0.665,2.411
							c2.678,1.078,5.172,2.416,7.523,4.091c1.013,0.722,2.398-0.701,1.71-1.71c-2.046-3.001-5.237-4.887-8.633-6.031
							c-1.941-0.654-7.303-2.441-7.861,0.944c-0.435,2.64,3.21,4.653,5.39,3.576c2.554-1.261,0.243-3.764-1.806-3.743
							c-1.608,0.017-1.612,2.517,0,2.5c0.127-0.042,0.253-0.084,0.38-0.125c0.206-0.36,0.413-0.72,0.619-1.079
							c-2.046-0.645-2.079-0.773-0.1-0.382c0.615,0.121,1.224,0.269,1.826,0.443c1.065,0.308,2.108,0.694,3.104,1.183
							c1.921,0.945,3.703,2.188,4.922,3.977c0.57-0.57,1.14-1.14,1.71-1.71c-2.532-1.804-5.241-3.184-8.12-4.343
							c-0.222,0.804-0.443,1.607-0.665,2.411c2.442,0.684,4.674,1.665,6.74,3.142c0.321-0.762,0.642-1.523,0.963-2.285
							c-2.828-0.817-5.656-1.633-8.483-2.45c-0.222,0.804-0.443,1.607-0.665,2.411c2.335,0.32,4.54,1.004,6.321,2.61
							c0.184-0.696,0.368-1.393,0.552-2.089c-2.373,0.363-5.688-0.26-7.19-2.32c-0.471,0.612-0.941,1.224-1.412,1.836
							c3.514,1.295,7.028,2.59,10.542,3.885c0.111-0.818,0.222-1.637,0.332-2.455c-3.607-0.444-9.715-0.796-11.607-4.509
							c-0.36,0.627-0.72,1.254-1.079,1.881c2.915,0.342,5.624,1.236,8.092,2.834C249.975,166.725,251.229,164.562,249.882,163.69
							L249.882,163.69z"/>
					</g>
				</g>
				<g>
					<g>
						<path class="st4" d="M254.972,160.946c-1.534-1.071-3.106-2.526-3.342-4.491c-0.527,0.402-1.055,0.804-1.582,1.205
							c3.925,0.979,5.577,3.482,6.137,7.314c0.762-0.321,1.523-0.642,2.285-0.963c-1.735-2.254-3.47-4.507-5.206-6.761
							c-0.471,0.612-0.941,1.224-1.412,1.836c1.3,0.445,4.187,1.91,3.047,3.649c0.57-0.149,1.14-0.299,1.71-0.448
							c-1.588-0.798-3.163-1.835-3.476-3.706c-0.762,0.321-1.523,0.642-2.285,0.963c1.025,1.788,2.05,3.576,3.075,5.364
							c0.57-0.57,1.14-1.14,1.71-1.71c-1.701-1.078-3.17-2.356-4.138-4.142c-0.654,0.505-1.309,1.01-1.963,1.515
							c1.802,2.138,3.959,3.866,6.312,5.362c0.321-0.762,0.642-1.523,0.963-2.285c-2.412-0.785-4.795-1.96-6.558-3.831
							c-0.54-0.574-1.555-1.648-1.593-2.507c-0.03-0.673,0.322-0.408,1.181-0.225c0.551,0.117,1.878,1.099,1.302-0.224
							c0,0.421,0,0.841,0,1.262c0.04-0.085,0.08-0.171,0.12-0.256c0.677-1.449-1.477-2.72-2.159-1.262
							c-1.156,2.472,2.844,4.058,4.334,2.156c2.215-2.829-3.137-4.458-5.06-4.278c-3.263,0.306-2.353,3.775-1.069,5.657
							c2.053,3.009,5.453,4.819,8.836,5.92c1.387,0.452,2.125-1.546,0.963-2.285c-2.184-1.389-4.136-2.99-5.806-4.971
							c-0.943-1.119-2.616,0.31-1.963,1.515c1.17,2.159,2.982,3.739,5.034,5.039c1.079,0.683,2.315-0.655,1.71-1.71
							c-1.025-1.788-2.05-3.576-3.075-5.364c-0.747-1.302-2.507-0.37-2.285,0.963c0.413,2.475,2.504,4.134,4.625,5.2
							c0.627,0.315,1.32,0.146,1.71-0.448c2.201-3.358-1.705-6.351-4.541-7.322c-0.965-0.33-2.082,0.966-1.412,1.836
							c1.735,2.254,3.47,4.507,5.206,6.761c0.878,1.14,2.495,0.478,2.285-0.963c-0.681-4.66-3.202-7.893-7.883-9.06
							c-0.706-0.176-1.683,0.366-1.582,1.205c0.354,2.946,2.217,5,4.581,6.65C255.033,164.028,256.284,161.862,254.972,160.946
							L254.972,160.946z"/>
					</g>
				</g>
			</g>
			<g>
				<g>
					<g>
						<path class="st4" d="M265.605,164.262c2.294-1.295,3.958-3.263,3.971-5.991c0.003-0.642-0.576-1.296-1.25-1.25
							c-2.053,0.141-4.081,0.738-5.542,2.267c-1.549,1.622-1.768,3.853-1.834,5.986c-0.042,1.362,1.643,1.536,2.329,0.631
							c1.49-1.963,2.98-3.926,4.469-5.889c0.738-0.972-0.478-1.992-1.412-1.836c-3.205,0.536-6.181,3.472-3.939,6.692
							c0.304,0.436,0.863,0.761,1.412,0.574c2.345-0.796,4.368-2.331,4.49-4.971c0.056-1.219-1.769-1.73-2.329-0.631
							c-0.827,1.621-1.653,3.243-2.48,4.864c-0.583,1.143,0.58,2.264,1.71,1.71c1.929-0.945,3.614-2.282,4.546-4.256
							c0.562-1.19-0.973-2.671-1.963-1.515c-1.47,1.716-3.248,2.933-5.265,3.928c-1.377,0.679-0.323,2.479,0.963,2.285
							c3.035-0.458,6.275-1.656,8.118-4.256c1.615-2.276,1.634-5.425-1.59-6.026c-1.903-0.355-6.615,0.537-4.712,3.485
							c1.346,2.086,5.854,1.102,4.401-1.598c-0.763-1.417-2.922-0.156-2.159,1.262c0.05,0.094,0.101,0.187,0.151,0.281
							c-0.042-0.321-0.084-0.642-0.126-0.963c0.018-0.053,1.454-0.066,1.509-0.063c0.907,0.053,1.168,0.233,1.056,1.05
							c-0.104,0.76-0.837,1.537-1.364,2.018c-1.619,1.478-3.834,2.079-5.949,2.399c0.321,0.762,0.642,1.523,0.963,2.285
							c2.19-1.08,4.177-2.457,5.771-4.319c-0.654-0.505-1.309-1.01-1.963-1.515c-0.764,1.619-2.074,2.588-3.649,3.359
							c0.57,0.57,1.14,1.14,1.71,1.71c0.827-1.621,1.653-3.243,2.48-4.864c-0.776-0.21-1.553-0.421-2.329-0.631
							c-0.067,1.442-1.449,2.151-2.654,2.561c0.471,0.191,0.941,0.383,1.412,0.574c-1.285-1.846,0.873-2.757,2.445-3.02
							c-0.471-0.612-0.941-1.224-1.412-1.836c-1.49,1.963-2.98,3.926-4.469,5.889c0.776,0.21,1.553,0.421,2.329,0.631
							c0.103-3.322,1.293-5.507,4.876-5.754c-0.417-0.417-0.833-0.833-1.25-1.25c-0.009,1.847-1.212,2.975-2.732,3.832
							C262.942,162.894,264.201,165.054,265.605,164.262L265.605,164.262z"/>
					</g>
				</g>
				<g>
					<g>
						<path class="st4" d="M271.07,167.956c2.456-1.243,5.121-1.455,7.833-1.285c-0.36-0.627-0.72-1.254-1.079-1.881
							c-1.477,3.409-8.193,2.433-11.141,2.265c0.111,0.818,0.222,1.637,0.332,2.455c3.4-0.672,6.799-1.344,10.199-2.016
							c-0.471-0.612-0.941-1.224-1.412-1.836c-1.412,1.999-5.018,1.42-6.942,0.792c0.184,0.696,0.368,1.393,0.552,2.089
							c1.601-1.29,3.75-1.435,5.718-1.351c0-0.833,0-1.667,0-2.5c-2.762,0.313-5.524,0.626-8.286,0.939
							c0.21,0.776,0.421,1.553,0.631,2.329c1.908-1.103,3.915-1.623,6.099-1.857c-0.111-0.818-0.222-1.637-0.332-2.455
							c-2.721,0.637-5.289,1.564-7.709,2.97c0.57,0.57,1.14,1.14,1.71,1.71c1.224-1.898,9.485-5.609,9.943-3.104
							c-0.107,0.405-0.214,0.811-0.321,1.216c0.127-0.026,0.253-0.053,0.38-0.079c1.572,0.298,2.246-2.111,0.665-2.411
							c-2.191-0.415-4.693,1.831-2.104,3.437c1.972,1.224,5.258,0.245,5.319-2.351c0.08-3.457-4.929-3.025-7.098-2.752
							c-3.455,0.436-6.985,1.745-8.942,4.78c-0.692,1.073,0.661,2.32,1.71,1.71c2.238-1.301,4.599-2.13,7.112-2.718
							c1.342-0.314,1.089-2.608-0.332-2.455c-2.616,0.28-5.069,0.873-7.361,2.198c-1.003,0.58-0.65,2.474,0.631,2.329
							c2.762-0.313,5.524-0.626,8.286-0.939c1.568-0.178,1.644-2.43,0-2.5c-2.728-0.117-5.324,0.34-7.486,2.083
							c-0.78,0.629-0.256,1.826,0.552,2.089c3.185,1.04,7.633,1.079,9.765-1.941c0.683-0.968-0.441-2.028-1.412-1.836
							c-3.4,0.672-6.799,1.344-10.199,2.016c-1.445,0.286-1.011,2.379,0.332,2.455c3.9,0.223,11.325,1.052,13.299-3.503
							c0.383-0.884-0.062-1.817-1.079-1.881c-3.169-0.199-6.238,0.181-9.095,1.627C268.373,166.524,269.637,168.682,271.07,167.956
							L271.07,167.956z"/>
					</g>
				</g>
			</g>
			<g>
				<g>
					<g>
						<path class="st4" d="M255.594,174.212c-2.294,1.295-3.958,3.263-3.971,5.991c-0.003,0.642,0.576,1.296,1.25,1.25
							c2.053-0.141,4.081-0.738,5.542-2.267c1.549-1.622,1.768-3.853,1.834-5.986c0.042-1.362-1.643-1.536-2.329-0.631
							c-1.49,1.963-2.98,3.926-4.469,5.889c-0.738,0.972,0.478,1.992,1.412,1.836c3.205-0.536,6.181-3.472,3.939-6.692
							c-0.304-0.436-0.863-0.761-1.412-0.574c-2.345,0.796-4.368,2.331-4.49,4.971c-0.056,1.219,1.769,1.73,2.329,0.631
							c0.827-1.621,1.653-3.243,2.48-4.864c0.583-1.143-0.58-2.264-1.71-1.71c-1.929,0.945-3.614,2.282-4.546,4.256
							c-0.562,1.19,0.973,2.671,1.963,1.515c1.47-1.716,3.248-2.933,5.265-3.928c1.377-0.679,0.323-2.479-0.963-2.285
							c-3.035,0.458-6.275,1.656-8.118,4.256c-1.615,2.276-1.634,5.425,1.59,6.026c1.903,0.355,6.615-0.537,4.712-3.485
							c-1.346-2.086-5.854-1.102-4.401,1.598c0.763,1.417,2.922,0.156,2.159-1.262c-0.05-0.094-0.101-0.187-0.151-0.281
							c0.042,0.321,0.084,0.642,0.126,0.963c-0.018,0.053-1.454,0.066-1.509,0.063c-0.907-0.053-1.168-0.233-1.056-1.05
							c0.104-0.76,0.837-1.537,1.364-2.018c1.619-1.478,3.834-2.079,5.949-2.399c-0.321-0.762-0.642-1.523-0.963-2.285
							c-2.19,1.08-4.177,2.457-5.771,4.319c0.654,0.505,1.309,1.01,1.963,1.515c0.764-1.619,2.074-2.588,3.649-3.359
							c-0.57-0.57-1.14-1.14-1.71-1.71c-0.827,1.621-1.653,3.243-2.48,4.864c0.776,0.21,1.553,0.421,2.329,0.631
							c0.067-1.442,1.449-2.151,2.654-2.561c-0.471-0.191-0.941-0.383-1.412-0.574c1.285,1.846-0.873,2.757-2.445,3.02
							c0.471,0.612,0.941,1.224,1.412,1.836c1.49-1.963,2.98-3.926,4.469-5.889c-0.776-0.21-1.553-0.421-2.329-0.631
							c-0.103,3.322-1.293,5.507-4.876,5.754c0.417,0.417,0.833,0.833,1.25,1.25c0.009-1.847,1.212-2.975,2.732-3.832
							C258.257,175.58,256.998,173.419,255.594,174.212L255.594,174.212z"/>
					</g>
				</g>
				<g>
					<g>
						<path class="st4" d="M250.129,170.517c-2.456,1.243-5.121,1.455-7.833,1.285c0.36,0.627,0.72,1.254,1.079,1.881
							c1.477-3.409,8.193-2.433,11.141-2.265c-0.111-0.818-0.222-1.637-0.332-2.455c-3.4,0.672-6.799,1.344-10.199,2.016
							c0.471,0.612,0.941,1.224,1.412,1.836c1.412-1.999,5.018-1.42,6.942-0.792c-0.184-0.696-0.368-1.393-0.552-2.089
							c-1.601,1.29-3.75,1.435-5.718,1.351c0,0.833,0,1.667,0,2.5c2.762-0.313,5.524-0.626,8.286-0.939
							c-0.21-0.776-0.421-1.553-0.631-2.329c-1.908,1.103-3.915,1.623-6.099,1.857c0.111,0.818,0.222,1.637,0.332,2.455
							c2.721-0.637,5.289-1.564,7.709-2.97c-0.57-0.57-1.14-1.14-1.71-1.71c-1.224,1.898-9.485,5.609-9.943,3.104
							c0.107-0.405,0.214-0.811,0.321-1.216c-0.127,0.026-0.253,0.053-0.38,0.079c-1.572-0.298-2.246,2.111-0.665,2.411
							c2.191,0.415,4.693-1.831,2.104-3.437c-1.972-1.224-5.258-0.245-5.319,2.351c-0.08,3.457,4.929,3.025,7.098,2.752
							c3.455-0.436,6.985-1.745,8.942-4.78c0.692-1.073-0.661-2.32-1.71-1.71c-2.238,1.301-4.599,2.13-7.112,2.718
							c-1.342,0.314-1.089,2.608,0.332,2.455c2.616-0.28,5.069-0.873,7.361-2.198c1.003-0.58,0.65-2.474-0.631-2.329
							c-2.762,0.313-5.524,0.626-8.286,0.939c-1.568,0.178-1.644,2.43,0,2.5c2.728,0.117,5.324-0.34,7.486-2.083
							c0.78-0.629,0.256-1.826-0.552-2.089c-3.185-1.04-7.633-1.079-9.765,1.941c-0.683,0.968,0.441,2.028,1.412,1.836
							c3.4-0.672,6.799-1.344,10.199-2.016c1.445-0.286,1.011-2.379-0.332-2.455c-3.9-0.223-11.325-1.052-13.299,3.503
							c-0.383,0.884,0.062,1.817,1.079,1.881c3.169,0.199,6.238-0.181,9.095-1.627C252.826,171.949,251.562,169.792,250.129,170.517
							L250.129,170.517z"/>
					</g>
				</g>
			</g>
			<g>
				<g>
					<g>
						<path class="st4" d="M269.745,173.537c2.855,1.848,5.994,2.78,9.354,3.175c1.013,0.119,1.462-1.13,1.079-1.881
							c-2.378-4.667-9.214-5.187-13.766-5.747c-1.488-0.183-1.558,2.004-0.332,2.455c3.514,1.295,7.028,2.59,10.542,3.885
							c0.984,0.362,2.044-0.969,1.412-1.836c-2.241-3.072-6.409-4.02-10.013-3.469c-0.928,0.142-1.201,1.504-0.552,2.089
							c2.102,1.895,4.641,2.871,7.424,3.253c1.543,0.212,2.261-1.95,0.665-2.411c-2.828-0.817-5.656-1.633-8.483-2.45
							c-1.435-0.414-2.066,1.496-0.963,2.285c2.237,1.599,4.697,2.655,7.337,3.394c1.589,0.445,2.119-1.825,0.665-2.411
							c-2.678-1.078-5.172-2.416-7.523-4.091c-1.013-0.722-2.398,0.701-1.71,1.71c2.046,3.001,5.237,4.887,8.633,6.031
							c1.941,0.654,7.303,2.441,7.861-0.944c0.435-2.64-3.21-4.653-5.39-3.576c-2.554,1.261-0.243,3.764,1.806,3.743
							c1.608-0.017,1.612-2.517,0-2.5c-0.127,0.042-0.253,0.084-0.38,0.125c-0.206,0.36-0.413,0.72-0.619,1.079
							c2.046,0.645,2.079,0.773,0.1,0.382c-0.615-0.121-1.224-0.269-1.826-0.443c-1.065-0.308-2.108-0.694-3.104-1.183
							c-1.921-0.945-3.703-2.188-4.922-3.977c-0.57,0.57-1.14,1.14-1.71,1.71c2.532,1.804,5.241,3.184,8.12,4.343
							c0.222-0.804,0.443-1.607,0.665-2.411c-2.442-0.684-4.674-1.665-6.74-3.142c-0.321,0.762-0.642,1.523-0.963,2.285
							c2.828,0.817,5.656,1.633,8.483,2.45c0.222-0.804,0.443-1.607,0.665-2.411c-2.335-0.32-4.54-1.004-6.321-2.61
							c-0.184,0.696-0.368,1.393-0.552,2.089c2.373-0.363,5.688,0.26,7.19,2.32c0.471-0.612,0.941-1.224,1.412-1.836
							c-3.514-1.295-7.028-2.59-10.542-3.885c-0.111,0.818-0.222,1.637-0.332,2.455c3.607,0.444,9.715,0.796,11.607,4.509
							c0.36-0.627,0.72-1.254,1.079-1.881c-2.915-0.342-5.624-1.236-8.092-2.834C269.652,170.502,268.397,172.665,269.745,173.537
							L269.745,173.537z"/>
					</g>
				</g>
				<g>
					<g>
						<path class="st4" d="M264.654,176.281c1.534,1.071,3.106,2.526,3.342,4.491c0.527-0.402,1.055-0.804,1.582-1.205
							c-3.925-0.979-5.577-3.482-6.137-7.314c-0.762,0.321-1.523,0.642-2.285,0.963c1.735,2.254,3.47,4.507,5.206,6.761
							c0.471-0.612,0.941-1.224,1.412-1.836c-1.3-0.445-4.187-1.91-3.047-3.649c-0.57,0.149-1.14,0.299-1.71,0.448
							c1.588,0.798,3.163,1.835,3.476,3.706c0.762-0.321,1.523-0.642,2.285-0.963c-1.025-1.788-2.05-3.576-3.075-5.364
							c-0.57,0.57-1.14,1.14-1.71,1.71c1.701,1.078,3.17,2.356,4.138,4.142c0.654-0.505,1.309-1.01,1.963-1.515
							c-1.802-2.138-3.959-3.866-6.312-5.362c-0.321,0.762-0.642,1.523-0.963,2.285c2.413,0.785,4.795,1.96,6.558,3.831
							c0.54,0.574,1.555,1.648,1.593,2.507c0.03,0.673-0.322,0.408-1.181,0.225c-0.551-0.117-1.878-1.099-1.302,0.224
							c0-0.421,0-0.841,0-1.262c-0.04,0.085-0.08,0.171-0.12,0.256c-0.677,1.449,1.477,2.72,2.159,1.262
							c1.156-2.472-2.844-4.058-4.334-2.156c-2.215,2.829,3.137,4.458,5.06,4.278c3.263-0.306,2.353-3.775,1.069-5.657
							c-2.053-3.009-5.453-4.819-8.836-5.92c-1.387-0.452-2.125,1.546-0.963,2.285c2.184,1.389,4.136,2.99,5.806,4.971
							c0.943,1.119,2.616-0.31,1.963-1.515c-1.17-2.159-2.982-3.739-5.034-5.039c-1.079-0.683-2.315,0.655-1.71,1.71
							c1.025,1.788,2.05,3.576,3.075,5.364c0.747,1.302,2.507,0.37,2.285-0.963c-0.413-2.475-2.504-4.134-4.625-5.2
							c-0.627-0.315-1.32-0.146-1.71,0.448c-2.201,3.358,1.705,6.351,4.541,7.322c0.965,0.33,2.082-0.966,1.412-1.836
							c-1.735-2.254-3.47-4.507-5.206-6.761c-0.878-1.14-2.495-0.478-2.285,0.963c0.681,4.66,3.202,7.893,7.883,9.06
							c0.706,0.176,1.683-0.366,1.582-1.205c-0.354-2.946-2.217-5-4.581-6.65C264.594,173.199,263.343,175.365,264.654,176.281
							L264.654,176.281z"/>
					</g>
				</g>
			</g>
			<g>
				<g>
					<path class="st5" d="M257.555,166.614c-0.98,0.603-1.146,1.786-0.279,2.582c0.505-0.654,1.01-1.309,1.515-1.963
						c-1.637-1.111-3.273-2.222-4.91-3.333c-0.421,0.72-0.841,1.439-1.262,2.159c1.869,1.163,3.738,2.326,5.607,3.489
						c1.37,0.852,2.626-1.309,1.262-2.159c-1.869-1.163-3.738-2.326-5.607-3.489c-1.379-0.858-2.58,1.264-1.262,2.159
						c1.637,1.111,3.273,2.222,4.91,3.333c1.173,0.796,2.557-1.007,1.515-1.963c0.054,0.237,0.108,0.474,0.162,0.711
						c-0.191,0.249-0.383,0.498-0.574,0.747c0.062-0.038,0.124-0.076,0.185-0.114C260.185,167.932,258.93,165.768,257.555,166.614
						L257.555,166.614z"/>
				</g>
			</g>
			<g>
				<g>
					<path class="st5" d="M257.888,170.495c0.566,0.38,1.346,0.509,1.99,0.256c-0.321-0.762-0.642-1.523-0.963-2.285
						c-1.532,0.821-3.064,1.641-4.596,2.462c0.421,0.72,0.841,1.439,1.262,2.159c1.575-0.957,3.15-1.913,4.725-2.87
						c1.373-0.834,0.118-2.997-1.262-2.159c-1.575,0.957-3.15,1.913-4.725,2.87c-1.378,0.837-0.157,2.919,1.262,2.159
						c1.532-0.821,3.064-1.641,4.596-2.462c1.22-0.654,0.375-2.811-0.963-2.285c-0.063,0.065-0.084,0.064-0.063-0.004
						C257.81,167.438,256.557,169.602,257.888,170.495L257.888,170.495z"/>
				</g>
			</g>
			<g>
				<g>
					<path class="st5" d="M262.156,171.211c0.98-0.603,1.146-1.786,0.279-2.582c-0.505,0.654-1.01,1.309-1.515,1.963
						c1.637,1.111,3.273,2.222,4.91,3.333c0.421-0.72,0.841-1.439,1.262-2.159c-1.869-1.163-3.738-2.326-5.607-3.489
						c-1.37-0.852-2.626,1.31-1.262,2.159c1.869,1.163,3.738,2.326,5.607,3.489c1.379,0.858,2.58-1.264,1.262-2.159
						c-1.637-1.111-3.273-2.222-4.91-3.333c-1.173-0.796-2.557,1.007-1.515,1.963c-0.054-0.237-0.108-0.474-0.162-0.711
						c0.191-0.249,0.383-0.498,0.574-0.747c-0.062,0.038-0.124,0.076-0.185,0.114C259.526,169.893,260.781,172.057,262.156,171.211
						L262.156,171.211z"/>
				</g>
			</g>
			<g>
				<g>
					<path class="st5" d="M261.988,167.312c-0.566-0.38-1.346-0.509-1.99-0.256c0.321,0.762,0.642,1.523,0.963,2.285
						c1.532-0.821,3.064-1.641,4.596-2.462c-0.421-0.72-0.841-1.439-1.262-2.159c-1.575,0.957-3.15,1.913-4.725,2.87
						c-1.373,0.834-0.118,2.997,1.262,2.159c1.575-0.957,3.15-1.913,4.725-2.87c1.378-0.837,0.157-2.919-1.262-2.159
						c-1.532,0.821-3.064,1.641-4.596,2.462c-1.22,0.654-0.375,2.811,0.963,2.285c0.063-0.065,0.084-0.064,0.063,0.004
						C262.066,170.369,263.319,168.205,261.988,167.312L261.988,167.312z"/>
				</g>
			</g>
		</g>
		<g>
			<g>
				<path class="st2" d="M264.587,140.24c2.115,2.311,4.848,1.642,7.717,1.362c4.482-0.437,8.981-0.573,13.468-0.122
					c7.106,0.714,28.737,6.112,22.293,17.42c0.762,0.321,1.523,0.642,2.285,0.963c0.044-0.283,0.088-0.566,0.133-0.849
					c0.246-1.574-2.163-2.252-2.411-0.665c-0.044,0.283-0.088,0.566-0.133,0.849c-0.205,1.313,1.53,2.287,2.285,0.963
					c4.432-7.777-3.036-14.388-9.658-17.418c-4.374-2.001-9.111-3.14-13.879-3.674c-3.313-0.371-6.648-0.45-9.977-0.298
					c-2.502,0.115-8.457,1.774-10.355-0.3C265.266,137.282,263.502,139.054,264.587,140.24L264.587,140.24z"/>
			</g>
		</g>
		<g>
			<g>
				<path class="st2" d="M211.211,170.528c1.909,0.819-0.814,5.414-1.111,6.701c-0.438,1.9-0.543,3.944-0.202,5.866
					c0.66,3.723,2.829,6.935,5.606,9.429c6.67,5.99,16.282,7.822,24.953,6.6c1.426-0.201,1.033-2.44-0.332-2.455
					c-0.471-0.005-0.941-0.011-1.412-0.016c-1.609-0.018-1.61,2.482,0,2.5c0.471,0.005,0.941,0.011,1.412,0.016
					c-0.111-0.818-0.222-1.637-0.332-2.455c-9.219,1.3-21.571-1.553-26.232-10.544c-1.636-3.156-1.67-6.623-0.568-9.952
					c0.425-1.286,1.706-2.739,1.861-4.081c0.242-2.085-0.486-2.954-2.38-3.767C211.01,167.742,209.735,169.895,211.211,170.528
					L211.211,170.528z"/>
			</g>
		</g>
		<g>
			<g>
				<g>
					<path class="st6" d="M148.804,92.617c3.761-0.271,7.733,0.235,11.087,2.086c3.76,2.075,4.949,5.279,6.871,8.819
						c2.281,4.202,5.803,6.859,10.475,7.875c0.222-0.804,0.443-1.607,0.665-2.411c-8.083-1.445-10.132-7.322-15.212-12.662
						c-3.604-3.788-8.825-5.893-14.039-5.375c-1.349,0.134-1.761,2.034-0.332,2.455c4.691,1.384,8.287,3.467,10.244,8.072
						c0.842,1.981,1.571,3.791,3.028,5.431c1.833,2.062,4.257,3.673,6.574,5.121c2.27,1.419,9.102,3.926,9.374,6.922
						c0.776-0.21,1.553-0.421,2.329-0.631c-6.645-9.585-21.127-10.264-27.302-20.064c-0.722-1.146-2.778-0.428-2.285,0.963
						c2.964,8.353,10.85,13.398,18.689,16.635c0.111-0.818,0.222-1.637,0.332-2.455c-7.56-1.015-14.689-4.38-19.693-10.217
						c-0.511-0.596-1.612-0.426-1.963,0.253c-3.432,6.627,7.626,9.641,9.642,14.558c0.762-0.321,1.523-0.642,2.285-0.963
						c-2.21-3.387-5.246-5.568-8.88-7.258c-4.839-2.252-14.585-5.448-9.086-12.393c-0.696-0.405-1.393-0.811-2.089-1.216
						c-1.534,5.031,1.845,9.128,4.814,12.909c0.929,1.183,2.536-0.323,1.963-1.515c-1.482-3.083-2.246-5.903-2.272-9.334
						c-0.711,0.295-1.423,0.589-2.134,0.884c1.507,1.875,2.362,3.324,3.064,5.607c0.804-0.222,1.607-0.443,2.411-0.665
						c-0.873-2.112-1.283-4.049-1.137-6.334c-0.776,0.21-1.553,0.421-2.329,0.631c3.013,5.368,7.218,9.578,12.081,13.298
						c1.17,0.895,2.429-0.966,1.515-1.963c-3.111-3.39-6.147-6.753-8.261-10.871c-0.57,0.57-1.14,1.14-1.71,1.71
						c2.044,1.502,3.325,2.729,4.635,4.878c0.72-0.421,1.439-0.841,2.159-1.262c-1.422-2.188-2.482-4.364-3.162-6.903
						c-0.612,0.471-1.224,0.941-1.836,1.412c2.043,1.115,3.738,2.204,5.548,3.728c1.228,1.034,2.835-0.545,1.768-1.768
						c-1.03-1.034-1.836-2.21-2.419-3.531c-0.654,0.505-1.309,1.01-1.963,1.515c1.976,1.925,3.754,3.895,5.391,6.126
						c0.931,1.269,2.971,0.171,2.159-1.262c-1.866-3.293-4.586-10.432-9.631-8.718c-2.216,0.753-4.613,3.652-1.671,5.024
						c2.068,0.964,6.244-1.119,5.201-3.74c-1.451-3.646-7.41-0.834-9.06,1.004c-0.994,1.108,0.24,2.516,1.515,1.963
						c3.011-1.305,4.692-3.29,4.172-6.613c-0.112-0.716-0.936-0.971-1.538-0.873c-3.757,0.612-7.801,2.59-7.316,6.975
						c0.089,0.805,0.727,1.424,1.582,1.205c2.331-0.597,8.915-3.428,6.157-6.973c-2.639-3.392-7.848,0.765-8.659,3.619
						c-0.317,1.116,0.892,1.866,1.836,1.412c2.947-1.418,5.314-3.032,7.382-5.58c0.593-0.731,0.407-1.786-0.552-2.089
						c-4.94-1.563-12.025,3.435-13.132,8.35c-1.518,6.738,5.157,10.553,10.85,11.245c1.123,0.137,1.584-1.43,0.884-2.134
						c-0.908-0.819-1.683-1.752-2.326-2.8c-0.57,0.57-1.14,1.14-1.71,1.71c0.599,0.301,1.199,0.602,1.798,0.903
						c1.093,0.549,2.351-0.578,1.71-1.71c-0.291-0.687-0.582-1.374-0.873-2.061c-0.437-1.546-2.85-0.889-2.411,0.665
						c0.39,1.38,0.401,1.379,1.125,2.658c0.57-0.57,1.14-1.14,1.71-1.71c-0.599-0.301-1.199-0.602-1.798-0.903
						c-1.037-0.521-2.454,0.597-1.71,1.71c0.816,1.221,1.676,2.258,2.717,3.306c0.295-0.711,0.589-1.423,0.884-2.134
						c-2.004-0.244-4.328-0.727-5.831-2.164c-1.825-1.745-3.08-5.186-1.943-7.612c1.262-2.693,6.466-5.833,9.392-4.908
						c-0.184-0.696-0.368-1.393-0.552-2.089c-1.901,2.342-4.181,3.892-6.876,5.189c0.612,0.471,1.224,0.941,1.836,1.412
						c1.495-0.223,1.304-0.129-0.573,0.279c0.527,0.402,1.055,0.804,1.582,1.205c-0.382-3.458,3.183-4.19,5.48-4.564
						c-0.513-0.291-1.025-0.582-1.538-0.873c-0.255,2.081-1.263,3.344-3.023,3.789c0.505,0.654,1.01,1.309,1.515,1.963
						c4.537-5.056,9.226,2.38,11.234,5.925c0.72-0.421,1.439-0.841,2.159-1.262c-1.753-2.39-3.655-4.56-5.782-6.632
						c-1.037-1.01-2.611,0.264-1.963,1.515c0.797,1.539,1.68,2.742,2.81,4.037c0.589-0.589,1.179-1.179,1.768-1.768
						c-1.902-1.602-3.865-2.924-6.054-4.119c-0.951-0.519-2.124,0.339-1.836,1.412c0.739,2.759,1.85,5.094,3.414,7.5
						c0.872,1.341,3.003,0.122,2.159-1.262c-1.46-2.393-3.283-4.122-5.532-5.775c-1.086-0.798-2.227,0.703-1.71,1.71
						c2.209,4.304,5.402,7.836,8.652,11.377c0.505-0.654,1.01-1.309,1.515-1.963c-4.509-3.449-8.394-7.429-11.184-12.401
						c-0.638-1.137-2.253-0.553-2.329,0.631c-0.169,2.626,0.225,4.577,1.226,6.999c0.595,1.439,2.897,0.918,2.411-0.665
						c-0.79-2.568-2.029-4.624-3.707-6.711c-0.701-0.872-2.142-0.124-2.134,0.884c0.029,3.827,0.961,7.157,2.613,10.596
						c0.654-0.505,1.309-1.01,1.963-1.515c-2.308-2.939-5.422-6.373-4.171-10.477c0.344-1.129-1.294-2.22-2.089-1.216
						c-2.457,3.103-3.303,6.816-0.838,10.223c4.535,6.268,13.935,5.595,18.413,12.458c0.727,1.114,2.85,0.416,2.285-0.963
						c-1.329-3.241-11.417-9.692-9.894-12.632c-0.654,0.084-1.309,0.169-1.963,0.253c5.46,6.368,13.256,9.847,21.461,10.949
						c1.522,0.204,1.502-1.972,0.332-2.455c-6.952-2.871-14.304-7.453-16.942-14.889c-0.762,0.321-1.523,0.642-2.285,0.963
						c6.276,9.96,20.7,10.541,27.302,20.064c0.636,0.918,2.452,0.715,2.329-0.631c-0.208-2.283-1.519-3.539-3.355-4.841
						c-4.183-2.965-9.207-4.63-12.804-8.444c-2.638-2.797-2.976-6.759-5.588-9.552c-2.485-2.657-5.884-4.109-9.31-5.12
						c-0.111,0.818-0.222,1.637-0.332,2.455c8.177-0.812,12.183,4.72,16.619,10.486c3.075,3.996,6.976,6.57,11.967,7.462
						c1.561,0.279,2.253-2.065,0.665-2.411c-8.648-1.881-8.241-9.039-13.645-14.198c-4.017-3.835-10.077-5.059-15.452-4.672
						C147.209,90.232,147.196,92.733,148.804,92.617L148.804,92.617z"/>
				</g>
			</g>
			<g>
				<g>
					<path class="st6" d="M142.479,93.794c-1.757,4.653,1.912,8.527,5.826,10.549c5.609,2.898,19.31,2.858,21.917,9.491
						c0.574,1.461,2.898,0.906,2.411-0.665c-1.15-3.708-4.611-5.673-7.974-7.198c-3.275-1.485-21.029-5.531-18.507-11.214
						c-0.72,0-1.439,0-2.159,0c4.377,7.429,12.837,7.203,20.092,9.712c7.893,2.73,13.216,11.142,21.624,12.002
						c1.471,0.15,1.593-2.025,0.332-2.455c-11.478-3.914-18.284-14.959-29.947-18.638c-0.222,0.804-0.443,1.607-0.665,2.411
						c8.731,1.762,17.408,5.306,23.385,12.142c0.896,1.024,2.291-0.1,2.089-1.216c-1.364-7.548-9.549-11.799-15.972-14.408
						c0,0.804,0,1.607,0,2.411c7.609-1.092,13.524,5.803,20.612,7.392c1.569,0.352,2.203-1.925,0.665-2.411
						c-4.398-1.387-7.729-3.379-10.826-6.739c-1.973-2.142-3.792-4.031-6.508-5.25c-5.041-2.261-10.859-2.197-16.168-1.057
						c-1.367,0.294-1.079,2.536,0.332,2.455c6.467-0.369,12.445,1.721,18.409,3.969c0.222-0.804,0.443-1.607,0.665-2.411
						c-5.42-1.4-10.877-2.269-16.461-2.634c-1.507-0.098-1.555,1.982-0.332,2.455c3.188,1.234,6.391,2.117,9.756,2.725
						c1.559,0.282,2.251-2.036,0.665-2.411c-3.719-0.878-7.354-1.372-11.173-1.505c-1.425-0.05-1.676,2.077-0.332,2.455
						c6.879,1.94,13.41,4.613,19.54,8.301c0.421-0.72,0.841-1.439,1.262-2.159c-5.78-2.487-11.555-4.862-17.657-6.453
						c-1.386-0.361-2.16,1.529-0.963,2.285c2.695,1.701,5.44,2.866,8.493,3.776c1.55,0.462,2.187-1.915,0.665-2.411
						c-3.776-1.229-7.565-2.142-11.484-2.785c-1.092-0.179-2.277,1.197-1.216,2.089c1.904,1.602,3.868,2.923,6.057,4.117
						c0.321-0.762,0.642-1.523,0.963-2.285c-1.947-0.82-3.888-1.467-5.933-1.995c-1.323-0.342-2.282,1.653-0.963,2.285
						c3.326,1.592,6.69,2.974,10.169,4.196c0.222-0.804,0.443-1.607,0.665-2.411c-2.472-0.705-4.935-1.432-7.382-2.219
						c-1.215-0.391-2.426-0.793-3.633-1.208c-0.672-1.955,0.107-2.88,2.336-2.775c-0.321-0.762-0.642-1.523-0.963-2.285
						c-2.622,1.748-5.344,1.78-8.337,1.4c0.36,0.627,0.72,1.254,1.079,1.881c2.009-3.067,6.044-2.907,9.14-2.567
						c-0.295-0.711-0.589-1.423-0.884-2.134c-1.426,1.524-3.247,2.544-5.389,2.299c-3.615-0.414,3.421-0.949,3.391-0.948
						c-0.21-0.776-0.421-1.553-0.631-2.329c-2.22,1.355-4.534,2.289-7.025,3.008c-2.116,0.611,1.201-0.654,1.633-0.841
						c1.503-0.653,2.949-1.272,4.557-1.629c4.814-1.072,17.799-1.695,19.027,5.307c0.612-0.471,1.224-0.941,1.836-1.412
						c-1.658-0.767-3.298-1.414-5.039-1.983c-1.18-0.386-2.124,1.254-1.216,2.089c0.428,0.393,0.856,0.787,1.283,1.18
						c0.405-0.696,0.811-1.393,1.216-2.089c-1.268-0.387-2.461-0.66-3.771-0.866c-1.574-0.247-2.252,2.161-0.665,2.411
						c1.31,0.206,2.503,0.478,3.771,0.866c1.177,0.359,2.135-1.244,1.216-2.089c-0.428-0.393-0.856-0.787-1.283-1.18
						c-0.405,0.696-0.811,1.393-1.216,2.089c1.529,0.447,3.01,1.024,4.442,1.731c1.027,0.475,2.031-0.301,1.836-1.412
						c-1.921-10.95-26.621-10.194-31.154-1.742c-0.207,0.385-0.245,0.88,0,1.262c0.145,0.226,0.291,0.452,0.436,0.679
						c0.316,0.493,0.847,0.694,1.412,0.574c3.575-0.755,6.843-1.887,9.966-3.794c1.033-0.631,0.637-2.355-0.631-2.329
						c-2.055,0.042-9.945,1.092-7.696,4.974c2.168,3.744,9.576-0.041,11.462-2.057c0.794-0.848,0.171-2.018-0.884-2.134
						c-4.169-0.457-8.827,0.033-11.299,3.805c-0.577,0.88,0.215,1.771,1.079,1.881c3.452,0.438,6.655,0.221,9.598-1.741
						c1.164-0.776,0.452-2.629-0.963-2.285c-1.904,0.463-5.941,1.913-5.22,4.709c0.562,2.176,3.852,2.141,5.451,1.427
						c1.443-0.644,2.768-2.008,1.849-3.565c-1.394-2.362-5.876-0.195-7.024,1.271c-0.383,0.489-0.447,0.95-0.195,1.515
						c0.622,1.397,1.435,1.664,2.802,2.239c3.499,1.472,7.37,2.387,11.016,3.427c1.564,0.446,2.167-1.883,0.665-2.411
						c-3.267-1.148-6.45-2.449-9.572-3.944c-0.321,0.762-0.642,1.523-0.963,2.285c2.045,0.528,3.986,1.175,5.933,1.995
						c1.313,0.553,2.187-1.617,0.963-2.285c-2.043-1.115-3.741-2.203-5.551-3.726c-0.405,0.696-0.811,1.393-1.216,2.089
						c3.919,0.643,7.708,1.556,11.484,2.785c0.222-0.804,0.443-1.607,0.665-2.411c-2.815-0.839-5.413-1.957-7.896-3.524
						c-0.321,0.762-0.642,1.523-0.963,2.285c5.892,1.537,11.475,3.798,17.059,6.201c1.438,0.619,2.681-1.305,1.262-2.159
						c-6.318-3.801-13.047-6.554-20.137-8.553c-0.111,0.818-0.222,1.637-0.332,2.455c3.57,0.124,7.034,0.596,10.508,1.416
						c0.222-0.804,0.443-1.607,0.665-2.411c-3.363-0.607-6.567-1.491-9.756-2.725c-0.111,0.818-0.222,1.637-0.332,2.455
						c5.368,0.351,10.592,1.201,15.796,2.545c1.584,0.409,2.147-1.852,0.665-2.411c-6.181-2.329-12.388-4.44-19.074-4.058
						c0.111,0.818,0.222,1.637,0.332,2.455c7.325-1.573,14.563-0.605,19.765,5.12c3.549,3.907,7.343,6.329,12.407,7.926
						c0.222-0.804,0.443-1.607,0.665-2.411c-7.758-1.74-13.493-8.605-21.941-7.392c-1.376,0.197-0.978,2.013,0,2.411
						c5.645,2.293,13.03,6.042,14.226,12.662c0.696-0.405,1.393-0.811,2.089-1.216c-6.229-7.125-15.381-10.948-24.488-12.785
						c-1.569-0.317-2.211,1.923-0.665,2.411c11.593,3.657,18.431,14.711,29.947,18.638c0.111-0.818,0.222-1.637,0.332-2.455
						c-6.913-0.707-12.677-8.518-19.11-11.199c-6.845-2.853-16.195-2.06-20.447-9.276c-0.436-0.74-1.765-0.888-2.159,0
						c-5.136,11.573,23.781,12.441,26.229,20.338c0.804-0.222,1.607-0.443,2.411-0.665c-1.613-4.104-6.121-5.828-10.065-7.044
						c-4.955-1.528-20.762-3.497-17.677-11.668C145.459,92.952,143.043,92.301,142.479,93.794L142.479,93.794z"/>
				</g>
			</g>
		</g>
		<g>
			<g>
				<g>
					<path class="st6" d="M365.719,242.11c-3.761,0.271-7.733-0.235-11.086-2.086c-3.76-2.075-4.949-5.279-6.871-8.819
						c-2.281-4.202-5.803-6.859-10.475-7.875c-0.222,0.804-0.443,1.607-0.665,2.411c8.083,1.445,10.132,7.322,15.212,12.662
						c3.604,3.788,8.825,5.893,14.039,5.375c1.349-0.134,1.761-2.034,0.332-2.455c-4.691-1.384-8.287-3.467-10.244-8.072
						c-0.842-1.981-1.571-3.791-3.028-5.431c-1.833-2.062-4.257-3.673-6.574-5.121c-2.27-1.419-9.102-3.926-9.374-6.922
						c-0.776,0.21-1.553,0.421-2.329,0.631c6.645,9.585,21.127,10.264,27.302,20.064c0.722,1.146,2.778,0.428,2.285-0.963
						c-2.964-8.353-10.85-13.398-18.689-16.635c-0.111,0.818-0.222,1.637-0.332,2.455c7.56,1.015,14.689,4.38,19.693,10.217
						c0.511,0.596,1.612,0.426,1.963-0.253c3.432-6.627-7.626-9.641-9.642-14.558c-0.762,0.321-1.523,0.642-2.285,0.963
						c2.21,3.387,5.246,5.568,8.88,7.258c4.839,2.252,14.585,5.448,9.086,12.393c0.696,0.405,1.393,0.811,2.089,1.216
						c1.534-5.031-1.845-9.128-4.814-12.909c-0.929-1.183-2.536,0.323-1.963,1.515c1.482,3.083,2.246,5.903,2.272,9.334
						c0.711-0.295,1.423-0.589,2.134-0.884c-1.507-1.875-2.362-3.324-3.064-5.607c-0.804,0.222-1.607,0.443-2.411,0.665
						c0.873,2.112,1.283,4.049,1.137,6.334c0.776-0.21,1.553-0.421,2.329-0.631c-3.013-5.368-7.218-9.578-12.081-13.298
						c-1.17-0.895-2.429,0.966-1.515,1.963c3.111,3.39,6.147,6.753,8.261,10.871c0.57-0.57,1.14-1.14,1.71-1.71
						c-2.044-1.502-3.325-2.729-4.635-4.878c-0.72,0.421-1.439,0.841-2.159,1.262c1.422,2.188,2.482,4.364,3.162,6.903
						c0.612-0.471,1.224-0.941,1.836-1.412c-2.043-1.115-3.738-2.204-5.548-3.728c-1.228-1.034-2.835,0.545-1.768,1.768
						c1.03,1.034,1.836,2.21,2.419,3.531c0.654-0.505,1.309-1.01,1.963-1.515c-1.976-1.925-3.754-3.895-5.391-6.126
						c-0.931-1.269-2.971-0.171-2.159,1.262c1.866,3.293,4.586,10.432,9.631,8.718c2.216-0.753,4.613-3.652,1.671-5.024
						c-2.068-0.964-6.244,1.119-5.201,3.74c1.451,3.646,7.41,0.834,9.06-1.004c0.994-1.108-0.24-2.516-1.515-1.963
						c-3.011,1.305-4.692,3.29-4.172,6.613c0.112,0.716,0.936,0.971,1.538,0.873c3.757-0.612,7.801-2.59,7.316-6.975
						c-0.089-0.805-0.727-1.424-1.582-1.205c-2.331,0.597-8.915,3.428-6.157,6.973c2.639,3.392,7.848-0.765,8.659-3.619
						c0.317-1.116-0.892-1.866-1.836-1.412c-2.947,1.418-5.314,3.032-7.382,5.58c-0.593,0.731-0.407,1.786,0.552,2.089
						c4.94,1.563,12.025-3.435,13.132-8.35c1.518-6.738-5.157-10.553-10.85-11.245c-1.123-0.137-1.584,1.43-0.884,2.134
						c0.908,0.819,1.683,1.752,2.326,2.8c0.57-0.57,1.14-1.14,1.71-1.71c-0.599-0.301-1.199-0.602-1.798-0.903
						c-1.093-0.549-2.351,0.578-1.71,1.71c0.291,0.687,0.582,1.374,0.873,2.061c0.437,1.546,2.85,0.889,2.411-0.665
						c-0.39-1.38-0.401-1.379-1.125-2.658c-0.57,0.57-1.14,1.14-1.71,1.71c0.599,0.301,1.199,0.602,1.798,0.903
						c1.037,0.521,2.454-0.597,1.71-1.71c-0.816-1.221-1.676-2.258-2.717-3.306c-0.295,0.711-0.589,1.423-0.884,2.134
						c2.004,0.244,4.328,0.727,5.831,2.164c1.825,1.745,3.08,5.186,1.943,7.612c-1.262,2.693-6.466,5.833-9.392,4.908
						c0.184,0.696,0.368,1.393,0.552,2.089c1.901-2.342,4.181-3.892,6.876-5.189c-0.612-0.471-1.224-0.941-1.836-1.412
						c-1.495,0.223-1.304,0.129,0.573-0.279c-0.527-0.402-1.055-0.804-1.582-1.205c0.382,3.458-3.183,4.19-5.48,4.564
						c0.513,0.291,1.025,0.582,1.538,0.873c0.255-2.081,1.263-3.344,3.023-3.789c-0.505-0.654-1.01-1.309-1.515-1.963
						c-4.537,5.056-9.226-2.38-11.234-5.925c-0.72,0.421-1.439,0.841-2.159,1.262c1.753,2.39,3.655,4.56,5.782,6.632
						c1.037,1.01,2.611-0.264,1.963-1.515c-0.797-1.539-1.68-2.742-2.81-4.037c-0.589,0.589-1.178,1.179-1.768,1.768
						c1.902,1.602,3.865,2.924,6.054,4.119c0.951,0.519,2.124-0.339,1.836-1.412c-0.739-2.759-1.85-5.094-3.414-7.5
						c-0.872-1.341-3.003-0.122-2.159,1.262c1.46,2.393,3.283,4.122,5.532,5.775c1.086,0.798,2.227-0.703,1.71-1.71
						c-2.209-4.304-5.402-7.836-8.652-11.377c-0.505,0.654-1.01,1.309-1.515,1.963c4.509,3.449,8.394,7.429,11.184,12.401
						c0.638,1.137,2.253,0.553,2.329-0.631c0.169-2.626-0.225-4.577-1.226-6.999c-0.595-1.439-2.897-0.918-2.411,0.665
						c0.79,2.568,2.029,4.624,3.707,6.711c0.701,0.872,2.142,0.124,2.134-0.884c-0.029-3.827-0.961-7.157-2.613-10.596
						c-0.654,0.505-1.309,1.01-1.963,1.515c2.308,2.939,5.422,6.373,4.171,10.477c-0.344,1.129,1.294,2.22,2.089,1.216
						c2.457-3.103,3.303-6.816,0.838-10.223c-4.535-6.268-13.935-5.595-18.413-12.458c-0.727-1.114-2.85-0.416-2.285,0.963
						c1.329,3.241,11.417,9.692,9.894,12.632c0.654-0.084,1.309-0.169,1.963-0.253c-5.46-6.368-13.256-9.847-21.461-10.949
						c-1.522-0.204-1.502,1.972-0.332,2.455c6.952,2.871,14.304,7.453,16.942,14.889c0.762-0.321,1.523-0.642,2.285-0.963
						c-6.276-9.96-20.7-10.541-27.302-20.064c-0.636-0.918-2.452-0.714-2.329,0.631c0.208,2.283,1.519,3.539,3.355,4.841
						c4.183,2.965,9.207,4.63,12.804,8.444c2.638,2.797,2.976,6.759,5.588,9.552c2.485,2.657,5.884,4.109,9.31,5.12
						c0.111-0.818,0.222-1.637,0.332-2.455c-8.177,0.812-12.183-4.72-16.62-10.486c-3.075-3.996-6.976-6.57-11.967-7.462
						c-1.561-0.279-2.253,2.065-0.665,2.411c8.648,1.882,8.241,9.039,13.645,14.198c4.017,3.835,10.077,5.059,15.452,4.672
						C367.314,244.495,367.327,241.994,365.719,242.11L365.719,242.11z"/>
				</g>
			</g>
			<g>
				<g>
					<path class="st6" d="M372.044,240.934c1.757-4.653-1.912-8.527-5.826-10.549c-5.609-2.898-19.31-2.858-21.917-9.491
						c-0.574-1.461-2.898-0.906-2.411,0.665c1.15,3.708,4.611,5.673,7.974,7.198c3.275,1.485,21.029,5.531,18.507,11.214
						c0.72,0,1.439,0,2.159,0c-4.377-7.429-12.837-7.203-20.092-9.712c-7.893-2.73-13.216-11.142-21.624-12.002
						c-1.471-0.15-1.593,2.025-0.332,2.455c11.477,3.914,18.284,14.959,29.947,18.638c0.222-0.804,0.443-1.607,0.665-2.411
						c-8.731-1.762-17.408-5.306-23.385-12.142c-0.896-1.024-2.291,0.1-2.089,1.216c1.364,7.548,9.549,11.799,15.972,14.408
						c0-0.804,0-1.607,0-2.411c-7.609,1.092-13.524-5.803-20.612-7.392c-1.569-0.352-2.203,1.926-0.665,2.411
						c4.398,1.387,7.729,3.379,10.826,6.739c1.973,2.142,3.792,4.031,6.508,5.25c5.041,2.261,10.859,2.197,16.168,1.057
						c1.367-0.294,1.079-2.536-0.332-2.455c-6.467,0.369-12.445-1.721-18.409-3.969c-0.222,0.804-0.443,1.607-0.665,2.411
						c5.42,1.4,10.877,2.269,16.461,2.634c1.508,0.099,1.555-1.982,0.332-2.455c-3.188-1.234-6.391-2.117-9.756-2.725
						c-1.559-0.282-2.251,2.036-0.665,2.411c3.719,0.878,7.354,1.372,11.173,1.505c1.425,0.05,1.676-2.077,0.332-2.455
						c-6.879-1.94-13.41-4.613-19.54-8.301c-0.421,0.72-0.841,1.439-1.262,2.159c5.78,2.487,11.555,4.862,17.657,6.453
						c1.386,0.361,2.16-1.529,0.963-2.285c-2.695-1.701-5.44-2.866-8.493-3.776c-1.55-0.462-2.187,1.915-0.665,2.411
						c3.776,1.229,7.565,2.142,11.484,2.785c1.092,0.179,2.277-1.197,1.216-2.089c-1.904-1.602-3.868-2.923-6.057-4.117
						c-0.321,0.762-0.642,1.523-0.963,2.285c1.947,0.82,3.888,1.467,5.933,1.995c1.323,0.342,2.282-1.653,0.963-2.285
						c-3.326-1.592-6.69-2.974-10.169-4.196c-0.222,0.804-0.443,1.607-0.665,2.411c2.472,0.705,4.935,1.432,7.382,2.219
						c1.215,0.391,2.426,0.793,3.633,1.208c0.672,1.955-0.107,2.88-2.336,2.775c0.321,0.762,0.642,1.523,0.963,2.285
						c2.622-1.748,5.344-1.78,8.337-1.4c-0.36-0.627-0.72-1.254-1.079-1.881c-2.009,3.067-6.044,2.907-9.14,2.567
						c0.295,0.711,0.589,1.423,0.884,2.134c1.426-1.524,3.247-2.544,5.389-2.299c3.615,0.414-3.421,0.949-3.391,0.948
						c0.21,0.776,0.421,1.553,0.631,2.329c2.22-1.355,4.534-2.289,7.025-3.008c2.116-0.611-1.201,0.654-1.633,0.841
						c-1.503,0.653-2.949,1.272-4.557,1.63c-4.814,1.072-17.799,1.695-19.027-5.307c-0.612,0.471-1.224,0.941-1.836,1.412
						c1.658,0.767,3.298,1.414,5.039,1.983c1.18,0.386,2.124-1.254,1.216-2.089c-0.428-0.393-0.856-0.787-1.283-1.18
						c-0.405,0.696-0.811,1.393-1.216,2.089c1.268,0.387,2.461,0.66,3.771,0.866c1.574,0.247,2.252-2.161,0.665-2.411
						c-1.31-0.206-2.503-0.478-3.771-0.866c-1.177-0.359-2.135,1.244-1.216,2.089c0.428,0.393,0.856,0.787,1.283,1.18
						c0.405-0.696,0.811-1.393,1.216-2.089c-1.529-0.447-3.01-1.024-4.442-1.731c-1.027-0.475-2.031,0.301-1.836,1.412
						c1.921,10.95,26.621,10.194,31.154,1.742c0.207-0.385,0.245-0.88,0-1.262c-0.145-0.226-0.291-0.452-0.436-0.679
						c-0.316-0.493-0.847-0.694-1.412-0.574c-3.575,0.755-6.843,1.887-9.966,3.794c-1.033,0.631-0.637,2.355,0.631,2.329
						c2.055-0.042,9.945-1.092,7.696-4.974c-2.168-3.744-9.576,0.041-11.462,2.057c-0.794,0.848-0.171,2.018,0.884,2.134
						c4.169,0.457,8.827-0.033,11.299-3.805c0.577-0.88-0.215-1.771-1.079-1.881c-3.452-0.438-6.655-0.221-9.598,1.741
						c-1.164,0.776-0.452,2.629,0.963,2.285c1.904-0.463,5.941-1.913,5.22-4.709c-0.562-2.176-3.852-2.141-5.451-1.427
						c-1.443,0.644-2.768,2.008-1.849,3.565c1.394,2.362,5.876,0.195,7.024-1.271c0.383-0.489,0.447-0.95,0.195-1.515
						c-0.622-1.397-1.435-1.664-2.802-2.239c-3.499-1.472-7.37-2.387-11.016-3.427c-1.564-0.446-2.167,1.883-0.665,2.411
						c3.267,1.148,6.449,2.449,9.572,3.944c0.321-0.762,0.642-1.523,0.963-2.285c-2.045-0.528-3.986-1.175-5.933-1.995
						c-1.313-0.553-2.187,1.617-0.963,2.285c2.043,1.115,3.741,2.203,5.551,3.726c0.405-0.696,0.811-1.393,1.216-2.089
						c-3.919-0.643-7.708-1.556-11.484-2.785c-0.222,0.804-0.443,1.607-0.665,2.411c2.815,0.839,5.413,1.957,7.896,3.524
						c0.321-0.762,0.642-1.523,0.963-2.285c-5.892-1.537-11.475-3.798-17.059-6.201c-1.438-0.619-2.681,1.305-1.262,2.159
						c6.318,3.801,13.047,6.554,20.137,8.553c0.111-0.818,0.222-1.637,0.332-2.455c-3.57-0.124-7.034-0.596-10.508-1.416
						c-0.222,0.804-0.443,1.607-0.665,2.411c3.363,0.607,6.567,1.491,9.756,2.725c0.111-0.818,0.222-1.637,0.332-2.455
						c-5.368-0.351-10.592-1.201-15.796-2.545c-1.584-0.409-2.147,1.852-0.665,2.411c6.181,2.329,12.388,4.44,19.074,4.058
						c-0.111-0.818-0.222-1.637-0.332-2.455c-7.325,1.573-14.563,0.605-19.765-5.12c-3.549-3.907-7.343-6.329-12.407-7.926
						c-0.222,0.804-0.443,1.607-0.665,2.411c7.758,1.74,13.493,8.605,21.941,7.392c1.376-0.197,0.978-2.013,0-2.411
						c-5.645-2.293-13.03-6.042-14.226-12.662c-0.696,0.405-1.393,0.811-2.089,1.216c6.229,7.125,15.381,10.948,24.488,12.785
						c1.569,0.317,2.211-1.923,0.665-2.411c-11.593-3.657-18.431-14.711-29.947-18.638c-0.111,0.818-0.222,1.637-0.332,2.455
						c6.913,0.707,12.677,8.518,19.11,11.199c6.845,2.853,16.195,2.06,20.447,9.276c0.436,0.74,1.765,0.888,2.159,0
						c5.136-11.573-23.781-12.441-26.229-20.338c-0.804,0.222-1.607,0.443-2.411,0.665c1.613,4.104,6.121,5.828,10.065,7.044
						c4.955,1.528,20.762,3.497,17.677,11.668C369.064,241.776,371.48,242.427,372.044,240.934L372.044,240.934z"/>
				</g>
			</g>
		</g>
	</g>
	<g>
		<g>
			<path class="st7" d="M538.474,211.326c-6.564-0.506-13.05-0.354-19.583,0.46c-0.433,0.054-0.674,0.354-0.603,0.791
				c0.427,2.631,5.459,1.44,7.035,1.386c6.494-0.22,12.984-1.452,19.449-1.544c-0.055-0.409-0.111-0.818-0.166-1.228
				c-2.632,0.642-5.027,0.756-7.733,0.319c-0.787-0.127-1.126,1.077-0.332,1.205c2.945,0.475,5.493,0.389,8.397-0.319
				c0.685-0.167,0.539-1.238-0.166-1.228c-6.804,0.097-13.596,1.401-20.435,1.577c-0.55,0.014-5.232,0.46-2.521-0.052
				c1.585-0.3,3.279-0.294,4.893-0.366c3.931-0.176,7.845-0.054,11.766,0.249C539.276,212.638,539.272,211.388,538.474,211.326
				L538.474,211.326z"/>
		</g>
	</g>
	<g>
		<g>
			<path class="st7" d="M538.294,212.651c-4.715,1.858-10.001,1.226-14.539,3.635c-0.63,0.334-0.196,1.332,0.482,1.142
				c2.452-0.685,4.904-1.37,7.357-2.055c0.774-0.216,0.445-1.422-0.332-1.205c-2.452,0.685-4.904,1.37-7.357,2.055
				c0.161,0.381,0.321,0.762,0.482,1.142c4.423-2.347,9.633-1.693,14.241-3.509C539.366,213.565,539.044,212.356,538.294,212.651
				L538.294,212.651z"/>
		</g>
	</g>
	<g>
		<g>
			<path class="st7" d="M193.976,43.836c1.392,1.454,2.737,3.055,3.276,5.041c0.252,0.929,0.316,1.82,0.152,2.76
				c-0.154,0.878-0.787,1.55-0.988,2.332c-0.305,1.187,0.245,1.861,1.62,1.616c3.39-0.605,4.377-8.475,0.517-8.33
				c-0.306,0.011-0.668,0.279-0.625,0.625c0.172,1.373,0.343,2.746,0.515,4.118c0.098,0.788,1.35,0.798,1.25,0
				c-0.172-1.373-0.343-2.746-0.515-4.118c-0.208,0.208-0.417,0.417-0.625,0.625c0.837,0.614,1.201,1.39,1.093,2.326
				c0.216,1.099-0.148,1.952-1.091,2.557c-1.997,2.229-0.609,0.634-0.288-0.136c0.464-1.112,0.574-2.36,0.426-3.548
				c-0.334-2.682-2.021-4.861-3.833-6.753C194.302,42.37,193.419,43.254,193.976,43.836L193.976,43.836z"/>
		</g>
	</g>
	<g>
		<g>
			<path class="st7" d="M201.731,48.163c-0.496,2.075-0.78,4.504,0.648,6.292c1.05,1.315,2.652,1.909,4.265,1.403
				c0.368-0.115,0.601-0.567,0.374-0.918c-0.684-1.056-1.38-2.105-2.053-3.168c-0.459-0.724-0.712-1.829-0.117-2.627
				c0.296-0.397,1.326-0.649,1.768-0.825c1.487-0.592,2.816-1.088,3.8-2.409c0.481-0.645-0.604-1.269-1.079-0.631
				c-1.485,1.994-4.96,1.586-6.147,3.824c-1.091,2.057,1.743,4.915,2.749,6.467c0.125-0.306,0.249-0.612,0.374-0.918
				c-3.793,1.19-3.924-3.862-3.375-6.157C203.123,47.713,201.918,47.38,201.731,48.163L201.731,48.163z"/>
		</g>
	</g>
	<g>
		<g>
			<path class="st7" d="M203.589,49.355c0.273-0.116,0.547-0.231,0.82-0.347c0.491-0.208,0.351-1.045-0.149-1.142
				c-2.345-0.455-4.616-1.136-6.814-2.076c-0.386-0.165-0.989,0.013-0.94,0.54c0.148,1.609,1.213,2.544,2.535,3.348
				c2.142,1.302,3.933,2.527,5.273,4.719c0.419,0.685,1.5,0.058,1.079-0.631c-0.894-1.463-2.007-2.733-3.397-3.746
				c-1.348-0.982-4.064-1.771-4.241-3.69c-0.313,0.18-0.627,0.36-0.94,0.54c2.301,0.984,4.654,1.724,7.113,2.202
				c-0.05-0.381-0.1-0.762-0.149-1.142c-0.273,0.116-0.547,0.231-0.82,0.347C202.219,48.588,202.856,49.665,203.589,49.355
				L203.589,49.355z"/>
		</g>
	</g>
	<g>
		<g>
			<path class="st7" d="M16.347,112.715c2.972-2.889,6.767-4.184,10.883-3.779c-0.105-0.388-0.21-0.776-0.315-1.165
				c-2.238,1.557-4.677,2.507-7.415,2.637c-1.969,0.094-3.785-0.102-5.684,0.563c-0.561,0.197-0.625,1.035,0,1.205
				c4.382,1.192,9.687-0.294,13.46,2.7c0.042-0.327,0.084-0.654,0.126-0.982c-3.618,1.878-8.714,0.129-12.285-1.2
				c0.125,0.306,0.249,0.612,0.374,0.918c0.794-1.348,4.176-0.035,5.335,0.115c1.619,0.21,3.228,0.231,4.857,0.152
				c0.801-0.039,0.805-1.289,0-1.25c-2.851,0.14-5.414-0.456-8.202-0.797c-1.292-0.158-2.376-0.027-3.07,1.15
				c-0.22,0.373,0.002,0.78,0.374,0.918c3.94,1.467,9.255,3.147,13.248,1.074c0.329-0.171,0.437-0.735,0.126-0.982
				c-4.091-3.246-9.294-1.738-14.012-3.021c0,0.402,0,0.804,0,1.205c2.388-0.836,4.898-0.296,7.356-0.731
				c2.218-0.393,4.202-1.315,6.042-2.594c0.526-0.366,0.308-1.103-0.315-1.165c-4.432-0.436-8.579,1.046-11.767,4.145
				C14.885,112.393,15.769,113.277,16.347,112.715L16.347,112.715z"/>
		</g>
	</g>
	<path class="st8" d="M197.13,46.33c-21.486,25.317-61.336,40.613-98.369,48.865c-39.247,4.629-62.721,6.403-84.476,18.233"/>
	<path class="st8" d="M542.5,213.254c-25.908,3.039-50.179,6.251-70.328,16.531c-33.401,16.641-74.09,28.416-119.037,37.349"/>
	<path class="st8" d="M22.631,115.186c54.217,19.129,102.369,46.503,163.244,95.579c48.189,32.314,99.197,55.508,156.945,56.886"/>
	<path class="st8" d="M204.093,48.469l4.439,0c38.956,43.471,82.755,82.162,134.288,113.221
		c59.399,28.924,120.876,49.171,187.019,49.933"/>
</g>
</svg>
