<?xml version="1.0" encoding="utf-8"?>
<!-- Generator: Adobe Illustrator 21.0.2, SVG Export Plug-In . SVG Version: 6.00 Build 0)  -->
<svg version="1.1" id="Layer_1" xmlns="http://www.w3.org/2000/svg" xmlns:xlink="http://www.w3.org/1999/xlink" x="0px" y="0px"
	 viewBox="0 0 510.969 290.055" style="enable-background:new 0 0 510.969 290.055;" xml:space="preserve">
<style type="text/css">
	.st0{fill:#A87A59;}
	.st1{fill:#C79B76;}
	.st2{fill:#6A2A3D;}
	.st3{fill:#3D182E;}
	.st4{fill:#D6BC90;}
	.st5{fill:url(#SVGID_1_);}
	.st6{fill:#E1C498;}
	.st7{fill:url(#SVGID_2_);}
	.st8{fill:url(#SVGID_3_);}
	.st9{fill:#C7AB86;}
	.st10{fill:#EED4B2;}
	.st11{fill:#614632;}
	.st12{fill:#F9DBAA;}
	.st13{fill:#42352A;}
</style>
<g>
	<path class="st0" d="M195.345,209.086l12.049,43.633c-5.454,0-25.381-3.636-25.381-3.636
		c-53.935-12.12-55.147-70.298-55.147-70.298v-67.874l58.744,1.655L195.345,209.086z"/>
	<path class="st1" d="M194.316,209.28l3.31,22.229c9.696,57.571,100.742,44.845,100.742,44.845v-24.241L225.04,204.31
		L194.316,209.28z"/>
	<path class="st2" d="M169.892,112.124h-77.57c0,0-67.268-6.06-84.236-55.147c0,0-9.09-14.544-6.06-56.359
		c0,0,33.937,66.662,93.326,68.48s143.02,0,143.02,0h131.505c0,0,55.147,8.484,98.781-65.45c0,0,19.999,104.841-85.448,108.477
		S169.892,112.124,169.892,112.124z"/>
	<path class="st3" d="M169.799,69.097l-7.828,10.374c-0.999,1.324-0.8,3.195,0.455,4.279l11.102,9.588l-10.041,5.934
		c-1.705,1.008-2.067,3.321-0.751,4.802l7.157,8.051l158.777,1.292l10.021-9.131c1.423-1.297,1.359-3.556-0.135-4.77l-10.422-5.572
		l11.03-6.999c1.243-1.165,1.333-3.107,0.205-4.382l-11.912-13.466H169.799z"/>
	<path class="st4" d="M490.957,286.166c0,0-44.378-3.101-73.286-27.874c-28.89-24.773-28.89-24.773-28.89-24.773l-66.514-9.785
		c-5.971,19.997-24.524,34.558-46.463,34.558c-26.805,0-48.513-21.708-48.513-48.513h-23.205c-15.345,0-28.267-10.925-31.368-25.379
		c-0.463-2.157-0.713-4.402-0.713-6.701v-65.551l21.957,0.125l45.02-40.386l56.89,58.119l56.783,39.53
		c0,0-7.735,13.652,40.243,48.513C450.482,259.895,490.957,286.166,490.957,286.166z"/>
	<linearGradient id="SVGID_1_" gradientUnits="userSpaceOnUse" x1="428.0851" y1="199.3217" x2="492.0195" y2="275.3068">
		<stop  offset="0" style="stop-color:#423B6B"/>
		<stop  offset="0.1832" style="stop-color:#443B6B"/>
		<stop  offset="0.3232" style="stop-color:#4C3D6B"/>
		<stop  offset="0.4489" style="stop-color:#59416B"/>
		<stop  offset="0.5663" style="stop-color:#6C466B"/>
		<stop  offset="0.6779" style="stop-color:#854D6B"/>
		<stop  offset="0.7851" style="stop-color:#A1576A"/>
		<stop  offset="0.8888" style="stop-color:#C36368"/>
		<stop  offset="0.9873" style="stop-color:#E97364"/>
		<stop  offset="1" style="stop-color:#EE7563"/>
	</linearGradient>
	<path class="st5" d="M496.283,284.773c-1.622,0.891-3.422,1.372-5.24,1.39c-0.267,0-0.535,0-0.802-0.018
		c-0.125,0-1.074-0.932-1.199-0.95c-7.281-4.069-4.668-4.497-20.301-13.662c-9.726-5.702-18.258-11.638-24.964-16.453
		c-0.502-0.36-0.659-1.016-0.962-1.497c-0.125-0.196-0.25-0.392-0.356-0.57v-0.018c-15.951-26.716,38.425-18.963,59.456-2.139
		c1.64,1.319,3.083,2.691,4.26,4.099C519.096,270.337,502.485,281.387,496.283,284.773z"/>
	<radialGradient id="SVGID_2_" cx="289.2139" cy="188.2378" r="38.785" gradientUnits="userSpaceOnUse">
		<stop  offset="0" style="stop-color:#423B6B"/>
		<stop  offset="0.1832" style="stop-color:#443B6B"/>
		<stop  offset="0.3232" style="stop-color:#4C3D6B"/>
		<stop  offset="0.4489" style="stop-color:#59416B"/>
		<stop  offset="0.5663" style="stop-color:#6C466B"/>
		<stop  offset="0.6779" style="stop-color:#854D6B"/>
		<stop  offset="0.7851" style="stop-color:#A1576A"/>
		<stop  offset="0.8888" style="stop-color:#C36368"/>
		<stop  offset="0.9873" style="stop-color:#E97364"/>
		<stop  offset="1" style="stop-color:#EE7563"/>
	</radialGradient>
	<circle class="st7" cx="276.551" cy="204.31" r="38.785"/>
	<linearGradient id="SVGID_3_" gradientUnits="userSpaceOnUse" x1="217.3066" y1="170.6303" x2="228.0772" y2="183.1743">
		<stop  offset="0" style="stop-color:#FBD9B2"/>
		<stop  offset="0.3" style="stop-color:#F6B693"/>
		<stop  offset="0.6086" style="stop-color:#F29479"/>
		<stop  offset="0.8527" style="stop-color:#EF7E69"/>
		<stop  offset="1" style="stop-color:#EE7563"/>
	</linearGradient>
	<path class="st8" d="M225.704,171.745c-14.116,14.632-34.95,18.91-52.986,12.654c-0.463-2.157-0.713-4.402-0.713-6.701v-3.19
		c18.161,6.559,39.263,2.335,53.521-12.44c8.501-8.804,13.171-19.89,14.044-31.207C241.228,145.35,236.63,160.446,225.704,171.745z"
		/>
	<g>
		<polygon class="st9" points="296.585,290.155 298.368,240.93 330.117,198.868 373.245,214.865 409.276,250.289 410.183,290.155 		
			"/>
		<g>
			<path class="st10" d="M309.362,290.155c0,0,1.316-11.895-5.067-13.816c-7.721-2.324-7.71,6.908-7.71,6.908v6.908H309.362z"/>
			<path class="st11" d="M309.362,290.155c0.209-2.916,0.049-5.889-0.767-8.692c-0.418-1.39-1.095-2.735-2.143-3.736
				c-1.04-1.024-2.492-1.469-3.919-1.612c-1.433-0.157-2.923,0.315-3.893,1.383c-0.966,1.065-1.464,2.488-1.741,3.9
				c-0.299,1.425-0.18,2.896-0.212,4.362l-0.015,4.396l-0.086-0.086L309.362,290.155z M309.362,290.155l-12.777,0.086l-0.086,0.001
				l0-0.087l-0.015-4.396c0.023-1.457-0.109-2.942,0.185-4.404c0.267-1.441,0.771-2.91,1.798-4.018
				c1.026-1.118,2.612-1.602,4.082-1.426c1.457,0.155,2.956,0.626,4.023,1.691c1.071,1.039,1.746,2.413,2.159,3.82
				C309.554,284.256,309.622,287.246,309.362,290.155z"/>
		</g>
		<g>
			<path class="st10" d="M322.139,290.155c0,0,1.199-11.699-5.067-13.816c-7.639-2.581-7.71,6.908-7.71,6.908v6.908H322.139z"/>
			<path class="st11" d="M322.139,290.155c0.185-2.918-0.003-5.892-0.847-8.687c-0.432-1.385-1.1-2.734-2.15-3.738
				c-1.035-1.03-2.477-1.509-3.9-1.675c-1.431-0.18-2.92,0.313-3.868,1.405c-0.917,1.107-1.425,2.515-1.691,3.935
				c-0.302,1.426-0.19,2.896-0.22,4.363l-0.015,4.397l-0.086-0.086L322.139,290.155z M322.139,290.155l-12.777,0.086l-0.086,0.001
				l0-0.087l-0.016-4.397c0.019-1.457-0.104-2.944,0.192-4.405c0.255-1.448,0.768-2.9,1.744-4.049
				c1.001-1.143,2.593-1.653,4.064-1.453c1.457,0.178,2.941,0.684,4.002,1.754c1.072,1.042,1.738,2.418,2.165,3.82
				C322.279,284.253,322.375,287.243,322.139,290.155z"/>
		</g>
		<g>
			<path class="st10" d="M334.915,290.155c0,0,1.391-13.648-5.067-13.816c-8.06-0.21-7.71,6.908-7.71,6.908v6.908H334.915z"/>
			<path class="st11" d="M334.915,290.155c0.201-2.894,0.119-5.832-0.515-8.659c-0.347-1.392-0.855-2.803-1.841-3.85
				c-0.49-0.517-1.114-0.904-1.802-1.077c-0.685-0.194-1.417-0.106-2.135-0.09c-1.427,0.121-2.857,0.533-3.989,1.413
				c-1.114,0.889-1.862,2.193-2.178,3.586c-0.168,0.7-0.228,1.41-0.207,2.135l-0.008,2.181l-0.015,4.362l-0.086-0.086
				L334.915,290.155z M334.915,290.155l-12.777,0.086l-0.086,0.001l0-0.087l-0.015-4.358l-0.008-2.179
				c-0.026-0.727,0.03-1.477,0.198-2.193c0.308-1.437,1.086-2.805,2.261-3.719c1.185-0.908,2.663-1.318,4.118-1.431
				c0.728-0.011,1.472-0.098,2.199,0.111c0.722,0.186,1.375,0.6,1.88,1.14c1.014,1.095,1.513,2.53,1.855,3.937
				C335.177,284.318,335.167,287.266,334.915,290.155z"/>
		</g>
		<g>
			<path class="st10" d="M347.692,290.155c0,0,1.669-13.347-5.067-13.816c-8.044-0.56-7.71,6.908-7.71,6.908v6.908H347.692z"/>
			<path class="st11" d="M347.692,290.155c0.261-2.9,0.221-5.858-0.435-8.691c-0.35-1.397-0.906-2.8-1.93-3.818
				c-0.509-0.503-1.143-0.875-1.833-1.057c-0.687-0.201-1.423-0.149-2.144-0.161c-1.435,0.073-2.885,0.464-4.01,1.362
				c-1.096,0.923-1.811,2.244-2.115,3.649c-0.159,0.705-0.221,1.42-0.202,2.147l-0.008,2.19l-0.015,4.379l-0.086-0.086
				L347.692,290.155z M347.692,290.155l-12.777,0.086l-0.086,0.001l0-0.087l-0.015-4.376l-0.008-2.188
				c-0.025-0.732,0.034-1.481,0.192-2.201c0.295-1.445,1.036-2.831,2.195-3.782c1.182-0.93,2.685-1.32,4.149-1.383
				c0.733,0.018,1.479-0.032,2.203,0.183c0.72,0.194,1.381,0.59,1.905,1.115c1.054,1.064,1.603,2.494,1.947,3.908
				C348.056,284.294,348.003,287.262,347.692,290.155z"/>
		</g>
		<g>
			<path class="st10" d="M360.469,290.155c0,0,1.646-13.846-5.067-13.816c-8.063,0.036-7.71,6.908-7.71,6.908v6.908H360.469z"/>
			<path class="st11" d="M360.469,290.155c0.249-2.895,0.215-5.841-0.392-8.679c-0.332-1.397-0.831-2.818-1.828-3.86
				c-0.495-0.514-1.127-0.891-1.819-1.057c-0.69-0.193-1.42-0.095-2.139-0.051c-1.428,0.144-2.857,0.559-4.003,1.422
				c-0.298,0.198-0.532,0.475-0.795,0.713c-0.214,0.285-0.467,0.541-0.636,0.858c-0.394,0.596-0.658,1.272-0.833,1.966
				c-0.179,0.698-0.246,1.409-0.224,2.135l-0.008,2.185l-0.015,4.37l-0.086-0.086L360.469,290.155z M360.469,290.155l-12.776,0.086
				l-0.086,0.001l0-0.087l-0.015-4.366l-0.008-2.183c-0.028-0.729,0.036-1.481,0.215-2.196c0.337-1.43,1.137-2.8,2.349-3.669
				c1.199-0.889,2.671-1.302,4.125-1.438c0.727-0.039,1.474-0.135,2.204,0.071c0.725,0.178,1.388,0.582,1.898,1.119
				c1.026,1.091,1.516,2.537,1.843,3.95C360.826,284.311,360.768,287.266,360.469,290.155z"/>
		</g>
		<g>
			<path class="st10" d="M373.245,290.155c0,0,0.902-13.846-5.836-13.846c-8.063,0-6.94,6.938-6.94,6.938v6.908H373.245z"/>
			<path class="st11" d="M373.245,290.155c0.085-2.325-0.054-4.661-0.463-6.946c-0.218-1.138-0.499-2.271-0.964-3.331
				c-0.455-1.052-1.091-2.069-2.03-2.728c-0.927-0.697-2.126-0.834-3.268-0.69c-0.581,0-1.138,0.163-1.705,0.254
				c-0.544,0.182-1.094,0.348-1.584,0.647c-0.995,0.556-1.784,1.449-2.216,2.504c-0.422,1.056-0.566,2.236-0.437,3.364l0.001,0.013
				l0,0.005l-0.024,6.908l-0.086-0.086L373.245,290.155z M373.245,290.155l-12.777,0.086l-0.086,0.001l0-0.087l-0.024-6.908
				l0.001,0.017c-0.144-1.182-0.004-2.382,0.428-3.493c0.443-1.106,1.294-2.038,2.331-2.61c0.513-0.307,1.081-0.475,1.643-0.658
				c0.581-0.091,1.155-0.251,1.744-0.248c1.144-0.14,2.433,0.012,3.388,0.747c0.974,0.695,1.614,1.743,2.069,2.813
				c0.464,1.078,0.738,2.223,0.95,3.369C373.298,285.489,373.373,287.832,373.245,290.155z"/>
		</g>
		<g>
			<path class="st10" d="M386.022,290.155c0,0,0.437-13.347-5.067-13.816c-8.034-0.684-7.71,6.908-7.71,6.908v6.908H386.022z"/>
			<path class="st11" d="M386.022,290.155c0.009-2.883-0.237-5.782-0.934-8.574c-0.377-1.377-0.877-2.768-1.797-3.86
				c-0.459-0.537-1.048-0.971-1.723-1.165c-0.335-0.1-0.687-0.132-1.047-0.13c-0.357-0.001-0.716-0.029-1.072-0.01
				c-1.417,0.07-2.861,0.493-3.915,1.451c-1.07,0.935-1.712,2.273-2.004,3.662c-0.147,0.702-0.192,1.406-0.175,2.128l-0.008,2.166
				l-0.015,4.331l-0.086-0.086L386.022,290.155z M386.022,290.155l-12.777,0.086l-0.086,0.001l0-0.087l-0.015-4.329l-0.008-2.164
				c-0.022-0.721,0.019-1.465,0.165-2.179c0.145-0.718,0.388-1.414,0.716-2.072c0.355-0.643,0.799-1.245,1.364-1.721
				c1.11-0.992,2.612-1.417,4.058-1.477c0.363-0.017,0.728,0.013,1.092,0.017c0.36,0,0.735,0.036,1.091,0.145
				c0.716,0.21,1.332,0.674,1.802,1.233c0.942,1.136,1.432,2.545,1.804,3.937C385.927,284.361,386.082,287.274,386.022,290.155z"/>
		</g>
		<g>
			<path class="st10" d="M398.799,290.155c0,0,2.067-13.385-5.581-13.886c-8.046-0.528-7.196,6.978-7.196,6.978v6.908H398.799z"/>
			<path class="st11" d="M398.798,290.155c0.284-2.349,0.308-4.739-0.036-7.075c-0.172-1.166-0.469-2.319-0.959-3.387
				c-0.494-1.061-1.233-2.026-2.237-2.627c-0.503-0.294-1.056-0.489-1.626-0.605c-0.573-0.106-1.162-0.099-1.749-0.095
				c-1.159,0.05-2.358,0.224-3.358,0.834c-1.013,0.574-1.775,1.523-2.192,2.607c-0.43,1.078-0.591,2.273-0.51,3.428l0.001,0.01
				l0,0.002l-0.024,6.908l-0.086-0.086L398.798,290.155z M398.798,290.155l-12.776,0.086l-0.086,0.001l0-0.086l-0.024-6.908
				l0.001,0.012c-0.093-1.205,0.063-2.416,0.502-3.544c0.421-1.132,1.244-2.122,2.304-2.715c1.051-0.629,2.285-0.797,3.468-0.84
				c0.597,0,1.196-0.004,1.791,0.111c0.59,0.125,1.163,0.331,1.683,0.64c1.04,0.631,1.791,1.633,2.286,2.716
				c0.491,1.091,0.781,2.258,0.947,3.434C399.215,285.418,399.125,287.812,398.798,290.155z"/>
		</g>
		<g>
			<path class="st10" d="M410.183,290.155c0,0,0.777-13.327-4.091-13.913c-8.005-0.963-7.293,7.005-7.293,7.005v6.908H410.183z"/>
			<path class="st11" d="M410.183,290.155c0.078-2.277-0.015-4.561-0.297-6.818c-0.149-1.126-0.349-2.249-0.686-3.332
				c-0.331-1.075-0.8-2.147-1.598-2.932c-0.404-0.38-0.911-0.65-1.457-0.721c-0.557-0.034-1.127-0.099-1.686-0.066
				c-1.125,0.03-2.242,0.351-3.156,0.979c-1.856,1.307-2.493,3.772-2.395,5.972l0,0.01v0l-0.026,6.908l-0.083-0.083L410.183,290.155
				z M410.183,290.155l-11.384,0.083l-0.083,0.001l0-0.084l-0.026-6.908l0,0.009c-0.061-1.158,0.069-2.319,0.452-3.415
				c0.372-1.093,1.06-2.108,2.027-2.766c0.965-0.653,2.13-0.974,3.281-0.996c0.575-0.029,1.148,0.04,1.723,0.081
				c0.588,0.081,1.133,0.377,1.554,0.781c0.832,0.832,1.294,1.929,1.623,3.018c0.333,1.098,0.525,2.229,0.667,3.362
				C410.278,285.591,410.303,287.88,410.183,290.155z"/>
		</g>
	</g>
	<path class="st12" d="M501.883,250.824c-0.303-0.41-0.642-0.766-1.052-1.07c-3.85-2.798-17.021-13.652-17.021-13.652
		c-29.657-21.262-77.564-50.901-77.564-50.901s0,0-0.018-0.018c-0.588-0.196-11.014-4.153-8.644-20.335
		c0.054-0.392,0.125-0.784,0.196-1.194c0.374-2.103,0.962-4.402,1.8-6.933c0,0-70.916-55.749-98.79-58.173
		c-1.355-0.125-2.673-0.285-3.957-0.517c-0.018,0-0.018,0-0.036,0c-0.125,0-0.303-0.036-0.499-0.107h-0.018
		c-24.755-4.42-36.091-28.828-36.091-28.828h-21.209l-12.597,14.092c12.618,8.519,36.692,23.971,38.1,24.969
		c6.719,4.794,88.132,61.343,88.132,61.343c-3.566,9.508,4.705,19.76,14.158,29.336c7.557,7.654,30.4,23.045,49.577,36.786
		c0.41,0.321,0.838,0.624,1.247,0.909c13.492,9.678,24.328,17.199,24.328,17.199l1.818,1.319l6.737,4.848l39.352,26.181
		c0.125,0.018,0.25,0.036,0.374,0.036c0.267,0.018,0.535,0.018,0.802,0.018l-48.513-33.114c3.065,1.889,27.571,17.11,31.688,19.088
		c4.384,2.103,6.345-0.713,5.614-2.976c-0.446-1.39-6.47-4.812-8.715-6.042c2.834,1.444,12.262,6.078,17.644,6.22
		c6.398,0.178,8.662-2.299,11.139-4.901C502.614,261.5,504.289,254.335,501.883,250.824z M442.374,252.927
		c0.018,0.018,0.036,0.018,0.053,0.036v0.018L442.374,252.927z"/>
	<g>
		<path class="st13" d="M497.383,259.936l-31.704-19.269l-0.05-0.03l0-0.059l-0.023-8.964l0.148,0.124l-15.342,2.745l-0.094,0.017
			l-0.051-0.081l-9.605-15.336l0.135,0.075l-11.509,0.011l-0.064,0l-0.048-0.042l-61.599-53.905
			c-2.588-2.223-5.063-4.58-7.782-6.606c-2.722-2.034-5.602-3.859-8.533-5.589c-5.872-3.451-11.963-6.527-18.127-9.435
			c-12.343-5.79-24.973-10.977-37.753-15.725l-0.136-0.051l0.026-0.142l1.792-9.75l0.187,0.189l-14.812,2.519l-0.152,0.026
			l-0.019-0.153l-1.768-14.18l0.095,0.111c-4.232-1.246-8.447-2.544-12.637-3.921c-4.181-1.399-8.378-2.779-12.42-4.564
			c-0.502-0.23-1.003-0.464-1.487-0.735c-0.481-0.264-0.974-0.557-1.35-0.974c-0.757-0.814-1.394-1.719-2.019-2.628
			c-1.239-1.827-2.382-3.714-3.508-5.609c-2.24-3.799-4.379-7.656-6.461-11.543c2.102,3.876,4.263,7.721,6.522,11.507
			c1.136,1.889,2.289,3.769,3.535,5.585c0.627,0.903,1.27,1.804,2.02,2.601c0.369,0.405,0.843,0.681,1.325,0.943
			c0.48,0.265,0.98,0.496,1.481,0.722c4.039,1.755,8.243,3.112,12.429,4.485c4.198,1.345,8.413,2.64,12.643,3.876l0.084,0.025
			l0.011,0.087l1.796,14.176l-0.171-0.127l14.807-2.548l0.228-0.039l-0.041,0.228l-1.773,9.753l-0.11-0.192
			c12.803,4.728,25.445,9.892,37.816,15.666c6.177,2.901,12.284,5.968,18.182,9.419c2.944,1.731,5.84,3.557,8.587,5.601
			c2.756,2.049,5.241,4.399,7.824,6.62l61.492,54.022l-0.112-0.042l11.509,0.011l0.088,0l0.047,0.075l9.576,15.354l-0.145-0.064
			l15.348-2.715l0.149-0.026l0,0.151l-0.022,8.964l-0.05-0.088L497.383,259.936z"/>
	</g>
</g>
</svg>
