<?xml version="1.0" encoding="utf-8"?>
<!-- Generator: Adobe Illustrator 21.0.2, SVG Export Plug-In . SVG Version: 6.00 Build 0)  -->
<svg version="1.1" id="Layer_1" xmlns="http://www.w3.org/2000/svg" xmlns:xlink="http://www.w3.org/1999/xlink" x="0px" y="0px"
	 viewBox="0 0 236.989 495.286" style="enable-background:new 0 0 236.989 495.286;" xml:space="preserve">
<style type="text/css">
	.st0{fill:#038B56;}
	.st1{fill:#057452;}
	.st2{fill:#C5CD9F;}
</style>
<g>
	<path class="st0" d="M95.082,495.286l1.096-286.393H77.447c-29.031,0-52.448-19.346-66.203-40.739
		c-13.744-21.382-10.691-51.43-11.194-91.14c-0.514-39.721,3.053-42.26,3.053-42.26s1.174-2.259,3.981-4.674
		c1.275-1.107,2.874-2.237,4.853-3.209c2.057-1.006,4.518-1.845,7.436-2.281c1.499-0.235,3.109-0.369,4.865-0.358
		c1.51,0.011,3.12,0.112,4.831,0.335c0.917,0.123,1.789,0.324,2.594,0.615c1.912,0.66,3.523,1.745,4.865,3.176
		c10.087,10.657,5.781,40.09,5.781,51.195c0,13.241,0,51.43,0,51.43c2.55,40.739,53.141,38.212,53.141,38.212
		s-0.514-77.43,0.749-120.696c0.425-14.571-0.492-23.942,0.067-29.903c0.503-5.468,1.621-8.98,3.601-11.451
		c1.622-2.058,3.858-3.388,6.833-4.54c0.134-0.056,0.268-0.101,0.414-0.145c3.187-1.152,7.023-1.8,11.105-2.013
		c2.36-0.134,4.797-0.123,7.247,0.011c2.729,0.145,5.457,0.447,8.085,0.883c1.074,0.179,2.08,0.447,3.008,0.783
		c3.064,1.118,5.424,3.042,7.246,5.401c7.135,9.248,5.938,25.184,5.938,25.184l-0.503,180.256
		c47.862,3.053,48.142-46.331,48.142-46.331V86.173c0,0,0.514-4.92,4.06-9.427c1.219-1.566,2.796-3.075,4.853-4.317
		c2.237-1.364,5.032-2.404,8.51-2.829c1.152-0.145,2.371-0.224,3.679-0.224c0.402,0,0.805,0.011,1.185,0.022
		c2.963,0.112,5.412,0.626,7.436,1.42c2.013,0.794,3.601,1.856,4.853,3.064c5.144,4.943,4.585,12.178,4.585,12.178
		s2.125,35.606-2.93,107.109c-4.876,69.009-85.884,60.622-85.884,60.622v241.493"/>
	<path class="st1" d="M99.869,495.286V7.144c1.622-2.058,3.858-3.388,6.833-4.54c0.134-0.056,0.268-0.101,0.414-0.145v492.828"/>
	<polyline class="st1" points="118.22,495.286 118.22,0.446 125.466,0.457 125.466,495.286 	"/>
	<path class="st1" d="M136.56,495.286V2.123c3.064,1.118,5.424,3.042,7.246,5.401v487.762"/>
	<path class="st1" d="M96.145,198.662v4.496c-20.509,0.559-37.518-1.834-60.242-15.779C10.54,171.823,7.085,127.304,7.085,127.304
		V30.08c1.275-1.107,2.874-2.237,4.853-3.209v89.742c0,11.954,1.7,23.875,5.356,35.248c3.69,11.507,9.707,23.909,19.235,29.646
		c4.082,2.471,11.664,8.063,25.542,12.368C73.433,197.398,86.248,198.393,96.145,198.662z"/>
	<path class="st1" d="M96.145,188.541v4.216c-3.757,0.235-7.582,0.514-10.903,0.134c-12.57-1.443-21.404-2.852-29.075-6.05
		c-6.508-2.706-11.731-4.607-19.637-11.228c-17.155-14.348-17.155-48.31-17.155-48.31V24.59c1.499-0.235,3.109-0.369,4.865-0.358
		v103.072c0,0,1.018,26.682,14.907,43.367c2.494,3.008,12.704,9.628,19.749,12.078c9.528,3.31,16.271,4.104,24.759,5.435
		C90.106,189.201,96.145,188.541,96.145,188.541z"/>
	<path class="st1" d="M95.865,175.323v5.345c0,0-15.891,0-26.526-2.326c-42.115-9.248-37.675-51.039-37.675-51.039V25.182
		c1.912,0.66,3.523,1.745,4.865,3.176v98.946c0.447,16.897,4.194,24.043,4.194,24.043C54.422,177.839,95.865,175.323,95.865,175.323
		z"/>
	<path class="st1" d="M209.852,231.964c-23.126,13.274-39.733,16.338-60.242,15.779v-4.496c9.897-0.268,22.712-1.264,34.074-4.786
		c13.878-4.305,21.885-9.304,25.542-12.368c11.138-9.326,15.276-24.446,16.897-37.015c1.532-11.843,0.984-19.279,0.984-31.234
		V70.819c2.013,0.794,3.601,1.856,4.853,3.064c-0.011,13.151-0.034,73.069,0,94.652
		C231.983,185.332,232.095,219.205,209.852,231.964z"/>
	<path class="st1" d="M204.753,220.2c-7.906,6.62-8.656,8.521-15.164,11.228c-7.671,3.198-16.506,4.607-29.075,6.05
		c-3.321,0.38-7.146,0.101-10.903-0.134v-4.216c0,0,6.039,0.66,12.491-0.358c8.488-1.331,15.231-2.125,24.759-5.435
		c7.045-2.449,12.782-9.069,15.276-12.078c13.889-16.685,12.67-43.367,12.67-43.367V69.6c1.152-0.145,2.371-0.224,3.679-0.224
		c0.402,0,0.805,0.011,1.185,0.022V171.89C219.671,171.89,221.907,205.852,204.753,220.2z"/>
	<path class="st1" d="M176.415,222.928c-10.512,2.829-26.526,2.326-26.526,2.326v-5.345c0,0,34.734,2.516,48.433-23.976
		c0,0,3.746-7.146,4.194-24.043l-1.074-95.144c1.219-1.566,2.796-3.075,4.853-4.317l1.085,99.46
		C207.381,171.89,211.205,213.58,176.415,222.928z"/>
	<g>
		<path class="st2" d="M111.638,58.347c-0.827-1.362-1.359-2.766-1.803-4.184c-0.431-1.42-0.745-2.857-0.96-4.308
			c-0.216-1.451-0.327-2.918-0.323-4.402c0.016-1.485,0.122-2.984,0.527-4.527c0.831,1.361,1.364,2.766,1.807,4.184
			c0.431,1.42,0.746,2.857,0.956,4.309c0.212,1.452,0.323,2.919,0.319,4.402C112.144,55.306,112.039,56.805,111.638,58.347z"/>
	</g>
	<g>
		<path class="st2" d="M137.358,39.869c0.047-1.407,0.358-2.673,0.748-3.897c0.401-1.218,0.905-2.381,1.499-3.496
			c0.593-1.116,1.278-2.182,2.067-3.192c0.799-1.005,1.679-1.968,2.825-2.788c-0.044,1.409-0.354,2.675-0.744,3.899
			c-0.401,1.218-0.905,2.381-1.502,3.494c-0.596,1.114-1.282,2.18-2.071,3.191C139.38,38.085,138.501,39.047,137.358,39.869z"/>
	</g>
	<g>
		<path class="st2" d="M129.951,86.808c0.054-1.593,0.379-3.06,0.785-4.49c0.418-1.424,0.942-2.799,1.558-4.132
			c0.615-1.333,1.326-2.622,2.142-3.861c0.827-1.235,1.738-2.431,2.922-3.5c-0.05,1.595-0.374,3.063-0.782,4.492
			c-0.418,1.424-0.942,2.799-1.561,4.13c-0.619,1.331-1.329,2.62-2.146,3.86C132.041,84.541,131.131,85.737,129.951,86.808z"/>
	</g>
	<g>
		<path class="st2" d="M100.857,108.945c-1.04-0.799-1.809-1.721-2.495-2.68c-0.675-0.964-1.243-1.976-1.719-3.029
			c-0.477-1.053-0.857-2.149-1.131-3.294c-0.263-1.149-0.443-2.336-0.348-3.646c1.044,0.798,1.813,1.719,2.499,2.678
			c0.675,0.964,1.243,1.976,1.715,3.031c0.473,1.055,0.854,2.151,1.127,3.295C100.768,106.45,100.949,107.636,100.857,108.945z"/>
	</g>
	<g>
		<path class="st2" d="M147.66,126.654c0.203-1.43,0.655-2.695,1.182-3.91c0.537-1.208,1.172-2.352,1.891-3.44
			c0.718-1.088,1.524-2.118,2.428-3.084c0.913-0.959,1.903-1.867,3.144-2.609c-0.2,1.432-0.651,2.697-1.178,3.912
			c-0.537,1.208-1.172,2.352-1.894,3.437c-0.722,1.086-1.528,2.116-2.431,3.081C149.887,125.002,148.898,125.91,147.66,126.654z"/>
	</g>
	<g>
		<path class="st2" d="M137.358,159.173c-1.167-0.894-2.07-1.926-2.894-3c-0.812-1.08-1.52-2.214-2.139-3.394
			c-0.619-1.18-1.146-2.409-1.568-3.692c-0.412-1.289-0.743-2.62-0.807-4.09c1.171,0.892,2.075,1.924,2.897,2.998
			c0.812,1.08,1.52,2.213,2.136,3.396c0.616,1.182,1.142,2.411,1.565,3.694C136.959,156.374,137.291,157.704,137.358,159.173z"/>
	</g>
	<g>
		<path class="st2" d="M104.652,159.173c0.025-1.456,0.319-2.78,0.692-4.064c0.385-1.279,0.875-2.505,1.456-3.688
			c0.58-1.182,1.254-2.319,2.034-3.403c0.79-1.079,1.662-2.118,2.804-3.023c-0.022,1.458-0.314,2.782-0.689,4.066
			c-0.385,1.279-0.875,2.505-1.459,3.686c-0.584,1.181-1.258,2.317-2.037,3.401C106.662,157.227,105.791,158.266,104.652,159.173z"
			/>
	</g>
	<g>
		<path class="st2" d="M114.771,189.269c0.126-1.468,0.51-2.788,0.973-4.063c0.473-1.269,1.049-2.479,1.711-3.64
			c0.662-1.161,1.415-2.269,2.27-3.32c0.865-1.044,1.81-2.043,3.016-2.892c-0.122,1.47-0.506,2.79-0.969,4.065
			c-0.473,1.269-1.049,2.479-1.715,3.638c-0.666,1.159-1.419,2.267-2.274,3.318C116.918,187.419,115.974,188.418,114.771,189.269z"
			/>
	</g>
	<g>
		<path class="st2" d="M129.951,222.099c0.069-1.451,0.402-2.762,0.814-4.03c0.423-1.263,0.95-2.47,1.566-3.63
			c0.615-1.16,1.323-2.271,2.134-3.327c0.822-1.05,1.724-2.058,2.893-2.923c-0.066,1.453-0.398,2.764-0.811,4.032
			c-0.423,1.263-0.95,2.47-1.569,3.628c-0.619,1.158-1.327,2.269-2.138,3.325C132.018,220.224,131.116,221.231,129.951,222.099z"/>
	</g>
	<g>
		<path class="st2" d="M144.498,248.722c0.074-1.474,0.413-2.808,0.831-4.101c0.429-1.287,0.962-2.519,1.584-3.704
			c0.622-1.186,1.336-2.322,2.154-3.404c0.829-1.077,1.738-2.11,2.915-3.004c-0.071,1.475-0.409,2.811-0.828,4.103
			c-0.429,1.287-0.962,2.519-1.588,3.702c-0.625,1.184-1.34,2.32-2.158,3.402C146.58,246.793,145.671,247.827,144.498,248.722z"/>
	</g>
	<g>
		<path class="st2" d="M174.096,249.931c-1.423-0.089-2.699-0.438-3.932-0.865c-1.226-0.438-2.395-0.978-3.514-1.607
			c-1.12-0.628-2.188-1.347-3.198-2.168c-1.005-0.831-1.965-1.743-2.776-2.917c1.425,0.085,2.702,0.433,3.934,0.861
			c1.226,0.438,2.395,0.978,3.512,1.61c1.118,0.631,2.186,1.35,3.196,2.172C172.322,247.85,173.282,248.76,174.096,249.931z"/>
	</g>
	<g>
		<path class="st2" d="M175.489,227.441c-0.025-1.309,0.216-2.481,0.536-3.612c0.331-1.125,0.767-2.197,1.293-3.223
			c0.525-1.026,1.143-2.004,1.866-2.928c0.733-0.919,1.547-1.796,2.63-2.535c0.028,1.31-0.211,2.483-0.532,3.614
			c-0.332,1.125-0.767,2.197-1.297,3.221c-0.529,1.024-1.147,2.002-1.869,2.926C177.382,225.822,176.568,226.7,175.489,227.441z"/>
	</g>
	<g>
		<path class="st2" d="M205.215,234.509c-0.96-0.956-1.635-2.003-2.226-3.077c-0.578-1.078-1.045-2.193-1.415-3.338
			c-0.371-1.145-0.642-2.323-0.802-3.536c-0.149-1.217-0.21-2.462,0.016-3.799c0.964,0.954,1.64,2.001,2.23,3.076
			c0.578,1.079,1.045,2.193,1.412,3.34c0.367,1.146,0.639,2.324,0.798,3.537C205.375,231.928,205.437,233.173,205.215,234.509z"/>
	</g>
	<g>
		<path class="st2" d="M214.07,192.432c0.109-1.376,0.474-2.598,0.915-3.772c0.452-1.168,1.004-2.276,1.643-3.331
			c0.638-1.055,1.366-2.056,2.193-2.996c0.838-0.934,1.754-1.82,2.928-2.55c-0.106,1.378-0.47,2.6-0.912,3.774
			c-0.452,1.168-1.004,2.276-1.646,3.328c-0.641,1.053-1.369,2.054-2.197,2.994C216.156,190.813,215.241,191.7,214.07,192.432z"/>
	</g>
	<g>
		<path class="st2" d="M228.617,155.116c-0.913-0.936-1.539-1.955-2.079-2.998c-0.528-1.046-0.943-2.125-1.26-3.231
			c-0.319-1.106-0.536-2.241-0.641-3.408c-0.094-1.17-0.099-2.366,0.185-3.645c0.917,0.935,1.544,1.953,2.083,2.996
			c0.528,1.046,0.943,2.125,1.256,3.233c0.315,1.107,0.532,2.242,0.637,3.41C228.891,152.643,228.898,153.838,228.617,155.116z"/>
	</g>
	<g>
		<path class="st2" d="M203.002,148.475c0.116-1.487,0.493-2.83,0.949-4.128c0.466-1.293,1.036-2.528,1.693-3.715
			c0.657-1.187,1.405-2.323,2.256-3.402c0.861-1.073,1.803-2.102,3.008-2.985c-0.113,1.489-0.489,2.832-0.945,4.13
			c-0.467,1.293-1.036,2.528-1.697,3.713c-0.66,1.185-1.409,2.321-2.26,3.4C205.144,146.561,204.203,147.59,203.002,148.475z"/>
	</g>
	<g>
		<path class="st2" d="M228.617,108.945c-0.092-1.309,0.089-2.495,0.351-3.645c0.274-1.144,0.655-2.241,1.128-3.295
			c0.472-1.055,1.04-2.067,1.715-3.031c0.685-0.959,1.455-1.881,2.499-2.678c0.095,1.31-0.084,2.497-0.348,3.646
			c-0.274,1.144-0.655,2.241-1.131,3.294c-0.476,1.053-1.044,2.066-1.719,3.029C230.426,107.224,229.657,108.146,228.617,108.945z"
			/>
	</g>
	<g>
		<path class="st2" d="M210.908,86.808c0.015-1.581,0.303-3.042,0.674-4.467c0.382-1.42,0.872-2.793,1.454-4.126
			c0.581-1.333,1.259-2.624,2.044-3.867c0.796-1.239,1.675-2.441,2.831-3.523c-0.011,1.583-0.299,3.044-0.67,4.469
			c-0.382,1.42-0.872,2.793-1.457,4.124c-0.585,1.331-1.262,2.622-2.047,3.866C212.938,84.523,212.06,85.725,210.908,86.808z"/>
	</g>
	<g>
		<path class="st2" d="M71.552,204.991c0.812-0.84,1.695-1.391,2.6-1.854c0.908-0.451,1.844-0.788,2.805-1.028
			c0.96-0.24,1.946-0.378,2.959-0.402c1.016-0.013,2.055,0.063,3.165,0.432c-0.811,0.844-1.694,1.396-2.599,1.858
			c-0.908,0.451-1.844,0.788-2.805,1.024c-0.961,0.236-1.947,0.374-2.96,0.398C73.7,205.432,72.662,205.356,71.552,204.991z"/>
	</g>
	<g>
		<path class="st2" d="M65.438,186.107c-0.92-1.173-1.549-2.415-2.092-3.679c-0.53-1.266-0.946-2.56-1.264-3.877
			c-0.319-1.317-0.535-2.659-0.637-4.028c-0.091-1.372-0.093-2.765,0.198-4.228c0.924,1.172,1.554,2.414,2.096,3.678
			c0.53,1.266,0.946,2.56,1.26,3.878c0.315,1.318,0.531,2.66,0.634,4.029C65.723,183.252,65.726,184.644,65.438,186.107z"/>
	</g>
	<g>
		<path class="st2" d="M36.977,186.107c-0.332-1.071-0.378-2.058-0.337-3.02c0.052-0.958,0.218-1.883,0.48-2.779
			c0.261-0.897,0.623-1.764,1.098-2.598c0.486-0.831,1.059-1.635,1.922-2.355c0.336,1.072,0.382,2.06,0.341,3.021
			c-0.053,0.958-0.218,1.883-0.484,2.778c-0.265,0.896-0.627,1.763-1.102,2.597C38.409,184.581,37.836,185.386,36.977,186.107z"/>
	</g>
	<g>
		<path class="st2" d="M26.225,148.475c-0.87-1.051-1.448-2.167-1.938-3.303c-0.478-1.138-0.842-2.302-1.107-3.487
			c-0.266-1.185-0.429-2.394-0.478-3.627c-0.038-1.236,0.014-2.492,0.361-3.814c0.873,1.05,1.453,2.166,1.942,3.302
			c0.478,1.138,0.842,2.302,1.103,3.488c0.262,1.186,0.425,2.394,0.474,3.628C26.618,145.898,26.567,147.154,26.225,148.475z"/>
	</g>
	<g>
		<path class="st2" d="M11.678,113.613c-0.115-1.637,0.053-3.181,0.306-4.696c0.265-1.512,0.642-2.987,1.115-4.43
			c0.472-1.444,1.044-2.855,1.727-4.229c0.694-1.371,1.476-2.713,2.544-3.961c0.119,1.638-0.048,3.182-0.303,4.698
			c-0.266,1.512-0.642,2.987-1.119,4.429c-0.476,1.443-1.048,2.854-1.731,4.228C13.522,111.021,12.742,112.363,11.678,113.613z"/>
	</g>
	<g>
		<path class="st2" d="M36.977,104.954c-0.915-0.978-1.541-2.035-2.082-3.116c-0.528-1.085-0.943-2.2-1.261-3.343
			c-0.319-1.143-0.536-2.313-0.64-3.515c-0.093-1.205-0.098-2.434,0.188-3.744c0.918,0.977,1.546,2.034,2.085,3.115
			c0.528,1.085,0.943,2.2,1.257,3.344c0.315,1.144,0.532,2.314,0.636,3.516C37.253,102.416,37.259,103.645,36.977,104.954z"/>
	</g>
	<g>
		<path class="st2" d="M11.678,64.672c-0.964-1.078-1.642-2.24-2.234-3.427c-0.58-1.191-1.047-2.415-1.418-3.667
			c-0.371-1.252-0.642-2.534-0.8-3.849c-0.147-1.318-0.206-2.663,0.025-4.092c0.968,1.076,1.647,2.238,2.238,3.426
			c0.58,1.191,1.047,2.415,1.414,3.668c0.367,1.253,0.638,2.535,0.796,3.85C11.845,61.899,11.904,63.243,11.678,64.672z"/>
	</g>
	<g>
		<path class="st2" d="M26.225,39.869c-0.872-1.185-1.451-2.429-1.943-3.69c-0.479-1.264-0.843-2.551-1.108-3.858
			c-0.266-1.307-0.429-2.635-0.477-3.986c-0.037-1.353,0.017-2.725,0.366-4.155c0.876,1.184,1.456,2.428,1.947,3.689
			c0.479,1.264,0.843,2.551,1.104,3.859c0.262,1.308,0.425,2.636,0.473,3.986C26.622,37.068,26.57,38.439,26.225,39.869z"/>
	</g>
	<g>
		<path class="st2" d="M118.757,254.414c-1.136-0.765-2.011-1.675-2.807-2.628c-0.786-0.96-1.468-1.976-2.063-3.042
			c-0.595-1.065-1.099-2.182-1.5-3.355c-0.391-1.179-0.702-2.403-0.749-3.773c1.139,0.763,2.015,1.672,2.81,2.626
			c0.785,0.96,1.468,1.976,2.059,3.044c0.592,1.067,1.095,2.184,1.496,3.357C118.394,251.823,118.706,253.046,118.757,254.414z"/>
	</g>
	<g>
		<path class="st2" d="M111.638,293.031c-0.827-1.362-1.359-2.766-1.803-4.184c-0.431-1.42-0.745-2.857-0.96-4.308
			c-0.216-1.451-0.327-2.918-0.323-4.402c0.016-1.485,0.122-2.984,0.527-4.527c0.831,1.361,1.364,2.766,1.807,4.184
			c0.431,1.42,0.746,2.857,0.956,4.309c0.212,1.452,0.323,2.919,0.319,4.402C112.144,289.991,112.039,291.489,111.638,293.031z"/>
	</g>
	<g>
		<path class="st2" d="M137.358,274.554c0.047-1.407,0.358-2.673,0.748-3.897c0.401-1.218,0.905-2.381,1.499-3.496
			c0.593-1.116,1.278-2.182,2.067-3.192c0.799-1.005,1.679-1.968,2.825-2.788c-0.044,1.409-0.354,2.675-0.744,3.899
			c-0.401,1.218-0.905,2.381-1.502,3.494c-0.596,1.114-1.282,2.18-2.071,3.19C139.38,272.769,138.501,273.732,137.358,274.554z"/>
	</g>
	<g>
		<path class="st2" d="M129.951,321.493c0.054-1.593,0.379-3.06,0.785-4.49c0.418-1.424,0.942-2.799,1.558-4.132
			c0.615-1.333,1.326-2.622,2.142-3.861c0.827-1.235,1.738-2.431,2.922-3.5c-0.05,1.595-0.374,3.063-0.782,4.492
			c-0.418,1.424-0.942,2.799-1.561,4.13c-0.619,1.331-1.329,2.62-2.146,3.86C132.041,319.225,131.131,320.422,129.951,321.493z"/>
	</g>
	<g>
		<path class="st2" d="M108.921,345.645c-1.04-0.799-1.809-1.721-2.495-2.68c-0.675-0.964-1.243-1.976-1.719-3.029
			c-0.477-1.053-0.857-2.149-1.131-3.294c-0.263-1.149-0.443-2.336-0.348-3.646c1.044,0.798,1.813,1.719,2.499,2.678
			c0.675,0.964,1.243,1.976,1.715,3.031c0.473,1.055,0.854,2.151,1.127,3.295C108.833,343.15,109.013,344.337,108.921,345.645z"/>
	</g>
	<g>
		<path class="st2" d="M137.358,393.857c-1.167-0.894-2.07-1.926-2.894-3c-0.812-1.08-1.52-2.214-2.139-3.394
			c-0.619-1.18-1.146-2.409-1.568-3.692c-0.412-1.289-0.743-2.62-0.807-4.09c1.171,0.892,2.075,1.924,2.897,2.998
			c0.812,1.08,1.52,2.214,2.136,3.396c0.616,1.182,1.142,2.411,1.565,3.694C136.959,391.058,137.291,392.388,137.358,393.857z"/>
	</g>
	<g>
		<path class="st2" d="M104.652,393.857c0.025-1.456,0.319-2.78,0.692-4.064c0.385-1.279,0.875-2.505,1.456-3.688
			c0.58-1.182,1.254-2.319,2.034-3.403c0.79-1.079,1.662-2.118,2.804-3.023c-0.022,1.458-0.314,2.782-0.689,4.066
			c-0.385,1.279-0.875,2.505-1.459,3.686c-0.584,1.181-1.258,2.317-2.037,3.401C106.662,391.911,105.791,392.95,104.652,393.857z"/>
	</g>
	<g>
		<path class="st2" d="M114.771,423.954c0.126-1.468,0.51-2.788,0.973-4.063c0.473-1.269,1.049-2.479,1.711-3.64
			c0.662-1.161,1.415-2.269,2.27-3.32c0.865-1.044,1.81-2.043,3.016-2.892c-0.122,1.47-0.506,2.79-0.969,4.065
			c-0.473,1.269-1.049,2.479-1.715,3.638c-0.666,1.159-1.419,2.267-2.274,3.318C116.918,422.103,115.974,423.103,114.771,423.954z"
			/>
	</g>
	<g>
		<path class="st2" d="M129.951,456.783c0.069-1.451,0.402-2.762,0.814-4.03c0.423-1.263,0.95-2.47,1.566-3.63
			c0.615-1.16,1.323-2.271,2.134-3.327c0.822-1.05,1.724-2.058,2.893-2.923c-0.066,1.453-0.398,2.764-0.811,4.032
			c-0.423,1.263-0.95,2.47-1.569,3.628c-0.619,1.158-1.327,2.269-2.138,3.325C132.018,454.908,131.116,455.916,129.951,456.783z"/>
	</g>
	<g>
		<path class="st2" d="M140.466,483.406c0.074-1.474,0.413-2.808,0.831-4.101c0.429-1.287,0.962-2.519,1.584-3.704
			c0.622-1.185,1.336-2.322,2.154-3.404c0.829-1.077,1.738-2.11,2.915-3.004c-0.071,1.475-0.409,2.81-0.828,4.103
			c-0.429,1.287-0.962,2.519-1.588,3.702c-0.625,1.184-1.34,2.32-2.158,3.402C142.547,481.477,141.639,482.511,140.466,483.406z"/>
	</g>
	<g>
		<path class="st2" d="M118.757,489.099c-1.136-0.765-2.011-1.675-2.807-2.628c-0.786-0.96-1.468-1.976-2.063-3.042
			c-0.595-1.065-1.099-2.182-1.5-3.355c-0.391-1.179-0.702-2.403-0.749-3.773c1.139,0.763,2.015,1.672,2.81,2.626
			c0.785,0.96,1.468,1.976,2.059,3.044c0.592,1.067,1.095,2.184,1.496,3.357C118.394,486.507,118.706,487.73,118.757,489.099z"/>
	</g>
</g>
</svg>
