<?xml version="1.0" encoding="utf-8"?>
<!-- Generator: Adobe Illustrator 21.0.2, SVG Export Plug-In . SVG Version: 6.00 Build 0)  -->
<svg version="1.1" id="Layer_1" xmlns="http://www.w3.org/2000/svg" xmlns:xlink="http://www.w3.org/1999/xlink" x="0px" y="0px"
	 viewBox="0 0 349.262 312.383" style="enable-background:new 0 0 349.262 312.383;" xml:space="preserve">
<style type="text/css">
	.st0{fill:url(#SVGID_1_);}
</style>
<linearGradient id="SVGID_1_" gradientUnits="userSpaceOnUse" x1="-6.366463e-12" y1="156.1915" x2="349.2616" y2="156.1915">
	<stop  offset="0" style="stop-color:#E5AB62"/>
	<stop  offset="0.097" style="stop-color:#E3A860"/>
	<stop  offset="0.5847" style="stop-color:#DE9B59"/>
	<stop  offset="1" style="stop-color:#DC9756"/>
</linearGradient>
<path class="st0" d="M153.256,254.713c0,0-0.726-20.404-2.828-25.836s-0.175-14.543,0-17.347c0.175-2.803-1.051-51.164-1.752-55.194
	s-9.287-16.646-10.864-19.099c-1.577-2.453-5.257-8.41-9.111-7.71c-3.855,0.701-37.146-1.227-44.681-9.462
	c-7.534-8.235-12.09-8.41-22.778-41.351S49.327,45.073,46.173,44.548c-3.154-0.526-13.667-0.701-18.924-2.803
	c-5.257-2.103-7.534-0.701-11.915,1.051S5.172,44.189,3.945,40.689s1.051-4.902,1.051-4.902s-5.782-2.979-4.906-6.833
	s3.329-3.504,5.782-6.133s2.803-9.111,15.594-10.688s15.945-3.329,19.274-7.009S56.16,2.495,60.015,2.495s2.979-3.68,8.235-2.103
	c5.257,1.577,6.833,4.205,6.133,9.111c-0.701,4.906,8.41,39.599,16.821,51.689s6.658,24.355,25.582,21.377
	c18.924-2.979,23.479-25.056,28.561-28.385c5.081-3.329,5.957-11.389,36.095-13.667c0,0,14.543-5.257,27.334-16.295
	c12.791-11.039,18.398-14.894,29.261-12.265c10.864,2.628,20.325,21.026,25.056,25.582c4.731,4.556,12.44,12.616,24.355,14.894
	c11.915,2.278,19.8,17.697,25.932,24.53c6.133,6.833,12.44,8.235,14.718,32.941c2.194,23.8,5.364,51.502,6.69,56.321
	c0.039,0.141-0.116,0.249-0.233,0.162c-0.933-0.691-3.339-2.34-4.179-1.64c-1.051,0.876-1.402,2.278-0.35,5.782
	c1.051,3.504,7.885,22.778,14.193,30.137c6.308,7.359,5.257,12.791,4.38,15.945c-0.876,3.154-7.534,11.039-6.483,36.445
	s1.227,31.014-0.701,32.941s-2.103,5.432-1.752,6.658s3.504,5.432,1.752,6.658c-1.752,1.227-5.782,3.68-13.842,3.504
	c-8.06-0.175-11.214,2.12-14.543,0.009c-3.329-2.112,3.154-7.368,6.483-8.419c3.329-1.051,12.966-5.257,12.44-17.171
	c-0.526-11.915,0.526-45.557-1.051-53.266s-11.214-35.394-14.368-38.373c-3.154-2.979-3.855-3.154-3.855,0.876
	s2.979,26.808,2.453,31.189c-0.526,4.38-7.885,18.748-10.513,22.954s-17.171,33.291-18.748,37.321s-1.227,10.513,0.175,13.842
	c1.402,3.329,4.906,8.936,0.526,9.987c-4.38,1.051-19.099,1.99-22.954,1.959c-3.855-0.031-13.317,1.37-9.287-3.886
	c4.03-5.257,13.317-5.782,19.8-19.449c6.483-13.667,16.47-34.343,18.047-59.048s1.402-46.783-3.329-51.689
	c-4.731-4.906-5.257-9.987-5.257-15.069s3.504-24.005-3.68-32.591c0,0-2.278,3.154-9.812,7.71
	c-7.534,4.556-16.47,13.317-34.518,15.069s-34.868,2.825-34.868,2.825s-0.175,27.663,1.227,43.257
	c1.402,15.594,6.308,23.83,4.906,47.484c-1.402,23.654,3.504,56.07,4.906,61.501s2.453,12.09-5.432,12.265
	c-7.885,0.175-12.616,0.526-18.047,0c-5.432-0.526-7.885-4.38-0.526-7.71s11.039-9.462,11.039-14.894
	c0-5.432-2.628-36.796-3.504-42.928c-0.876-6.133-6.117-23.129-8.315-32.415c-2.198-9.287-3.074-17.171-3.6-22.954
	c-0.526-5.782-4.205-23.654-7.184-28.21c-2.979-4.556-3.329-7.124-4.38-6.804c-1.051,0.32-2.103,12.235-3.154,22.047
	c-1.051,9.812,0.526,48.886-2.803,59.224c-3.329,10.338-4.731,23.654-4.731,28.385c0,4.731-2.278,23.83-1.927,29.086
	c0.35,5.257,4.03,8.761-1.227,10.688s-14.193,3.855-20.15,3.504c-5.957-0.35-12.966,0-8.586-5.081s15.945-6.308,17.697-10.688
	c1.752-4.38,5.432-18.748,5.782-26.808S153.256,254.713,153.256,254.713z"/>
</svg>
