<?xml version="1.0" encoding="utf-8"?>
<!-- Generator: Adobe Illustrator 21.0.2, SVG Export Plug-In . SVG Version: 6.00 Build 0)  -->
<svg version="1.1" id="Layer_1" xmlns="http://www.w3.org/2000/svg" xmlns:xlink="http://www.w3.org/1999/xlink" x="0px" y="0px"
	 viewBox="0 0 600.923 280.599" style="enable-background:new 0 0 600.923 280.599;" xml:space="preserve">
<style type="text/css">
	.st0{fill:url(#SVGID_1_);}
	.st1{fill:url(#SVGID_2_);}
	.st2{fill:url(#SVGID_3_);}
	.st3{fill:url(#SVGID_4_);}
</style>
<g>
	<linearGradient id="SVGID_1_" gradientUnits="userSpaceOnUse" x1="556.5826" y1="152.389" x2="602.5013" y2="152.389">
		<stop  offset="0" style="stop-color:#E63230"/>
		<stop  offset="0.375" style="stop-color:#DD382E"/>
		<stop  offset="1" style="stop-color:#C64529"/>
	</linearGradient>
	<path class="st0" d="M600.923,160.058c8.081,2.854-17.495-7.661-17.495-7.661c7.374-3.067,12.828-5.73,16.489-7.865
		c3.169-1.848-10.411,5.283-17.129,6.698c-4.255,0.896-10.155,0.039-26.205,0.766v2.967c0,0,10.759-3.471,25.819-1.36
		C585.404,154.025,595.057,157.987,600.923,160.058z"/>
	<linearGradient id="SVGID_2_" gradientUnits="userSpaceOnUse" x1="0" y1="140.1033" x2="564.1869" y2="140.1033">
		<stop  offset="0" style="stop-color:#B4BA56"/>
		<stop  offset="0.28" style="stop-color:#B7BD59"/>
		<stop  offset="0.5561" style="stop-color:#C0C464"/>
		<stop  offset="0.8298" style="stop-color:#CFD077"/>
		<stop  offset="1" style="stop-color:#DBD988"/>
	</linearGradient>
	<path class="st1" d="M0,144.864c0,0,40.733,18.881,73.989-15.105c20.191-20.634,29.794-8.865,34.222,3.568
		c2.61,7.328,3.437,15.15,2.946,22.914c-1.092,17.271-0.375,63.699,36.871,77.742c46.07,17.371,70.993-12.084,70.993-12.084
		s32.476-37.762,8.308-77.035s-44.853-52.867-37.531-75.525s34.51-22.657,34.51-22.657s59.664-9.818,50.602,52.112
		s-37.007,92.895-27.944,126.881c5.083,19.061,17.055,31.945,26.59,39.586c7.223,5.787,15.669,9.783,24.709,11.768
		c20.79,4.565,64.883,9.361,84.978-25.319c0,0,18.94-26.914,10.241-77.391c-9.362-54.327-26.434-49.091-15.105-77.79
		c11.329-28.699,30.656-19.823,32.369-11.544c1.74,8.411-8.201,55.967,12.191,71.14c20.392,15.173,63.441,15.173,63.441,15.173
		s8.308,15.86,40.028,6.042c31.72-9.818,37.762-16.752,37.762-21.215s0.755-8.995-7.552-16.547
		c-8.308-7.552-37.007-14.35-44.56-15.86c-7.552-1.51-18.881,2.266-24.923,9.063c0,0-46.07,13.594-36.252-30.21
		s-31.72-61.175-31.72-61.175s-40.783-19.636-67.217,18.126s-13.594,77.035-13.594,77.035s33.986,76.28,4.531,91.385
		c-29.455,15.105-41.437-2.266-41.437-2.266s-18.025-15.105,0-48.336s21.801-72.504,21.801-80.056
		c0-7.552-0.737-62.685-41.152-83.077S211.469,1.368,211.469,1.368s-58.154,8.308-68.727,64.951c0,0-12.839,40.549,30.965,73.897
		c0,0,22.178,17.934,22.129,43.132c-0.02,10.343-6.026,20.026-15.803,23.399c-7.836,2.704-20.095,1.134-30.482-12.63
		c-7.226-9.576-11.135-37.164-12.646-48.803s-3.981-45.009-36.456-45.009c0,0-17.516-1.57-45.315,30.21
		C55.133,130.515,37.762,148.641,0,144.864z"/>
	
		<radialGradient id="SVGID_3_" cx="543.4837" cy="135.8376" r="2.633" gradientTransform="matrix(0.9976 0.0695 -0.0486 0.6983 7.9193 3.2229)" gradientUnits="userSpaceOnUse">
		<stop  offset="0" style="stop-color:#EFEEED"/>
		<stop  offset="0.0085" style="stop-color:#E9E7E6"/>
		<stop  offset="0.1045" style="stop-color:#B4A6A2"/>
		<stop  offset="0.2059" style="stop-color:#8A746F"/>
		<stop  offset="0.3112" style="stop-color:#6A514B"/>
		<stop  offset="0.4214" style="stop-color:#523832"/>
		<stop  offset="0.538" style="stop-color:#412621"/>
		<stop  offset="0.6641" style="stop-color:#351B16"/>
		<stop  offset="0.8065" style="stop-color:#2E150F"/>
		<stop  offset="1" style="stop-color:#2C130D"/>
	</radialGradient>
	<ellipse class="st2" cx="542.456" cy="137.119" rx="4.613" ry="2.985"/>
	
		<radialGradient id="SVGID_4_" cx="543.4837" cy="166.4536" r="2.633" gradientTransform="matrix(0.9976 0.0695 -0.0486 0.6983 9.4082 12.4594)" gradientUnits="userSpaceOnUse">
		<stop  offset="0" style="stop-color:#EFEEED"/>
		<stop  offset="0.0085" style="stop-color:#E9E7E6"/>
		<stop  offset="0.1045" style="stop-color:#B4A6A2"/>
		<stop  offset="0.2059" style="stop-color:#8A746F"/>
		<stop  offset="0.3112" style="stop-color:#6A514B"/>
		<stop  offset="0.4214" style="stop-color:#523832"/>
		<stop  offset="0.538" style="stop-color:#412621"/>
		<stop  offset="0.6641" style="stop-color:#351B16"/>
		<stop  offset="0.8065" style="stop-color:#2E150F"/>
		<stop  offset="1" style="stop-color:#2C130D"/>
	</radialGradient>
	<ellipse class="st3" cx="542.456" cy="167.735" rx="4.613" ry="2.985"/>
</g>
</svg>
