<?xml version="1.0" encoding="utf-8"?>
<!-- Generator: Adobe Illustrator 21.0.2, SVG Export Plug-In . SVG Version: 6.00 Build 0)  -->
<svg version="1.1" id="Layer_1" xmlns="http://www.w3.org/2000/svg" xmlns:xlink="http://www.w3.org/1999/xlink" x="0px" y="0px"
	 viewBox="0 0 481 409.1" style="enable-background:new 0 0 481 409.1;" xml:space="preserve">
<style type="text/css">
	.st0{fill:url(#SVGID_1_);}
	.st1{fill:#FFFFFF;}
	.st2{fill:#FFFFFF;stroke:#FFFFFF;stroke-miterlimit:10;}
</style>
<g>
	<linearGradient id="SVGID_1_" gradientUnits="userSpaceOnUse" x1="238.2377" y1="82.821" x2="238.2377" y2="518.2542">
		<stop  offset="0" style="stop-color:#99D7F7"/>
		<stop  offset="0.1259" style="stop-color:#A2D0EF"/>
		<stop  offset="0.6952" style="stop-color:#C5B1CE"/>
		<stop  offset="1" style="stop-color:#D3A6C1"/>
	</linearGradient>
	<path class="st0" d="M416.8,137.2c0,0-61.4,58.5-23.1,146.6s72.6,108.9,72.6,108.9L87.2,406.3l-77-47.9L23.6,244l202-161.2
		L346,20.4l90.8,87.4L416.8,137.2z"/>
	<path class="st1" d="M46.1,344.3c2.6-8.5,18.6-7.3,18.6-13.6c0-6.4,2.3-5.9,10.5-8.2c8.2-2.3,5.9-3.6,0.5-11.8
		c-5.5-8.2,8.2-10.9,8.2-10.9c5-9.5-2.3-13.2-2.3-13.2s-13.2-4.1-25.9-0.4s-10.9-16.8-8.6-25.9s12.3-8.2,20.9-7.3
		c8.6,0.9,10-2.3,11.8-7.7c1.8-5.5,4.5-20.9,18.6-16.4s20.5-8.2,18.6-19.6s5.9-14,11.4-9.9c5.5,4.1,6.4,9.5,20,0
		c13.6-9.5,19.5-2.7,24.1,6.4s11.8,4.5,19.1-2.7s21.8-20,31.8-11.4c10,8.6,1.4,7.7,0.5,14.1c-0.9,6.4,14.1,5,18.6,3.6
		c4.5-1.4,4.5-2.2,7.3,0c2.7,2.2,3.2,9.6,14.5,13.3c11.4,3.6,12.7-8.6,12.7-13.3s-2.7-6.7-6.8-6.7s-8.6-6.4-2.7-10.2
		c5.9-3.9,6.4-6.1,5.9-8.4s-10.4-3.5-14.5-3.6c-7.8-0.3-9.1-5-1.4-8.6c7.7-3.6,10.5-5.5,11.4-8.2s-5-10.9-19.5-9.1
		c-14.5,1.8-19.1-4.1-24.1-15.5c-5-11.4-1.8-23.2,2.7-27.7c4.5-4.5,15.5-6.4,20.9-4.1s4.1,0.9,6.2-4.5c2.1-5.5,3.4-6.8,7.9-4.1
		c4.5,2.7,4.1,10,7.3,11.8c3.2,1.8,5-1.4,5-5.9c0-2.6-1.8-4.9-3.3-6.3c-1.7-1.7-2.7-4-2.4-6.3c1-7.2,9.9-4.5,13.4-4.2
		c4.1,0.5,2.7,18.6,7.7,18.6s4.1-3.4,4.1-8.4c0-3.7-3.8-5.1-2.5-7c1.8-2.6,5.8,1.7,6.1,0c0.6-3.3-11.4-9.1-13.2-12.7
		s0.5-11.4,8.2-12.3c7.7-0.9,8.2,11.4,8.2,15.5c0,4.1,6.8,5,9.1,1.8c2.3-3.2-1.4-7.7-2.3-12.7s10-4.5,14.5,1.4s15.5,10.5,20-2.3
		s10.5-18.2,21.8-15.9c11.4,2.3,0,16.4,3.6,20.9s8.2,0,11.4,5c3.2,5,2.3,15.5,10.5,19.5c8.2,4.1,14.5-2.7,16.4,2.3
		s-4.1,12.3,4.5,12.7c8.6,0.5,9.5,2.7,9.5,2.7c5,8.6-7.7,10.9-8.2,15c-0.5,4.1,5.2,8.5,9.1,4.7c3.1-3.1,3.9-5.7,8.2,0
		c6.4,8.6,7.5-0.2,12.3-2c4.1-1.5-1.8-8.2,3.6-5.9c5.5,2.3,12.3,7.7,11.8-3.2c-0.4-8.5,2.6-8.4,3.9-8c1.6,0.5,3.2,0.8,4.9,0.9
		c12.4,1.1,15.6-5.5,14.4-12.5c-1.4-7.7-16.8-12.7-22.7-15.5c-5.9-2.7-11-4.4-12.9-13.6c-1.7-8.3,20,13.4,20,6.2
		s-11.6-10.9-3.6-12.3c8-1.4,13.6,1.6,14.3-1.8c1.3-6.4-9.5-7.2-14.2-7.9c-6.4-1-6.7-12.6-1.2-9.4c9.7,5.6,18.1-0.4,11.8-2.4
		c-3.4-1.1-11.2-5.7-17.7-9.8c-5.6-3.5-10.4-8-14.6-13c-4.6-5.4-9.6-7.8-12.7-8.7c-1.6-0.5-3.4-0.4-4.9,0.3
		c-3,1.4-10.2,2.8-21.2-6.3C386.3-0.9,340.6,0,340.6,0s-85.1,1.8-151,85.1c-37.6,47.7-74.6,73-99.3,85.9
		C33.6,200.7-1.4,260.8,2.6,324.8c0.9,14.9,3.8,26.9,7.6,33.6c1.5,2.6,4.2,4.5,7.3,4.8C23.6,363.9,39.3,366.2,46.1,344.3z"/>
	<circle class="st2" cx="397.4" cy="110.2" r="4.4"/>
	<circle class="st2" cx="303.8" cy="90.7" r="2.4"/>
	<ellipse transform="matrix(0.5 -0.866 0.866 0.5 29.2239 284.0149)" class="st2" cx="260.6" cy="116.7" rx="3.2" ry="5.9"/>
	<ellipse class="st2" cx="277.3" cy="113.7" rx="2.7" ry="1.2"/>
	<ellipse class="st2" cx="272.5" cy="176.1" rx="4.9" ry="3.2"/>
	
		<ellipse transform="matrix(0.1227 -0.9924 0.9924 0.1227 -225.7303 358.4451)" class="st2" cx="89.9" cy="306.9" rx="3.5" ry="4.3"/>
	<ellipse transform="matrix(0.9661 -0.2583 0.2583 0.9661 -66.5598 24.5843)" class="st2" cx="60.3" cy="265.6" rx="6.4" ry="4.6"/>
	<circle class="st2" cx="144.8" cy="211.3" r="2.1"/>
	<ellipse transform="matrix(0.9594 -0.282 0.282 0.9594 -49.6127 65.7242)" class="st2" cx="203.5" cy="205.2" rx="5.6" ry="2.6"/>
	<ellipse class="st2" cx="126.6" cy="210.9" rx="3.1" ry="2.4"/>
</g>
</svg>
