<?xml version="1.0" encoding="utf-8"?>
<!-- Generator: Adobe Illustrator 21.0.2, SVG Export Plug-In . SVG Version: 6.00 Build 0)  -->
<svg version="1.1" id="Layer_1" xmlns="http://www.w3.org/2000/svg" xmlns:xlink="http://www.w3.org/1999/xlink" x="0px" y="0px"
	 viewBox="0 0 480.953 409.114" style="enable-background:new 0 0 480.953 409.114;" xml:space="preserve">
<style type="text/css">
	.st0{fill:url(#SVGID_1_);}
	.st1{fill:#FFFFFF;}
	.st2{fill:#FFFFFF;stroke:#FFFFFF;stroke-miterlimit:10;}
</style>
<g>
	<linearGradient id="SVGID_1_" gradientUnits="userSpaceOnUse" x1="351.7008" y1="402.2611" x2="80.3446" y2="49.8885">
		<stop  offset="0" style="stop-color:#00AEB0"/>
		<stop  offset="0.0435" style="stop-color:#00AEB0"/>
		<stop  offset="0.3078" style="stop-color:#00AEB0"/>
		<stop  offset="0.3822" style="stop-color:#2BB0B2"/>
		<stop  offset="0.4938" style="stop-color:#59B8B6"/>
		<stop  offset="0.6288" style="stop-color:#89C3BC"/>
		<stop  offset="0.7822" style="stop-color:#BAD3C5"/>
		<stop  offset="0.949" style="stop-color:#ECE4D0"/>
		<stop  offset="1" style="stop-color:#FBE9D4"/>
	</linearGradient>
	<path class="st0" d="M416.507,137.855c0,0-61.727,58.808-23.25,147.255s72.956,109.434,72.956,109.434L85.326,408.228
		L7.977,360.066l13.487-114.912L224.452,83.22l120.88-62.721l91.23,87.809L416.507,137.855z"/>
	<path class="st1" d="M44.07,345.919c2.653-8.569,18.726-7.308,18.726-13.702s2.284-5.938,10.505-8.221s5.938-3.654,0.457-11.875
		s8.221-10.962,8.221-10.962c5.024-9.591-2.284-13.272-2.284-13.272s-13.245-4.084-26.034-0.43s-10.962-16.899-8.678-26.034
		c2.284-9.135,12.332-8.221,21.01-7.308s10.048-2.284,11.875-7.764c1.827-5.481,4.567-21.01,18.726-16.442
		c14.159,4.567,20.553-8.221,18.726-19.711c-1.827-11.49,5.938-14.087,11.418-9.977c5.481,4.111,6.394,9.591,20.096,0
		c13.702-9.591,19.64-2.74,24.207,6.394c4.567,9.135,11.875,4.567,19.183-2.74c7.308-7.308,21.923-20.096,31.971-11.418
		c10.048,8.678,1.37,7.764,0.457,14.159c-0.913,6.394,14.159,5.024,18.726,3.582c4.567-1.442,4.567-2.212,7.308,0
		s3.197,9.663,14.615,13.317c11.418,3.654,12.789-8.678,12.789-13.317s-2.74-6.78-6.851-6.78s-8.678-6.394-2.74-10.292
		s6.394-6.15,5.938-8.434c-0.457-2.284-10.408-3.486-14.615-3.654c-7.811-0.311-9.135-5.024-1.37-8.678
		c7.764-3.654,10.505-5.481,11.418-8.221c0.913-2.74-5.024-10.962-19.639-9.135c-14.615,1.827-19.183-4.111-24.207-15.529
		c-5.024-11.418-1.827-23.293,2.74-27.861c4.567-4.567,15.529-6.394,21.01-4.111c5.481,2.284,4.111,0.913,6.18-4.567
		c2.07-5.481,3.411-6.851,7.979-4.111c4.567,2.74,4.111,10.048,7.308,11.875c3.197,1.827,5.024-1.37,5.024-5.938
		c0-2.588-1.76-4.876-3.285-6.373c-1.701-1.67-2.731-3.994-2.397-6.354c1.031-7.274,9.923-4.563,13.446-4.172
		c4.111,0.457,2.74,18.726,7.764,18.726c5.024,0,4.105-3.443,4.133-8.447c0.021-3.709-3.845-5.152-2.496-7.053
		c1.828-2.575,5.809,1.751,6.128-0.029c0.586-3.273-11.418-9.135-13.245-12.789c-1.827-3.654,0.457-11.418,8.221-12.332
		c7.764-0.913,8.221,11.418,8.221,15.529s6.851,5.024,9.135,1.827c2.284-3.197-1.37-7.764-2.284-12.789
		c-0.913-5.024,10.048-4.567,14.615,1.37s15.529,10.505,20.096-2.284s10.505-18.269,21.923-15.986
		c11.418,2.284,0,16.442,3.654,21.01c3.654,4.567,8.221,0,11.418,5.024c3.197,5.024,2.284,15.529,10.505,19.64
		s14.615-2.74,16.442,2.284c1.827,5.024-4.111,12.332,4.567,12.789c8.678,0.457,9.591,2.74,9.591,2.74
		c5.024,8.678-7.764,10.962-8.221,15.072c-0.457,4.111,5.207,8.555,9.135,4.723c3.164-3.088,3.949-5.709,8.221,0
		c6.472,8.648,7.516-0.195,12.332-1.982c4.116-1.527-1.827-8.221,3.654-5.938c5.481,2.284,12.332,7.764,11.875-3.197
		c-0.355-8.526,2.605-8.486,3.938-8.048c1.584,0.521,3.257,0.77,4.918,0.923c12.437,1.147,15.676-5.497,14.438-12.515
		c-1.37-7.764-16.899-12.789-22.837-15.529s-11.077-4.381-12.984-13.644c-1.714-8.327,20.123,13.475,20.123,6.2
		c0-7.275-11.639-10.912-3.637-12.367c8.002-1.455,13.701,1.649,14.404-1.813c1.315-6.469-9.563-7.191-14.22-7.9
		c-6.44-0.981-6.706-12.68-1.185-9.48c9.74,5.645,18.17-0.395,11.85-2.37c-3.387-1.058-11.24-5.748-17.8-9.872
		c-5.586-3.513-10.406-8.045-14.648-13.1c-4.587-5.467-9.6-7.8-12.775-8.786c-1.624-0.504-3.367-0.407-4.916,0.294
		c-3.053,1.381-10.256,2.771-21.259-6.29C385.833-0.868,339.98,0.014,339.98,0.014s-85.534,1.764-151.668,85.534
		c-37.821,47.907-74.905,73.308-99.725,86.277c-57.09,29.83-92.241,90.172-88.284,154.463c0.923,15.001,3.783,27.069,7.675,33.777
		c1.543,2.66,4.233,4.473,7.287,4.835C21.474,365.639,37.266,367.899,44.07,345.919z"/>
	<circle class="st2" cx="396.994" cy="110.752" r="4.387"/>
	<circle class="st2" cx="302.92" cy="91.091" r="2.437"/>
	
		<ellipse transform="matrix(0.5 -0.866 0.866 0.5 28.2292 283.3908)" class="st2" cx="259.538" cy="117.248" rx="3.248" ry="5.882"/>
	<ellipse class="st2" cx="276.351" cy="114.285" rx="2.681" ry="1.178"/>
	<ellipse class="st2" cx="271.544" cy="176.971" rx="4.964" ry="3.252"/>
	
		<ellipse transform="matrix(0.1227 -0.9924 0.9924 0.1227 -228.7798 357.8851)" class="st2" cx="88.046" cy="308.351" rx="3.531" ry="4.35"/>
	
		<ellipse transform="matrix(0.9661 -0.2583 0.2583 0.9661 -66.95 24.115)" class="st2" cx="58.297" cy="266.843" rx="6.402" ry="4.659"/>
	<circle class="st2" cx="143.207" cy="212.281" r="2.083"/>
	
		<ellipse transform="matrix(0.9594 -0.282 0.282 0.9594 -49.9382 65.3949)" class="st2" cx="202.193" cy="206.167" rx="5.658" ry="2.578"/>
	<ellipse class="st2" cx="124.915" cy="211.914" rx="3.111" ry="2.45"/>
</g>
</svg>
