<?xml version="1.0" encoding="utf-8"?>
<!-- Generator: Adobe Illustrator 21.0.2, SVG Export Plug-In . SVG Version: 6.00 Build 0)  -->
<svg version="1.1" id="Layer_1" xmlns="http://www.w3.org/2000/svg" xmlns:xlink="http://www.w3.org/1999/xlink" x="0px" y="0px"
	 viewBox="0 0 481 249.8" style="enable-background:new 0 0 481 249.8;" xml:space="preserve">
<style type="text/css">
	.st0{fill:url(#SVGID_1_);}
	.st1{fill:url(#SVGID_2_);}
	.st2{fill:url(#SVGID_3_);}
	.st3{fill:url(#SVGID_4_);}
	.st4{fill:url(#SVGID_5_);}
	.st5{fill:url(#SVGID_6_);}
	.st6{fill:#2F0D00;}
	.st7{fill:#FFFFFF;}
	.st8{fill:#3D5360;}
	.st9{fill:url(#SVGID_7_);}
</style>
<g>
	<g>
		<linearGradient id="SVGID_1_" gradientUnits="userSpaceOnUse" x1="232.1985" y1="127.7485" x2="205.6703" y2="-29.8675">
			<stop  offset="0" style="stop-color:#1C2C34"/>
			<stop  offset="0.2276" style="stop-color:#283D46"/>
			<stop  offset="0.6795" style="stop-color:#496873"/>
			<stop  offset="1" style="stop-color:#628A97"/>
		</linearGradient>
		<path class="st0" d="M471.7,128.1c-14.2-1.3-34-13.7-59.7-16.3c-25.8-2.6-46.7-0.7-46.7-0.7s-15,26.1-49.5,17.7
			c-0.9-0.2-1.2-1.5-0.5-2.1c2-1.7,4.9-4.6,5.1-7.7c0,0-87.8,8.7-102.7,11.2c-14.9,2.6-33.2,6.9-41.8,10.8
			c-4.8,2.2-36.2,13.8-63.1,36.6c-26.9,22.8-33.6,29.2-33.6,29.2s-7.5,4.5-2.2,15.3c5.2,10.8,9.7,20.5,7.8,27.3
			c0,0-16.8-19.8-29.5-25c-12.3-5.1-53,8.6-55.2,9.3c1.5-1.5,26.5-25.5,51.1-28.3c0,0,12.7-2.6,16.1-15.3c3.4-12.7,31-71,81-104.2
			c0,0,4.1-2.3,9.7-6.2c0,0,0,0,0.2-0.2c6-4.1,13.7-9.8,20.5-16.4c0,0,0.1,0,0.1-0.1c9.3-9.2,16.7-19.9,14.7-29.8
			c0,0-1.5-10.8-15.7-19.8c-14.2-9-9.3-12.3-5.2-12.3c4.1,0,30.7,3.2,43,12.7c8.9,6.9,18.9,12.2,25.7,14.4c3.2,1.1,6.6,1.5,10,1.2
			c0.7-0.1,1.5-0.2,2.2-0.3c1.1-0.2,2.5-0.5,4-0.8c2.8-0.6,15.6-3.2,33.1-5.2c0.2,0,0.5,0,0.8-0.1h0.1c31.9-3.5,78.7-4.6,108.3,13.1
			c0,0,9.3,3,27.3,14.6c17.9,11.6,34,31.7,31.7,47.4c0,0,12.3,7.9,17.2,12.7C480.7,115.6,485.9,129.5,471.7,128.1z"/>
		<linearGradient id="SVGID_2_" gradientUnits="userSpaceOnUse" x1="204.9102" y1="24.8093" x2="233.216" y2="145.8141">
			<stop  offset="0" style="stop-color:#1C2C34"/>
			<stop  offset="0.2276" style="stop-color:#283D46"/>
			<stop  offset="0.6795" style="stop-color:#496873"/>
			<stop  offset="1" style="stop-color:#628A97"/>
		</linearGradient>
		<path class="st1" d="M475.3,128.1c-0.5,0.1-0.9,0.1-1.4,0.1c-0.7,0-1.4,0-2.1-0.1c-14.2-1.3-34-13.7-59.7-16.3
			c-25.8-2.6-46.7-0.7-46.7-0.7l0,0c-0.8,1.4-15.9,25.8-49.4,17.6c-0.9-0.2-1.2-1.5-0.5-2.1c2-1.7,4.9-4.6,5.1-7.7
			c0,0-87.8,8.7-102.7,11.2c-14.9,2.6-33.2,6.9-41.8,10.8c-4.8,2.2-36.2,13.8-63.1,36.6c-26.9,22.8-33.6,29.2-33.6,29.2
			s-7.5,4.5-2.2,15.3c5.2,10.8,9.7,20.5,7.8,27.3c0,0-16.8-19.8-29.5-25c-12.3-5.1-53,8.6-55.2,9.3c1.5-1.5,26.5-25.5,51.1-28.3
			c0,0,12.7-2.6,16.1-15.3c3.4-12.7,31-71,81-104.2c0,0,9.6-8,15.3-11.9L178.7,63c0,0,41-25.5,72.5-33.7c12.1-3.2,25.3-5.4,39.3-6.3
			c0.2,0,0.5,0,0.7,0l0.1,0h0.1c31.9-3.5,78.7-4.6,108.3,13.1c0,0,0.1,0,0.1,0l0.3,0.1c1.6,0.6,7.5,2.9,17.5,8.7
			c2.8,1.6,5.9,3.5,9.3,5.7c17.2,11.1,32.8,30.2,31.9,45.5c0,0.6-0.1,1.2-0.2,1.8c0,0,12.3,7.9,17.2,12.7
			C480.3,115.1,484.9,126.9,475.3,128.1z"/>
	</g>
	<linearGradient id="SVGID_3_" gradientUnits="userSpaceOnUse" x1="356.1645" y1="81.3198" x2="324.0867" y2="157.1329">
		<stop  offset="0" style="stop-color:#1C2C34"/>
		<stop  offset="0.2276" style="stop-color:#283D46"/>
		<stop  offset="0.6795" style="stop-color:#496873"/>
		<stop  offset="1" style="stop-color:#628A97"/>
	</linearGradient>
	<path class="st2" d="M365.3,111.1L365.3,111.1c-0.8,1.4-15.9,25.9-49.5,17.7c-0.9-0.2-1.2-1.5-0.5-2.1c2-1.7,4.9-4.6,5.1-7.7
		c0,0,4.2-18.6,39.6-18.6C360.1,100.3,368.7,100.9,365.3,111.1z"/>
	<linearGradient id="SVGID_4_" gradientUnits="userSpaceOnUse" x1="451.1331" y1="65.8609" x2="413.299" y2="81.9953">
		<stop  offset="0" style="stop-color:#FFFFFF"/>
		<stop  offset="6.866252e-02" style="stop-color:#EDF1F3"/>
		<stop  offset="0.2051" style="stop-color:#C0CDD3"/>
		<stop  offset="0.2622" style="stop-color:#ABBCC4"/>
		<stop  offset="0.934" style="stop-color:#698F9B"/>
		<stop  offset="1" style="stop-color:#628A97"/>
	</linearGradient>
	<path class="st3" d="M458.8,96.2c0,0.6-0.1,1.2-0.2,1.8l-0.8-0.5c0,0,5.4-24.5-40.5-52.7l0.3,0c2.8,1.6,5.9,3.5,9.3,5.7
		C444.1,61.8,459.7,80.8,458.8,96.2z"/>
	
		<linearGradient id="SVGID_5_" gradientUnits="userSpaceOnUse" x1="443.4287" y1="79.3826" x2="399.8782" y2="97.9548" gradientTransform="matrix(1 -3.408416e-03 3.408416e-03 1 -1.0215 0.7251)">
		<stop  offset="0" style="stop-color:#FFFFFF"/>
		<stop  offset="6.866252e-02" style="stop-color:#EDF1F3"/>
		<stop  offset="0.2051" style="stop-color:#C0CDD3"/>
		<stop  offset="0.2622" style="stop-color:#ABBCC4"/>
		<stop  offset="0.934" style="stop-color:#698F9B"/>
		<stop  offset="1" style="stop-color:#628A97"/>
	</linearGradient>
	<path class="st4" d="M415.7,82.6c0,0,6,1.8,8.3,2.5c2.4,0.7,3.1,2.1,5.6,3.3s7.5,1.6,9.3,0c1.9-1.6,3.9-4.8,1.6-8.1
		s-8.2-3.2-8.2-3.2S422.2,77.8,415.7,82.6z"/>
	
		<linearGradient id="SVGID_6_" gradientUnits="userSpaceOnUse" x1="440.0575" y1="69.0412" x2="405.7888" y2="83.6551" gradientTransform="matrix(0.9999 1.525033e-02 -1.525033e-02 0.9999 4.7041 -2.4422)">
		<stop  offset="0" style="stop-color:#FFFFFF"/>
		<stop  offset="6.866252e-02" style="stop-color:#EDF1F3"/>
		<stop  offset="0.2051" style="stop-color:#C0CDD3"/>
		<stop  offset="0.2622" style="stop-color:#ABBCC4"/>
		<stop  offset="0.934" style="stop-color:#698F9B"/>
		<stop  offset="1" style="stop-color:#628A97"/>
	</linearGradient>
	<path class="st5" d="M422.1,75.3c0,0,16.9-1,20.4,2.7l1.6,2c0,0-1.4-6.4-5.9-6.7C433.8,72.9,427.7,73.1,422.1,75.3z"/>
	<path class="st6" d="M423.6,83.2c0,0,9.4,6.3,13.8,2.8c4.2-3.4-0.6-6.3-0.6-6.3s-2.3-1.2-8.8,1.6C423.6,83.2,423.6,83.2,423.6,83.2
		z"/>
	<circle class="st7" cx="430.4" cy="85.2" r="1.3"/>
	<circle class="st7" cx="435.8" cy="82.6" r="1.3"/>
	<path class="st8" d="M114.3,125.1c0,0,83.8-104.3,242.4-95.3c0,0,4.8,3.2-1.3,4C355.4,33.9,232.5,10.5,114.3,125.1z"/>
	<path class="st7" d="M19.1,221.8c0,0,14.5-12,32.6-13.2c0,0,1.2-0.2,1.4,0.4c0.3,0.8-0.4,0.8-0.8,0.8C43.6,211,37.1,210,19.1,221.8
		z"/>
	<path class="st7" d="M355.1,119.7c0,0-16.3,9.4-34.3,7.5c0,0-1.3,0-1.3-0.6c-0.1-0.9,0.5-0.7,0.9-0.7
		C329.1,126.3,335.3,128.3,355.1,119.7z"/>
	<path class="st7" d="M463.3,105.3c0,0,8.6,3.3,13.5,10.8c0,0,0.4,0.5,0.2,0.7c-0.3,0.3-0.4,0-0.5-0.1
		C473.9,113.2,472.7,110.2,463.3,105.3z"/>
	<linearGradient id="SVGID_7_" gradientUnits="userSpaceOnUse" x1="471.3923" y1="112.5948" x2="426.8067" y2="131.6085">
		<stop  offset="0" style="stop-color:#FFFFFF"/>
		<stop  offset="6.866252e-02" style="stop-color:#EDF1F3"/>
		<stop  offset="0.2051" style="stop-color:#C0CDD3"/>
		<stop  offset="0.2622" style="stop-color:#ABBCC4"/>
		<stop  offset="0.934" style="stop-color:#698F9B"/>
		<stop  offset="1" style="stop-color:#628A97"/>
	</linearGradient>
	<path class="st9" d="M475.3,128.1c-0.5,0.1-0.9,0.1-1.4,0.1c-21.3-7.4-32.1-18.1-33.5-19.6C450.4,118,466.3,124.8,475.3,128.1z"/>
</g>
</svg>
