<?xml version="1.0" encoding="utf-8"?>
<!-- Generator: Adobe Illustrator 21.0.2, SVG Export Plug-In . SVG Version: 6.00 Build 0)  -->
<svg version="1.1" id="Layer_1" xmlns="http://www.w3.org/2000/svg" xmlns:xlink="http://www.w3.org/1999/xlink" x="0px" y="0px"
	 viewBox="0 0 361.146 391.879" style="enable-background:new 0 0 361.146 391.879;" xml:space="preserve">
<style type="text/css">
	.st0{fill:url(#SVGID_1_);}
	.st1{fill:url(#SVGID_2_);}
	.st2{fill:url(#SVGID_3_);}
	.st3{fill:url(#SVGID_4_);}
	.st4{fill:url(#SVGID_5_);}
	.st5{fill:url(#SVGID_6_);}
	.st6{fill:#057452;}
	.st7{fill:url(#SVGID_7_);}
	.st8{fill:url(#SVGID_8_);}
	.st9{fill:#7D4930;}
	.st10{fill:url(#SVGID_9_);}
	.st11{fill:#54180C;}
</style>
<g>
	<linearGradient id="SVGID_1_" gradientUnits="userSpaceOnUse" x1="162.4206" y1="391.8789" x2="162.4206" y2="108.3753">
		<stop  offset="0" style="stop-color:#7D4930"/>
		<stop  offset="0.821" style="stop-color:#AD805C"/>
		<stop  offset="1" style="stop-color:#B98E68"/>
	</linearGradient>
	<path class="st0" d="M187.289,366.051c0,0-7.47,17.761-28.859,23.809c-2.143,0.615-4.435,1.103-6.875,1.464
		c-9.167,1.294-20.456,0.467-34.143-4.032c0,0,58.313-64.785,63.215-255.809c0-1.549-12.605-5.56-12.605-5.56l14.43-1.825
		l0.679-15.724c0,0,4.287,4.435,8,13.793c0.467,1.146,0.913,2.355,1.337,3.65c1.91,5.708,3.374,13.984,3.374,13.984l1.549-5.05
		c1.316-6.09,1.974-12.329,1.974-18.568v-3.459c3.437,3.841,6.472,24.212,7.533,32.191c0.276,2.037,0.425,4.053,0.446,6.111
		c0.021,2.292,0.042,4.626,0.063,7.024C207.745,219.59,204.732,309.139,187.289,366.051z"/>
	<linearGradient id="SVGID_2_" gradientUnits="userSpaceOnUse" x1="125.2424" y1="235.3603" x2="170.4327" y2="50.6456">
		<stop  offset="0" style="stop-color:#02A65A"/>
		<stop  offset="0.0777" style="stop-color:#02A65E"/>
		<stop  offset="0.3078" style="stop-color:#02A760"/>
		<stop  offset="0.3784" style="stop-color:#01A35C"/>
		<stop  offset="0.7749" style="stop-color:#01914D"/>
		<stop  offset="1" style="stop-color:#028A47"/>
	</linearGradient>
	<path class="st1" d="M180.626,121.256L160,123.781l17.74,10.016c0,0-4.032,43.544-10.377,53.581l-20.435-14.621l15.491,23.406
		l-4.435,8.276l-15.066-11.713l11.056,23.766c0,0-20.053,18.695-25.082,19.756h-0.021c0,0-12.52-13.05-11.459-67.607l10.122-9.04
		h-10.186l1.804-20.435l14.727-8.7l-10.695-3.31l13.05-4.371l-14.069-4.032l7.024-20.074l15.066-3.353L131.14,92.29
		c0,0,15.618-41.719,35.034-42.525c0.191-0.021,0.382-0.021,0.573-0.021c0,0,10.101,5.029,10.738,16.191l-9.783,6.599h9.783
		l3.141,17.634l-18.207,2.61l18.207,3.544C180.626,96.322,181.178,116.906,180.626,121.256z"/>
	<linearGradient id="SVGID_3_" gradientUnits="userSpaceOnUse" x1="46.0442" y1="161.8914" x2="132.694" y2="37.791">
		<stop  offset="0" style="stop-color:#02A65A"/>
		<stop  offset="0.0777" style="stop-color:#02A65E"/>
		<stop  offset="0.3078" style="stop-color:#02A760"/>
		<stop  offset="0.3784" style="stop-color:#01A35C"/>
		<stop  offset="0.7749" style="stop-color:#01914D"/>
		<stop  offset="1" style="stop-color:#028A47"/>
	</linearGradient>
	<path class="st2" d="M157.644,49.468c-17.74,12.392-42.164,45.857-42.164,45.857l-9.04-14.387l7.363,18.398l-8.043,10.716
		L89.358,88.301l7.045,32.806l-15.066,18.737l-17.401-12.69l11.714,22.79l-5.369,3.947l-10.377-12.711l2.016,24.764l-18.058,33.804
		c-0.021,0.021-0.021,0.021-0.021,0.021C31.13,26.041,157.644,49.468,157.644,49.468z"/>
	<linearGradient id="SVGID_4_" gradientUnits="userSpaceOnUse" x1="0.9741" y1="38.4242" x2="158.1613" y2="41.1785">
		<stop  offset="0" style="stop-color:#02A65A"/>
		<stop  offset="0.0777" style="stop-color:#02A65E"/>
		<stop  offset="0.3078" style="stop-color:#02A760"/>
		<stop  offset="0.3784" style="stop-color:#01A35C"/>
		<stop  offset="0.7749" style="stop-color:#01914D"/>
		<stop  offset="1" style="stop-color:#028A47"/>
	</linearGradient>
	<path class="st3" d="M162.419,43.123c0,0-44.265,3.331-54.981,8.021l-3.013-11.035l-1.337,11.035l-13.729,8.361L67.607,40.11
		l6.027,19.395l-15.066,1.676V41.447l-11.374,17.74l-14.387,1.995l3.331-23.427L20.753,59.187L0,61.182c0,0,0.021-0.021,0.021-0.042
		c0.594-1.422,21.475-50.058,93.687-43.459C93.708,17.68,138.079,23.028,162.419,43.123z"/>
	<linearGradient id="SVGID_5_" gradientUnits="userSpaceOnUse" x1="345.2598" y1="23.5429" x2="193.9675" y2="61.4282">
		<stop  offset="0" style="stop-color:#02A65A"/>
		<stop  offset="0.0777" style="stop-color:#02A65E"/>
		<stop  offset="0.3078" style="stop-color:#02A760"/>
		<stop  offset="0.3784" style="stop-color:#01A35C"/>
		<stop  offset="0.7749" style="stop-color:#01914D"/>
		<stop  offset="1" style="stop-color:#028A47"/>
	</linearGradient>
	<path class="st4" d="M361.146,67.887l-37.814-11.395l-8.043-23.745l-6.345,20.074l-17.74-3.013l-1.676-19.077l-11.374,17.676
		l-7.045-0.828l-1.676-19.204l-15.385,15.066c-4.69-1.676-20.414-6.026-20.414-6.026V26.041l-5.029,10.716
		c-16.34-4.626-47.427,6.642-52.244,8.467c-0.424,0.149-0.637,0.233-0.637,0.233s25.762-51.544,97.74-44.859
		c54.026,5.029,85.581,63.3,87.576,67.098c0,0,0.021,0.021,0.021,0.042C361.124,67.845,361.146,67.887,361.146,67.887z"/>
	<linearGradient id="SVGID_6_" gradientUnits="userSpaceOnUse" x1="291.918" y1="120.2095" x2="184.5617" y2="32.3561">
		<stop  offset="0" style="stop-color:#02A65A"/>
		<stop  offset="0.0777" style="stop-color:#02A65E"/>
		<stop  offset="0.3078" style="stop-color:#02A760"/>
		<stop  offset="0.3784" style="stop-color:#01A35C"/>
		<stop  offset="0.7749" style="stop-color:#01914D"/>
		<stop  offset="1" style="stop-color:#028A47"/>
	</linearGradient>
	<path class="st5" d="M306.716,177.489c-0.276,0.785-0.446,1.188-0.446,1.188l-11.735-28.732l5.029-15.448l-9.698,3.671
		l-15.406-12.711l5.029-31.809l-14.069,21.432l-9.697-5.772l15.385-22.005l-27.034,11.035L225.931,84.29l9.379-25.103l-15.745,17.74
		l11.056-20.435L208.849,70.9c0,0-24.764-10.058-33.125-17.422c0,0,0.446-0.276,1.273-0.764
		c8.891-5.135,62.981-33.209,106.164,15.172C326.387,116.333,309.814,168.98,306.716,177.489z"/>
	<path class="st6" d="M256.5,44.705l10.712-10.762l1.226,14.982c0,0,8.837,1.542,10.947,2.759l8.44-15.014V52.09
		c0,0,13.066,9.657,15.095,20.694c0,0-10.631-4.937-16.961-4.903C285.959,67.882,267.537,45.923,256.5,44.705z"/>
	<linearGradient id="SVGID_7_" gradientUnits="userSpaceOnUse" x1="225.5206" y1="167.8351" x2="225.5206" y2="62.9632">
		<stop  offset="0" style="stop-color:#02A65A"/>
		<stop  offset="0.0777" style="stop-color:#02A65E"/>
		<stop  offset="0.3078" style="stop-color:#02A760"/>
		<stop  offset="0.3784" style="stop-color:#01A35C"/>
		<stop  offset="0.7749" style="stop-color:#01914D"/>
		<stop  offset="1" style="stop-color:#028A47"/>
	</linearGradient>
	<path class="st7" d="M208.533,73.481l15.548-10.518l-7.774,14.786l3.353,2.744l10.518-11.737l-7.164,16.767l7.164,5.183
		l7.774,17.529l-11.585,10.67H241v6.402l-10.365,7.469h14.024c0,0,3.963,5.03,2.591,35.059c0,0-19.206-12.499-25.608-21.188
		l3.811-14.481l-9.146,7.012l-7.164-7.164c0,0-2.286-18.444-5.64-21.95c0,0,13.566,9.603,14.328,23.322
		c0,0,2.818-34.906-10.404-48.625c0,0,6.289,2.129,7.813,5.409C215.24,90.17,214.299,78.662,208.533,73.481z"/>
	<path class="st6" d="M203.503,81.255h5.03c-2.861-9.027-11.585-8.47-11.585-8.47c1.219,1.133,1.372,2.525,1.372,2.525
		c-4.878-3.811-12.347-3.963-12.347-3.963s17.529,15.453,15.032,32.838c0,0,8.36,2.615,15.591,20.616l-0.923-13.385
		c-1.626-10.336-5.939-18.699-10.937-27.891L203.503,81.255z"/>
	<linearGradient id="SVGID_8_" gradientUnits="userSpaceOnUse" x1="185.3648" y1="135.2947" x2="185.3648" y2="72.7846">
		<stop  offset="0" style="stop-color:#02A65A"/>
		<stop  offset="0.0777" style="stop-color:#02A65E"/>
		<stop  offset="0.3078" style="stop-color:#02A760"/>
		<stop  offset="0.3784" style="stop-color:#01A35C"/>
		<stop  offset="0.7749" style="stop-color:#01914D"/>
		<stop  offset="1" style="stop-color:#028A47"/>
	</linearGradient>
	<path class="st8" d="M181.672,72.785l0.769,17.385l-11.077,2.785l11.077,3.231v8.923c0,0,11.279,12.862,13.562,30.186
		c0,0,7.499-25.231-5.562-45.125c0,0,5.385,4.785,8.923,17.246C199.365,107.416,199.365,79.108,181.672,72.785z"/>
	<path class="st6" d="M162.419,43.123C58.568-4.855,1.634,59.293,0.021,61.139c0.594-1.422,21.475-50.058,93.687-43.459
		C93.708,17.68,138.079,23.028,162.419,43.123z"/>
	<path class="st6" d="M157.644,49.468c-20.371,4.944-43.289,3.904-76.435,37.39c-20.35,20.562-33.867,92.456-37.348,112.891
		c-0.021,0.021-0.021,0.021-0.021,0.021C31.13,26.041,157.644,49.468,157.644,49.468z"/>
	<path class="st6" d="M166.175,49.765c-5.941,21.093-34.652,125.878-37.284,186.483h-0.021c0,0-12.52-13.05-11.459-67.607
		l10.122-9.04h-10.186l1.804-20.435l14.727-8.7l-10.695-3.31l13.05-4.371l-14.069-4.032l7.024-20.074l15.066-3.353L131.14,92.29
		C131.14,92.29,146.759,50.572,166.175,49.765z"/>
	<path class="st6" d="M306.716,177.489c-0.276,0.785-0.446,1.188-0.446,1.188l-11.735-28.732l5.029-15.448l-9.698,3.671
		l-15.406-12.711l5.029-31.809l-14.069,21.432l-9.697-5.772l15.385-22.005l-27.034,11.035L225.931,84.29l9.379-25.103l-15.745,17.74
		l11.056-20.435L208.849,70.9c0,0-24.764-10.058-33.125-17.422c0,0,0.446-0.276,1.273-0.764
		c15.342-2.525,78.027-8.934,110.748,47.109C300.074,120.938,307.352,138.826,306.716,177.489z"/>
	<path class="st6" d="M361.146,67.887l-37.814-11.395l-8.043-23.745l-6.345,20.074l-17.74-3.013l-1.676-19.077l-11.374,17.676
		l-7.045-0.828l-1.676-19.204l-15.385,15.066c-4.69-1.676-20.414-6.026-20.414-6.026V26.041l-5.029,10.716
		c-16.34-4.626-47.427,6.642-52.244,8.467c16.444-14.243,53.39-30.26,94.748-29.963c43.119,0.276,79.576,40.021,89.931,52.435
		c0,0,0.021,0.021,0.021,0.042C361.124,67.845,361.146,67.887,361.146,67.887z"/>
	<path class="st9" d="M180.626,302.582c-4.138,35.204-19.247,67.607-29.071,88.743c-9.167,1.294-20.456,0.467-34.143-4.032
		c0,0,58.313-64.785,63.215-255.809c0-1.549-12.605-5.56-12.605-5.56l14.43-1.825l0.679-15.724c0,0,4.287,4.435,8,13.793
		C192.148,150.794,191.681,208.322,180.626,302.582z"/>
	<linearGradient id="SVGID_9_" gradientUnits="userSpaceOnUse" x1="207.4265" y1="149.7859" x2="207.4265" y2="99.8161">
		<stop  offset="0" style="stop-color:#683716"/>
		<stop  offset="0.1648" style="stop-color:#6E3C1B"/>
		<stop  offset="0.4239" style="stop-color:#7F4E29"/>
		<stop  offset="0.7428" style="stop-color:#9C6D46"/>
		<stop  offset="1" style="stop-color:#B98E68"/>
	</linearGradient>
	<circle class="st10" cx="207.426" cy="124.801" r="24.985"/>
	<circle class="st11" cx="201.434" cy="109.361" r="2.069"/>
	<circle class="st11" cx="207.97" cy="111.953" r="2.069"/>
	
		<ellipse transform="matrix(0.378 -0.9258 0.9258 0.378 31.8063 257.3342)" class="st11" cx="207.426" cy="104.995" rx="2.985" ry="2.985"/>
</g>
</svg>
