<?xml version="1.0" encoding="utf-8"?>
<!-- Generator: Adobe Illustrator 21.0.2, SVG Export Plug-In . SVG Version: 6.00 Build 0)  -->
<svg version="1.1" id="Layer_1" xmlns="http://www.w3.org/2000/svg" xmlns:xlink="http://www.w3.org/1999/xlink" x="0px" y="0px"
	 viewBox="0 0 660.557 312.383" style="enable-background:new 0 0 660.557 312.383;" xml:space="preserve">
<style type="text/css">
	.st0{fill:#E83E2F;}
	.st1{fill:url(#SVGID_1_);}
	.st2{fill:url(#SVGID_2_);}
	.st3{fill:url(#SVGID_3_);}
	.st4{fill:#69726F;}
	.st5{fill:url(#SVGID_4_);}
	.st6{fill:url(#SVGID_5_);}
	.st7{fill:#020203;}
	.st8{fill:url(#SVGID_6_);}
	.st9{fill:url(#SVGID_7_);}
	.st10{fill:url(#SVGID_8_);}
	.st11{fill:url(#SVGID_9_);}
	.st12{fill:url(#SVGID_10_);}
	.st13{fill:url(#SVGID_11_);}
	.st14{fill:url(#SVGID_12_);}
</style>
<g>
	<path class="st0" d="M641.071,84.356c0,0,26.737,61.355,17.573,94.005c0,0-24.97-72.226-46.242-73.71L641.071,84.356z"/>
	<linearGradient id="SVGID_1_" gradientUnits="userSpaceOnUse" x1="467.933" y1="77.8609" x2="644.4705" y2="77.8609">
		<stop  offset="0" style="stop-color:#FBCFA9"/>
		<stop  offset="0.4604" style="stop-color:#FDE5D0"/>
		<stop  offset="0.9949" style="stop-color:#FFFFFF"/>
	</linearGradient>
	<path class="st1" d="M507.168,47.923c10.62-0.695,32.912-4.783,61.721-24.56c2.455-1.685,5.104-3.051,7.927-3.998
		c11.664-3.909,41.405-10.696,55.856,15.261c6.656,11.956,9.906,22.299,11.351,30.611c2.292,13.189-4.389,26.261-16.229,32.508
		c-4.475,2.361-9.697,4.807-15.392,6.906c-13.319,4.909-30.614,5.558-39.711,11.246c-20.949,13.098-39.285,36.098-76.231,16.952
		c-1.661-0.861-3.231-1.903-4.693-3.07c-10.482-8.368-48.058-43.01,0.205-76.568C496.452,50.096,501.724,48.279,507.168,47.923z"/>
	<linearGradient id="SVGID_2_" gradientUnits="userSpaceOnUse" x1="382.5853" y1="234.2638" x2="511.8195" y2="234.2638">
		<stop  offset="0" style="stop-color:#FFD004"/>
		<stop  offset="0.7618" style="stop-color:#FAB312"/>
		<stop  offset="0.9949" style="stop-color:#F8A815"/>
	</linearGradient>
	<polygon class="st2" points="406.533,169.314 511.82,312.568 496.703,312.568 382.585,155.96 	"/>
	<linearGradient id="SVGID_3_" gradientUnits="userSpaceOnUse" x1="382.5853" y1="241.5479" x2="395.9394" y2="241.5479">
		<stop  offset="0" style="stop-color:#FFD004"/>
		<stop  offset="0.7618" style="stop-color:#FAB312"/>
		<stop  offset="0.9949" style="stop-color:#F8A815"/>
	</linearGradient>
	<polygon class="st3" points="382.585,170.528 382.585,312.568 395.939,312.568 393.201,170.528 	"/>
	<path class="st4" d="M173.77,47.018c-5.769,0-11.401-0.028-16.841-0.055h-0.359c-23.3-28.546-27.193-35.475-27.193-35.475
		l33.653-2.043l10.711,37.518L173.77,47.018z"/>
	<linearGradient id="SVGID_4_" gradientUnits="userSpaceOnUse" x1="29.2326" y1="78.4328" x2="246.8142" y2="78.4328">
		<stop  offset="0" style="stop-color:#CFCFA9"/>
		<stop  offset="0.6224" style="stop-color:#D2D2C6"/>
		<stop  offset="0.9949" style="stop-color:#D4D3D7"/>
	</linearGradient>
	<path class="st5" d="M246.814,62.321L29.307,65.83c0,0-9.712,28.714,193.028,28.714L246.814,62.321z"/>
	<linearGradient id="SVGID_5_" gradientUnits="userSpaceOnUse" x1="0.9373" y1="29.492" x2="156.9297" y2="29.492">
		<stop  offset="0" style="stop-color:#CFCFA9"/>
		<stop  offset="0.6224" style="stop-color:#D2D2C6"/>
		<stop  offset="0.9949" style="stop-color:#D4D3D7"/>
	</linearGradient>
	<path class="st6" d="M129.378,11.487L0.947,20.701c0,0-4.131,31.225,155.982,26.262L129.378,11.487z"/>
	<circle class="st7" cx="614.094" cy="76.94" r="7.416"/>
	<linearGradient id="SVGID_6_" gradientUnits="userSpaceOnUse" x1="129.3778" y1="93.5523" x2="540.7729" y2="93.5523">
		<stop  offset="0" style="stop-color:#A07661"/>
		<stop  offset="0.6902" style="stop-color:#987348"/>
		<stop  offset="0.9949" style="stop-color:#95723B"/>
	</linearGradient>
	<path class="st8" d="M533.133,139.005c-4.417,10.215-10.822,20.402-19.436,30.313c-48.561,55.849-264.779-33.846-313.202-76.5
		c-19.878-17.503-32.356-31.693-43.923-45.855c-23.3-28.546-27.193-35.475-27.193-35.475l33.653-2.043l45.939-2.816
		c0,0,0.442-0.028,1.325-0.11c3.561-0.304,14.052-1.187,29.07-2.236c63.662-4.334,208.518-11.126,248.851,13.279
		C531.144,43.511,553.562,91.658,533.133,139.005z"/>
	<linearGradient id="SVGID_7_" gradientUnits="userSpaceOnUse" x1="357.3447" y1="71.1814" x2="499.7052" y2="71.1814">
		<stop  offset="0" style="stop-color:#CCAD71"/>
		<stop  offset="0.9949" style="stop-color:#AB8D4D"/>
	</linearGradient>
	<path class="st9" d="M533.133,139.005c-26.641,4.362-70.509,5.853-141.1-4.169C288.395,120.121,229.536,38.321,210.295,6.518
		c9.11-0.801,63.745-5.383,123.073-6.322c6.267-0.11,12.589-0.166,18.938-0.193c56.318-0.083,112.997,3.699,135.91,17.558
		C531.144,43.511,553.562,91.658,533.133,139.005z"/>
	<linearGradient id="SVGID_8_" gradientUnits="userSpaceOnUse" x1="361.9603" y1="81.2995" x2="382.8463" y2="81.2995">
		<stop  offset="0" style="stop-color:#CFCFA9"/>
		<stop  offset="0.6224" style="stop-color:#D2D2C6"/>
		<stop  offset="0.9949" style="stop-color:#D4D3D7"/>
	</linearGradient>
	<path class="st10" d="M382.846,57.411v47.777C382.846,105.188,335.853,82.474,382.846,57.411z"/>
	<linearGradient id="SVGID_9_" gradientUnits="userSpaceOnUse" x1="274.239" y1="53.3978" x2="295.1251" y2="53.3978">
		<stop  offset="0" style="stop-color:#CFCFA9"/>
		<stop  offset="0.6224" style="stop-color:#D2D2C6"/>
		<stop  offset="0.9949" style="stop-color:#D4D3D7"/>
	</linearGradient>
	<path class="st11" d="M295.125,29.509v47.777C295.125,77.286,248.132,54.573,295.125,29.509z"/>
	<linearGradient id="SVGID_10_" gradientUnits="userSpaceOnUse" x1="331.4437" y1="15.9042" x2="352.3056" y2="15.9042">
		<stop  offset="0" style="stop-color:#CFCFA9"/>
		<stop  offset="0.6224" style="stop-color:#D2D2C6"/>
		<stop  offset="0.9949" style="stop-color:#D4D3D7"/>
	</linearGradient>
	<path class="st12" d="M352.306,0.002v31.804c0,0-28.38-13.721-18.938-31.61C339.634,0.085,345.957,0.03,352.306,0.002z"/>
	<linearGradient id="SVGID_11_" gradientUnits="userSpaceOnUse" x1="430.0621" y1="61.4909" x2="450.9482" y2="61.4909">
		<stop  offset="0" style="stop-color:#CFCFA9"/>
		<stop  offset="0.6224" style="stop-color:#D2D2C6"/>
		<stop  offset="0.9949" style="stop-color:#D4D3D7"/>
	</linearGradient>
	<path class="st13" d="M450.948,37.602v47.777C450.948,85.379,403.955,62.666,450.948,37.602z"/>
	<linearGradient id="SVGID_12_" gradientUnits="userSpaceOnUse" x1="470.0455" y1="101.1746" x2="490.9315" y2="101.1746">
		<stop  offset="0" style="stop-color:#CFCFA9"/>
		<stop  offset="0.6224" style="stop-color:#D2D2C6"/>
		<stop  offset="0.9949" style="stop-color:#D4D3D7"/>
	</linearGradient>
	<path class="st14" d="M490.932,77.286v47.777C490.932,125.063,443.938,102.349,490.932,77.286z"/>
	<path class="st7" d="M162.92,9.058c11.506-0.72,46.049-2.429,46.049-2.429s0.442-0.028,1.325-0.11c0,0,14.576,24.349,29.43,40.444
		h-83.153c-23.3-28.546-27.193-35.475-27.193-35.475S154.529,9.583,162.92,9.058z"/>
</g>
</svg>
