<?xml version="1.0" encoding="utf-8"?>
<!-- Generator: Adobe Illustrator 21.0.2, SVG Export Plug-In . SVG Version: 6.00 Build 0)  -->
<svg version="1.1" id="Layer_1" xmlns="http://www.w3.org/2000/svg" xmlns:xlink="http://www.w3.org/1999/xlink" x="0px" y="0px"
	 viewBox="0 0 361.1 433.3" style="enable-background:new 0 0 361.1 433.3;" xml:space="preserve">
<style type="text/css">
	.st0{fill:url(#SVGID_1_);}
	.st1{fill:#B88D67;}
	.st2{fill:url(#SVGID_2_);}
	.st3{fill:url(#SVGID_3_);}
	.st4{fill:url(#SVGID_4_);}
	.st5{fill:url(#SVGID_5_);}
	.st6{fill:url(#SVGID_6_);}
	.st7{fill:url(#SVGID_7_);}
	.st8{fill:url(#SVGID_8_);}
	.st9{fill:#BD8360;}
</style>
<g>
	<g>
		<polygon class="st1" points="351.3,385.1 338.1,385.1 338.1,275.3 351.3,267.7 		"/>
		<g>
			<linearGradient id="SVGID_1_" gradientUnits="userSpaceOnUse" x1="324.1139" y1="297.6779" x2="324.1139" y2="137.8879">
				<stop  offset="0" style="stop-color:#9C6C50"/>
				<stop  offset="0.5149" style="stop-color:#9A6B4F"/>
				<stop  offset="0.7003" style="stop-color:#93664A"/>
				<stop  offset="0.8325" style="stop-color:#885E42"/>
				<stop  offset="0.9387" style="stop-color:#775237"/>
				<stop  offset="1" style="stop-color:#69482E"/>
			</linearGradient>
			<polyline class="st0" points="350.9,266.4 350.9,137.9 297.3,137.9 297.3,297.7 350.9,266.4 			"/>
			<rect x="173.6" y="293.5" class="st1" width="7.4" height="139.5"/>
			<rect x="127.3" y="293.5" class="st1" width="7.4" height="139.5"/>
			
				<rect x="150.5" y="290.2" transform="matrix(-1.836970e-16 1 -1 -1.836970e-16 471.2208 162.9058)" class="st1" width="7.4" height="53.8"/>
			
				<rect x="150.5" y="314.5" transform="matrix(-1.836970e-16 1 -1 -1.836970e-16 495.5275 187.2126)" class="st1" width="7.4" height="53.8"/>
			
				<rect x="150.5" y="338.8" transform="matrix(-1.836970e-16 1 -1 -1.836970e-16 519.8342 211.5193)" class="st1" width="7.4" height="53.8"/>
			
				<rect x="150.5" y="363.1" transform="matrix(-1.836970e-16 1 -1 -1.836970e-16 544.141 235.826)" class="st1" width="7.4" height="53.8"/>
			<rect x="11" y="290.2" class="st1" width="17.5" height="121.1"/>
			<rect x="86.8" y="290.2" class="st1" width="12.2" height="84.4"/>
			<rect x="279.9" y="290.2" class="st1" width="17.5" height="121.1"/>
			<linearGradient id="SVGID_2_" gradientUnits="userSpaceOnUse" x1="10.9671" y1="293.9264" x2="297.3478" y2="293.9264">
				<stop  offset="0" style="stop-color:#7C482E"/>
				<stop  offset="0.4756" style="stop-color:#895639"/>
				<stop  offset="1" style="stop-color:#9B6A4A"/>
			</linearGradient>
			<rect x="11" y="290.2" class="st2" width="286.4" height="7.5"/>
			<linearGradient id="SVGID_3_" gradientUnits="userSpaceOnUse" x1="154.1575" y1="291.0979" x2="154.1575" y2="137.8879">
				<stop  offset="0" style="stop-color:#BD8360"/>
				<stop  offset="0.4658" style="stop-color:#BB825F"/>
				<stop  offset="0.6335" style="stop-color:#B47D5B"/>
				<stop  offset="0.7531" style="stop-color:#A97554"/>
				<stop  offset="0.8498" style="stop-color:#98694A"/>
				<stop  offset="0.9317" style="stop-color:#825A3D"/>
				<stop  offset="1" style="stop-color:#69482E"/>
			</linearGradient>
			<rect x="11" y="137.9" class="st3" width="286.4" height="153.2"/>
			<linearGradient id="SVGID_4_" gradientUnits="userSpaceOnUse" x1="180.9866" y1="137.8879" x2="180.9866" y2="0.6642">
				<stop  offset="0" style="stop-color:#6E503F"/>
				<stop  offset="0.4078" style="stop-color:#7A573F"/>
				<stop  offset="1" style="stop-color:#946640"/>
			</linearGradient>
			<path class="st4" d="M0.8,137.9c0,0,102-137.2,180.3-137.2s180,137.2,180,137.2H0.8z"/>
			<linearGradient id="SVGID_5_" gradientUnits="userSpaceOnUse" x1="154.1575" y1="293.6421" x2="154.1575" y2="172.5569">
				<stop  offset="0" style="stop-color:#7D5636"/>
				<stop  offset="0.7276" style="stop-color:#4C3626"/>
				<stop  offset="1" style="stop-color:#382920"/>
			</linearGradient>
			<path class="st5" d="M184.1,202.5v91.1h-60v-91.1c0-16.6,13.4-30,30-30C170.7,172.6,184.1,186,184.1,202.5z"/>
			<linearGradient id="SVGID_6_" gradientUnits="userSpaceOnUse" x1="243.8364" y1="219.5673" x2="243.8364" y2="188.285">
				<stop  offset="0" style="stop-color:#7D5636"/>
				<stop  offset="0.7276" style="stop-color:#4C3626"/>
				<stop  offset="1" style="stop-color:#382920"/>
			</linearGradient>
			<rect x="218.5" y="188.3" class="st6" width="50.7" height="31.3"/>
			<linearGradient id="SVGID_7_" gradientUnits="userSpaceOnUse" x1="65.3545" y1="219.5673" x2="65.3545" y2="188.285">
				<stop  offset="0" style="stop-color:#7D5636"/>
				<stop  offset="0.7276" style="stop-color:#4C3626"/>
				<stop  offset="1" style="stop-color:#382920"/>
			</linearGradient>
			<rect x="40" y="188.3" class="st7" width="50.7" height="31.3"/>
		</g>
	</g>
	<g>
		<path class="st9" d="M153.5,10.1l1.5-1.3l0.1,0.3c-5,1.1-9.9,2.8-14.6,4.8c-4.7,2-9.2,4.4-13.5,7.2c-4.3,2.7-8.5,5.7-12.5,8.9
			c-4,3.2-7.9,6.5-11.8,9.9c3.3-4,7-7.6,10.8-11.1c3.9-3.4,8-6.6,12.4-9.4c4.4-2.8,9.1-5.2,13.9-7c4.9-1.8,10-3.1,15.1-3.6l0.7-0.1
			L155.2,9L153.5,10.1z"/>
	</g>
	<g>
		<path class="st9" d="M160.5,9.7c-3.7,1-6.8,3.3-9.6,5.8l-8.5,7.7c-2.9,2.5-5.8,5-8.7,7.4c-3,2.4-6,4.8-9.1,7
			c2.6-2.8,5.3-5.5,8.1-8.2c2.8-2.6,5.6-5.2,8.5-7.7c2.9-2.5,5.7-5,8.8-7.4c1.6-1.2,3.2-2.2,5-3.1C156.6,10.4,158.5,9.8,160.5,9.7z"
			/>
	</g>
	<g>
		<path class="st9" d="M163.8,9c-3.2,2.1-6.3,4.4-9.1,6.9c-2.8,2.5-5.4,5.3-7.7,8.2c-2.3,2.9-4.4,6.1-6.2,9.4
			c-1.8,3.3-3.3,6.8-4.5,10.5c0.5-3.8,1.6-7.6,3.1-11.1c1.6-3.6,3.6-6.9,6-10c2.4-3.1,5.2-5.8,8.3-8.2
			C156.8,12.3,160.2,10.3,163.8,9z"/>
	</g>
	<g>
		<path class="st9" d="M167.1,7.6c-3.2,1.1-5.5,3.5-7.5,6c-1,1.3-1.9,2.6-2.9,4c-0.9,1.4-1.9,2.7-2.8,4.1c-1.8,2.8-3.6,5.6-5.3,8.4
			l-5.1,8.6c1-3.2,2.3-6.3,3.8-9.3c0.7-1.5,1.5-3,2.4-4.5c0.8-1.5,1.7-2.9,2.6-4.3c1.9-2.8,3.8-5.5,6.1-8.1c1.2-1.3,2.5-2.4,3.9-3.3
			C163.7,8.4,165.4,7.7,167.1,7.6z"/>
	</g>
	<g>
		<path class="st9" d="M170.2,8.7c-0.8-0.2-1.6,0-2.2,0.4c-0.6,0.4-1.2,0.9-1.7,1.5c-0.5,0.6-0.9,1.2-1.3,1.9
			c-0.4,0.7-0.8,1.4-1.2,2.1c-1.5,2.8-3,5.5-4.3,8.4c-1.3,2.8-2.5,5.7-3.6,8.7c-1.1,2.9-2.1,5.9-3.1,9c0.2-3.2,0.8-6.4,1.7-9.4
			c0.8-3.1,2-6.1,3.3-9c1.4-2.9,2.9-5.7,4.8-8.4c0.4-0.7,0.9-1.3,1.4-2c0.5-0.7,1-1.3,1.6-1.9c0.6-0.6,1.3-1,2.1-1.3
			c0.4-0.1,0.8-0.2,1.2-0.2C169.4,8.4,169.8,8.5,170.2,8.7z"/>
	</g>
	<g>
		<path class="st9" d="M169.9,11.4c-0.4-0.1-0.7,0.3-0.8,0.6c-0.2,0.3-0.2,0.7-0.4,1.1c-0.2,0.7-0.5,1.5-0.7,2.2
			c-0.5,1.5-0.9,2.9-1.3,4.4c-0.8,2.9-1.6,5.8-2.3,8.8c-0.7,2.9-1.3,5.9-1.9,8.8l-1.7,9c-0.3-3.1-0.2-6.1,0.1-9.2
			c0.3-3.1,0.8-6.1,1.5-9.1c0.7-3,1.7-5.9,2.8-8.8c0.6-1.4,1.2-2.8,1.9-4.2c0.3-0.7,0.7-1.4,1.1-2c0.2-0.3,0.3-0.7,0.6-1
			C169.1,11.5,169.5,11.1,169.9,11.4z"/>
	</g>
	<g>
		<path class="st9" d="M174.4,10.3c-0.7,0.2-1.2,0.7-1.5,1.3c-0.3,0.6-0.5,1.2-0.7,1.9c-0.1,0.7-0.2,1.4-0.3,2.1l-0.3,2.1
			c-0.4,2.8-0.8,5.6-1,8.4c-0.3,2.8-0.5,5.6-0.7,8.4l-0.5,8.5c-0.6-2.8-0.9-5.7-1-8.5c-0.1-2.9,0-5.8,0.3-8.6
			c0.3-2.9,0.8-5.7,1.5-8.5c0.4-1.4,0.7-2.8,1.2-4.2c0.3-0.7,0.6-1.4,1.2-1.9C172.9,10.7,173.7,10.3,174.4,10.3z"/>
	</g>
	<g>
		<path class="st9" d="M175.8,12c-0.5-0.4-1.2,0-1.4,0.4c-0.2,0.5-0.2,1.1-0.2,1.7l0,3.7c0,2.5,0,5,0.1,7.4c0,2.5,0.2,4.9,0.3,7.4
			c0.1,2.5,0.3,5,0.3,7.5c-0.9-2.4-1.5-4.8-1.9-7.3c-0.4-2.5-0.6-5-0.7-7.5c0-2.5,0.1-5.1,0.4-7.6c0.1-1.3,0.4-2.5,0.6-3.7
			c0.1-0.6,0.2-1.3,0.7-1.9c0.2-0.3,0.6-0.5,1-0.5C175.2,11.6,175.6,11.7,175.8,12z"/>
	</g>
	<g>
		<path class="st9" d="M177.8,16.9c0.3,2.7,0.6,5.4,0.9,8.1c0.4,2.7,0.8,5.3,1.4,7.9c0.5,2.6,1.2,5.2,2,7.8c0.7,2.6,1.6,5.2,2.4,7.8
			c-1.6-2.3-2.9-4.7-3.9-7.3c-1.1-2.5-1.8-5.2-2.4-7.9c-0.6-2.7-0.9-5.5-1-8.2C177.1,22.4,177.2,19.6,177.8,16.9z"/>
	</g>
	<g>
		<path class="st9" d="M182,12.1c1.1,2.2,2.1,4.6,3,6.9c0.9,2.3,1.7,4.7,2.4,7c0.7,2.4,1.4,4.8,2,7.2c0.6,2.4,1.1,4.8,1.5,7.3
			c-1.1-2.2-2.1-4.5-3-6.9c-0.9-2.3-1.7-4.7-2.4-7c-0.7-2.4-1.4-4.8-2-7.2C182.9,17,182.3,14.6,182,12.1z"/>
	</g>
	<g>
		<path class="st9" d="M187.7,17.2c1.9,2.2,3.6,4.6,5.1,7c1.5,2.4,2.9,5,4.2,7.6c1.2,2.6,2.4,5.3,3.3,8c1,2.7,1.8,5.5,2.3,8.3
			c-1.3-2.6-2.6-5.2-3.8-7.7c-1.2-2.6-2.4-5.2-3.7-7.7c-1.2-2.6-2.5-5.1-3.8-7.7C190.1,22.5,188.9,19.9,187.7,17.2z"/>
	</g>
	<g>
		<path class="st9" d="M186.9,15.2c2.4,2,4.6,4.2,6.6,6.5c2.1,2.3,4,4.7,5.8,7.2c1.8,2.5,3.5,5.1,5,7.8c1.5,2.7,2.9,5.5,4,8.4
			c-1.8-2.5-3.6-5-5.3-7.5c-1.8-2.5-3.5-5-5.3-7.5c-1.8-2.5-3.6-4.9-5.4-7.4C190.5,20.2,188.7,17.7,186.9,15.2z"/>
	</g>
	<g>
		<path class="st9" d="M192.3,14.6c2.2,1.9,4.2,4,6.1,6.1c1.9,2.1,3.8,4.4,5.6,6.6c1.8,2.3,3.5,4.6,5,7c1.6,2.4,3.1,4.9,4.4,7.4
			c-2-2.1-3.8-4.3-5.7-6.5c-1.8-2.2-3.6-4.5-5.4-6.7c-1.7-2.3-3.5-4.5-5.2-6.9C195.5,19.4,193.9,17.1,192.3,14.6z"/>
	</g>
	<g>
		<path class="st9" d="M191.2,9.5c3.7,2.6,7.1,5.4,10.4,8.4c3.3,3,6.4,6.2,9.4,9.5c3,3.3,5.8,6.8,8.4,10.4c2.6,3.6,5.1,7.3,7.2,11.2
			l-8.5-10.3c-2.9-3.4-5.7-6.7-8.7-10c-2.9-3.3-6-6.5-9-9.7C197.5,15.8,194.4,12.6,191.2,9.5z"/>
	</g>
	<g>
		<path class="st9" d="M191.2,5.9c4,2.2,7.8,4.6,11.5,7.3c3.7,2.6,7.2,5.5,10.6,8.5c3.4,3,6.6,6.2,9.7,9.6c3.1,3.4,5.9,6.9,8.5,10.6
			c-3.2-3.2-6.4-6.4-9.6-9.5c-3.2-3.1-6.5-6.2-9.9-9.2c-3.3-3-6.8-5.9-10.2-8.8C198.2,11.5,194.7,8.7,191.2,5.9z"/>
	</g>
	<g>
		<path class="st9" d="M192.7,4.7c5.3,2.8,10.5,5.8,15.5,9.2c5,3.3,9.9,6.9,14.6,10.6c4.7,3.8,9.3,7.7,13.7,11.8
			c4.4,4.1,8.6,8.5,12.5,13c-4.5-4-9-8-13.5-11.9c-4.6-3.9-9.2-7.7-13.9-11.4c-4.7-3.7-9.5-7.3-14.3-10.9
			C202.6,11.6,197.7,8.1,192.7,4.7z"/>
	</g>
	<g>
		<path class="st9" d="M197.8,6.1c5.2,1.2,10.2,2.9,15.1,5c4.9,2.1,9.6,4.7,14,7.5c4.5,2.9,8.7,6.1,12.7,9.7
			c3.9,3.6,7.6,7.4,10.8,11.6c-3.8-3.7-7.7-7.2-11.8-10.5c-4.1-3.3-8.3-6.4-12.7-9.2c-4.4-2.8-8.9-5.4-13.6-7.8
			C207.5,10.2,202.7,8.1,197.8,6.1z"/>
	</g>
	<g>
		<path class="st9" d="M202.2,5.1c5-0.1,10.1,0.4,15,1.6c4.9,1.1,9.7,2.9,14.3,5.1c4.6,2.3,8.9,5,12.8,8.2
			c3.9,3.2,7.5,6.9,10.4,10.9c-3.6-3.5-7.4-6.8-11.4-9.7c-4-2.9-8.3-5.5-12.7-7.6c-4.4-2.2-9.1-4-13.8-5.4
			C212.1,6.8,207.2,5.8,202.2,5.1z"/>
	</g>
	<g>
		<path class="st9" d="M211.2,7.6c4.8,0.8,9.5,2.3,13.9,4.4c4.5,2,8.7,4.6,12.7,7.4c4,2.8,7.8,5.9,11.3,9.2c3.6,3.3,7,6.7,10.3,10.3
			c-3.9-3-7.6-6.1-11.4-9.1c-3.8-3-7.6-6-11.5-8.8c-3.9-2.8-8-5.4-12.2-7.6C220.2,11.1,215.8,9.1,211.2,7.6z"/>
	</g>
	<g>
		<path class="st9" d="M181.9,4.7c0-0.6-0.6-1-1-1.1c-0.5-0.1-1,0-1.6,0.1l-3.4,0.8L169,6.1c-2.3,0.5-4.6,1.1-6.8,1.6
			c-2.3,0.5-4.6,1.1-6.9,1.5c2.1-1.2,4.2-2.2,6.5-3c2.2-0.8,4.5-1.5,6.8-2.1c2.3-0.5,4.7-0.9,7.1-1.2c1.2-0.1,2.4-0.2,3.6-0.2
			c0.6,0,1.3,0,1.9,0.4C181.7,3.4,182.1,4.1,181.9,4.7z"/>
	</g>
	<g>
		<path class="st9" d="M175.1,3.3L166.4,5c-2.9,0.6-5.7,1.2-8.5,1.9c-2.8,0.7-5.6,1.5-8.4,2.2l-8.5,2.5c2.5-1.6,5.2-2.9,7.9-4
			c2.8-1.1,5.6-2,8.5-2.7c2.9-0.7,5.8-1.2,8.8-1.5C169.2,3.2,172.1,3.1,175.1,3.3z"/>
	</g>
	<g>
		<path class="st9" d="M176.3,2.2c-0.5-0.5-1.2-0.8-1.9-0.9c-0.7-0.1-1.4-0.1-2.1,0c-1.4,0.2-2.8,0.5-4.2,0.7
			c-1.4,0.3-2.8,0.6-4.1,0.9c-1.4,0.4-2.7,0.7-4.1,1.1c-5.4,1.7-10.6,3.8-15.6,6.3c-5.1,2.5-9.9,5.3-14.8,8.2L115,27.4
			c4.4-3.6,9-7,13.7-10.2c4.7-3.2,9.6-6.1,14.8-8.7c5.1-2.5,10.5-4.6,16.1-6c1.4-0.3,2.8-0.6,4.2-0.9c1.4-0.2,2.8-0.4,4.3-0.6
			c1.4-0.1,2.8-0.2,4.3-0.2c0.7,0,1.5,0.1,2.2,0.3C175.2,1.3,175.8,1.7,176.3,2.2z"/>
	</g>
	<g>
		<path class="st9" d="M168,1.3c-11.4,2.8-22.5,6.6-33,11.6c-5.3,2.5-10.4,5.2-15.4,8.2c-5,3-9.8,6.3-14.6,9.8
			c4.2-4.1,8.8-7.8,13.7-11.1c4.9-3.3,10.1-6.2,15.4-8.7C144.9,6,156.3,2.5,168,1.3z"/>
	</g>
	<g>
		<path class="st9" d="M178.6,3c-0.6,1-1.3,1.9-1.9,2.8c-0.6,0.9-1.2,1.8-1.8,2.7c-0.6,0.9-1.2,1.8-1.7,2.7
			c-0.6,0.9-1.2,1.9-1.8,2.9c-0.1-1.2,0.1-2.4,0.4-3.5c0.3-1.1,0.9-2.2,1.5-3.2c0.7-1,1.4-1.9,2.3-2.6C176.4,4,177.4,3.4,178.6,3z"
			/>
	</g>
	<g>
		<path class="st9" d="M182.3,2.7c-0.1-0.1-0.3-0.1-0.4,0c-0.1,0.1-0.2,0.2-0.2,0.3c-0.1,0.2-0.1,0.4-0.2,0.8
			c-0.1,0.6-0.3,1.3-0.4,1.9c-0.3,1.2-0.7,2.4-1.2,3.6c-0.5,1.2-1,2.3-1.6,3.4c-0.6,1.1-1.3,2.2-2.1,3.2c0.1-1.3,0.4-2.6,0.7-3.8
			c0.3-1.2,0.7-2.4,1.2-3.6c0.5-1.2,1-2.3,1.6-3.4c0.3-0.6,0.6-1.1,1-1.6c0.2-0.2,0.4-0.6,0.7-0.8c0.2-0.1,0.3-0.2,0.5-0.2
			C182.1,2.4,182.3,2.5,182.3,2.7z"/>
	</g>
	<g>
		<path class="st9" d="M181.9,3.7C182,4.9,182,6,182,7.1l0,3.2l-0.1,3.2c0,1.1-0.1,2.2-0.2,3.4c-0.7-1-1.1-2.1-1.3-3.2
			c-0.3-1.1-0.4-2.3-0.4-3.4c0-1.2,0.2-2.3,0.4-3.4C180.8,5.8,181.2,4.7,181.9,3.7z"/>
	</g>
	<g>
		<path class="st9" d="M184.4,5.1c0.3,0.8,0.5,1.5,0.7,2.2c0.2,0.7,0.3,1.4,0.4,2.1c0.1,0.7,0.2,1.4,0.3,2.1
			c0.1,0.7,0.1,1.5,0.1,2.3c-0.7-0.5-1.2-1.1-1.6-1.8c-0.4-0.7-0.6-1.5-0.8-2.2c-0.1-0.8-0.1-1.6,0-2.4
			C183.7,6.6,183.9,5.8,184.4,5.1z"/>
	</g>
	<g>
		<path class="st9" d="M186.2,2.4c0.7,0.6,1.2,1.2,1.7,1.9c0.5,0.6,1,1.3,1.4,1.9c0.4,0.6,0.9,1.3,1.3,2c0.4,0.7,0.8,1.4,1.1,2.3
			c-0.9-0.2-1.6-0.7-2.3-1.2c-0.7-0.5-1.3-1.2-1.8-1.9c-0.5-0.7-0.9-1.5-1.2-2.3C186.3,4.1,186.1,3.3,186.2,2.4z"/>
	</g>
	<g>
		<path class="st9" d="M187.2,2c1.1,0.2,2.1,0.6,3.1,1.1c1,0.5,1.9,1.1,2.7,1.8c0.8,0.7,1.6,1.5,2.3,2.3C196,8,196.6,8.9,197,10
			c-1-0.5-1.9-1.1-2.7-1.7c-0.8-0.6-1.7-1.2-2.5-1.9c-0.8-0.7-1.6-1.3-2.3-2C188.7,3.6,187.9,2.9,187.2,2z"/>
	</g>
	<g>
		<path class="st9" d="M118.7,24.7c-5.6,3.7-11,7.7-16.2,11.9c-5.2,4.2-10.2,8.6-15.1,13.2c-4.9,4.5-9.7,9.2-14.5,14
			c-4.8,4.7-9.5,9.5-14.4,14.1c4.3-5.2,8.7-10.3,13.3-15.2c4.6-5,9.3-9.7,14.2-14.3c5-4.6,10.1-9,15.6-12.9
			C106.9,31.3,112.7,27.7,118.7,24.7z"/>
	</g>
	<g>
		<path class="st9" d="M142.1,15.4c-6.5,4.9-13,9.9-19.3,15c-6.3,5.1-12.6,10.3-18.7,15.7C98,51.5,92.1,57,86.2,62.6
			c-5.8,5.7-11.6,11.4-17.3,17.3c5.1-6.4,10.5-12.5,16.2-18.4c5.7-5.9,11.6-11.5,17.7-16.9c6.1-5.4,12.5-10.6,19-15.4
			C128.4,24.3,135.2,19.7,142.1,15.4z"/>
	</g>
	<g>
		<path class="st9" d="M138.5,13.3c-6.2,4.8-12.2,9.8-18.2,14.9c-5.9,5.1-11.7,10.4-17.3,15.8c-5.6,5.4-11,11-16.3,16.8
			c-5.3,5.8-10.4,11.7-15.4,17.7c4.4-6.5,9.2-12.7,14.3-18.7c5.1-6,10.5-11.7,16.1-17.2c5.7-5.5,11.5-10.7,17.7-15.6
			C125.5,22,131.9,17.5,138.5,13.3z"/>
	</g>
	<g>
		<path class="st9" d="M130.5,25.1c-4.4,4.4-8.7,8.8-12.9,13.2c-4.2,4.5-8.4,9-12.4,13.6c-4.1,4.6-8,9.3-11.9,14.1
			c-3.9,4.8-7.7,9.6-11.5,14.5c3.1-5.3,6.6-10.5,10.2-15.5c3.7-5,7.6-9.8,11.6-14.5c4.1-4.6,8.4-9.1,12.8-13.4
			C120.9,32.9,125.6,28.9,130.5,25.1z"/>
	</g>
	<g>
		<path class="st9" d="M136.4,28.4c-4.2,2.7-7.5,6.4-10.8,10.1c-3.3,3.7-6.4,7.5-9.5,11.4c-3.1,3.9-6,7.9-8.8,11.9
			c-2.8,4.1-5.5,8.2-8.3,12.4c2-4.6,4.4-9,7-13.3c2.6-4.3,5.5-8.4,8.6-12.3c3.1-3.9,6.4-7.7,9.9-11.3
			C127.9,33.9,131.7,30.3,136.4,28.4z"/>
	</g>
	<g>
		<path class="st9" d="M137.4,32.8c-2.3,3.8-4.7,7.5-7,11.3c-2.3,3.8-4.7,7.5-6.9,11.3c-2.3,3.8-4.5,7.6-6.7,11.5
			c-2.2,3.8-4.4,7.7-6.6,11.6c1.5-4.2,3.3-8.3,5.2-12.3c1.9-4,4.1-7.9,6.4-11.7c2.3-3.8,4.7-7.6,7.3-11.2
			C131.7,39.6,134.4,36.1,137.4,32.8z"/>
	</g>
	<g>
		<path class="st9" d="M139.7,33c-2.2,3.8-4.4,7.5-6.5,11.2C131,48,129,51.8,127,55.6c-2,3.8-3.9,7.7-5.7,11.6
			c-1.8,3.9-3.6,7.9-5.4,11.8c1-4.2,2.4-8.4,4-12.4c1.6-4.1,3.4-8,5.4-11.9c2-3.9,4.2-7.6,6.6-11.3C134.2,39.8,136.8,36.3,139.7,33z
			"/>
	</g>
	<g>
		<path class="st9" d="M141.3,34.9c-1.8,4.4-3.7,8.7-5.6,13L130,60.8l-5.8,12.8c-2,4.3-3.9,8.5-6.1,12.8c1.3-4.5,2.9-9,4.6-13.4
			c1.7-4.4,3.5-8.7,5.5-13c2-4.3,4-8.5,6.2-12.7C136.5,43.1,138.8,38.9,141.3,34.9z"/>
	</g>
	<g>
		<path class="st9" d="M145,33.7c-1.7,4.5-3.4,8.9-4.9,13.4c-1.6,4.5-3.1,9-4.5,13.5c-1.4,4.5-2.7,9.1-3.9,13.7
			c-1.2,4.6-2.3,9.2-3.5,13.8c0.3-4.8,1-9.5,1.9-14.2c0.9-4.7,2.1-9.3,3.5-13.9c1.4-4.6,3-9.1,4.9-13.5
			C140.5,42.1,142.6,37.8,145,33.7z"/>
	</g>
	<g>
		<path class="st9" d="M149.8,29.5c-1.8,5.1-3.6,10.1-5.2,15.1c-1.7,5.1-3.3,10.1-4.7,15.2c-1.5,5.1-2.9,10.2-4.2,15.4
			c-1.3,5.2-2.5,10.4-3.7,15.6c0.4-5.3,1.1-10.7,2.1-15.9c1-5.3,2.3-10.5,3.8-15.6c1.5-5.1,3.2-10.2,5.2-15.2
			C145.1,39.1,147.3,34.2,149.8,29.5z"/>
	</g>
	<g>
		<path class="st9" d="M151.1,29.8c-0.9,5.7-1.9,11.4-3.1,17.1c-1.1,5.7-2.3,11.3-3.6,17c-1.3,5.6-2.6,11.3-4,16.9
			c-1.4,5.6-2.9,11.2-4.6,16.7c0.9-5.7,1.9-11.4,3.1-17.1c1.1-5.7,2.3-11.3,3.6-17c1.3-5.6,2.6-11.3,4-16.9
			C147.9,40.9,149.4,35.3,151.1,29.8z"/>
	</g>
	<g>
		<path class="st9" d="M161.2,37.4c-0.3,4.5-0.8,9-1.3,13.5c-0.5,4.5-1.2,8.9-1.9,13.4c-0.7,4.5-1.5,8.9-2.3,13.3
			c-0.9,4.4-1.8,8.9-2.9,13.2c0.3-4.5,0.8-9,1.3-13.5c0.5-4.5,1.2-8.9,1.9-13.4c0.7-4.5,1.5-8.9,2.3-13.3
			C159.2,46.3,160.1,41.8,161.2,37.4z"/>
	</g>
	<g>
		<path class="st9" d="M156.7,36.6c-1.5,5.1-3.1,10.1-4.5,15.2c-1.4,5.1-2.7,10.2-3.9,15.3c-1.2,5.1-2.3,10.3-3.3,15.5
			c-1,5.2-1.9,10.4-2.8,15.6c0.1-5.3,0.5-10.6,1.2-15.9c0.7-5.3,1.7-10.5,2.9-15.7c1.2-5.2,2.7-10.3,4.4-15.3
			C152.4,46.3,154.4,41.4,156.7,36.6z"/>
	</g>
	<g>
		<path class="st9" d="M164.1,35c0.5,4.2,0.6,8.4,0.6,12.6c0,4.2-0.2,8.4-0.5,12.6c-0.3,4.2-0.8,8.4-1.4,12.5
			c-0.6,4.1-1.4,8.3-2.5,12.3c0.2-4.2,0.6-8.4,0.9-12.5c0.3-4.2,0.7-8.3,1-12.5c0.3-4.2,0.6-8.3,0.9-12.5
			C163.5,43.4,163.8,39.2,164.1,35z"/>
	</g>
	<g>
		<path class="st9" d="M171.8,30.9c-0.1,5.8-0.3,11.7-0.5,17.5l-0.7,17.4L170,83.2c-0.2,5.8-0.5,11.6-0.9,17.5
			c-0.4-5.8-0.7-11.7-0.7-17.5c-0.1-5.8,0.1-11.7,0.3-17.5c0.2-5.8,0.6-11.6,1.1-17.5C170.2,42.4,170.9,36.6,171.8,30.9z"/>
	</g>
	<g>
		<path class="st9" d="M175,33.9c0.9,4.8,1.5,9.6,2.1,14.4c0.6,4.8,1.1,9.7,1.6,14.5c0.4,4.8,0.8,9.7,1.1,14.5
			c0.3,4.9,0.5,9.7,0.6,14.6c-0.9-4.8-1.5-9.6-2.1-14.4c-0.6-4.8-1.1-9.7-1.6-14.5c-0.4-4.8-0.8-9.7-1.1-14.5
			C175.2,43.6,175,38.8,175,33.9z"/>
	</g>
	<g>
		<path class="st9" d="M178.6,30c1.9,5.1,3.6,10.3,5,15.5c1.5,5.2,2.7,10.5,3.8,15.9c1.1,5.3,2,10.7,2.7,16.1
			c0.7,5.4,1.2,10.8,1.4,16.2l-3-16c-1-5.3-2-10.6-3.1-15.9c-1.1-5.3-2.2-10.6-3.4-15.9L178.6,30z"/>
	</g>
	<g>
		<path class="st9" d="M180.5,28.6c3.3,4.5,6,9.5,8.3,14.6c2.3,5.1,4.1,10.5,5.6,15.8c1.5,5.4,2.7,10.9,3.6,16.4
			c1,5.5,1.7,11,2.3,16.6c-1.4-5.4-2.6-10.8-3.8-16.3c-1.3-5.4-2.5-10.8-4-16.1c-1.5-5.3-3.1-10.6-5.1-15.8
			C185.3,38.6,183.1,33.6,180.5,28.6z"/>
	</g>
	<g>
		<path class="st9" d="M186.1,26c4,5,7.5,10.4,10.6,16.1c3.1,5.6,5.7,11.5,8.1,17.5c2.3,6,4.4,12,6.3,18.2c1.9,6.1,3.5,12.3,5,18.5
			c-2.2-6-4.4-12-6.5-18.1c-2.1-6-4.3-12-6.6-17.9c-2.3-5.9-4.8-11.8-7.6-17.5C192.5,37.1,189.5,31.5,186.1,26z"/>
	</g>
	<g>
		<path class="st9" d="M198.1,31.8c2.8,3.9,5.4,8,7.8,12.2c2.4,4.2,4.7,8.4,6.8,12.8c2.1,4.3,4.1,8.7,5.9,13.2
			c1.8,4.5,3.4,9,4.8,13.6c-2.1-4.3-4.2-8.7-6.2-13c-2.1-4.3-4.1-8.7-6.2-13c-2.1-4.3-4.2-8.6-6.4-12.9
			C202.4,40.5,200.2,36.2,198.1,31.8z"/>
	</g>
	<g>
		<path class="st9" d="M205.5,36.7c0,0.1-0.1,0.2-0.2,0.2c-0.1,0-0.2-0.1-0.2-0.2c-0.1-0.1-0.2-0.3-0.2-0.5c0-0.2,0.3-0.4,0.5-0.4
			c0.2,0,0.4,0,0.6,0.1c0.3,0.2,0.6,0.5,0.8,0.8l0.6,0.9c0.8,1.2,1.7,2.3,2.5,3.5c1.6,2.4,3.2,4.8,4.7,7.2c3,4.9,5.8,9.9,8.4,15.1
			c2.6,5.1,4.9,10.4,7,15.7c2.1,5.3,4,10.8,5.5,16.3c-2.3-5.3-4.6-10.5-7-15.7c-2.4-5.2-4.8-10.3-7.4-15.4
			c-2.5-5.1-5.2-10.2-7.9-15.2c-1.4-2.5-2.8-5-4.2-7.5c-0.7-1.3-1.4-2.5-2.1-3.7c-0.4-0.6-0.6-1.3-1.2-1.7c-0.1-0.1-0.3-0.2-0.4-0.2
			c-0.2,0-0.3,0-0.3,0.2c0,0.1,0,0.3,0.1,0.5c0,0.1,0.1,0.1,0.2,0.2C205.4,36.9,205.4,36.8,205.5,36.7z"/>
	</g>
	<g>
		<path class="st9" d="M211.5,33.6c3.4,4.4,6.7,8.8,9.8,13.3c3.2,4.5,6.3,9.1,9.4,13.6c3,4.6,6.1,9.2,9,13.9
			c2.9,4.7,5.8,9.4,8.5,14.2c-3.4-4.4-6.7-8.8-9.8-13.3c-3.2-4.5-6.3-9.1-9.4-13.6c-3-4.6-6.1-9.2-9-13.9
			C217.1,43.2,214.2,38.5,211.5,33.6z"/>
	</g>
	<g>
		<path class="st9" d="M220.2,33c4.6,4.9,9,10.1,13.1,15.4c4.2,5.3,8.1,10.8,11.8,16.5c3.7,5.6,7.3,11.4,10.5,17.3
			c3.3,5.9,6.3,11.9,9.1,18.1c-3.4-5.8-6.9-11.6-10.4-17.3c-3.5-5.7-7.1-11.4-10.9-17c-3.7-5.6-7.5-11.1-11.4-16.6
			C228.1,43.9,224.2,38.4,220.2,33z"/>
	</g>
	<g>
		<path class="st9" d="M230.4,36c4.4,3.7,8.7,7.6,12.8,11.6c4.1,4,8,8.3,11.9,12.6c3.8,4.3,7.5,8.8,10.9,13.4
			c3.5,4.6,6.8,9.3,9.8,14.2l-11-13.3c-3.7-4.4-7.4-8.8-11.2-13.1c-3.8-4.3-7.6-8.6-11.5-12.8L230.4,36z"/>
	</g>
	<g>
		<path class="st9" d="M233,31.7c6.4,3.9,12.4,8.6,17.8,13.7c5.5,5.2,10.4,10.8,15.1,16.8c4.6,5.9,8.9,12.1,12.9,18.4
			c4,6.3,7.8,12.8,11.4,19.3c-4.3-6.1-8.5-12.3-12.7-18.5c-4.3-6.1-8.6-12.2-13.2-18.1c-4.6-5.9-9.4-11.5-14.6-16.9
			C244.5,41.2,239,36.2,233,31.7z"/>
	</g>
	<g>
		<path class="st9" d="M248,38.5c3.9,3.1,7.6,6.4,11.3,9.8c3.7,3.4,7.2,6.9,10.7,10.4c3.5,3.6,6.9,7.2,10.2,10.9
			c3.3,3.7,6.5,7.5,9.6,11.5c-3.6-3.4-7.2-6.9-10.7-10.4c-3.5-3.5-7-7.1-10.5-10.6l-10.4-10.7C254.8,45.8,251.3,42.2,248,38.5z"/>
	</g>
	<g>
		<path class="st9" d="M251.5,28.8c0.1,0,0.1,0,0.2-0.1c0-0.1,0-0.1,0-0.2c-0.1-0.1-0.2-0.2-0.3-0.2c-0.3-0.1-0.4,0.1-0.4,0.4
			c0.1,0.5,0.5,0.8,0.9,1.2l2.5,2c1.7,1.3,3.3,2.7,4.9,4.1c1.6,1.4,3.2,2.8,4.8,4.3c1.6,1.4,3.1,2.9,4.7,4.4
			c6.2,6,11.9,12.4,17.4,19c5.4,6.7,10.4,13.7,15,20.9c4.6,7.2,8.8,14.8,12.4,22.5c-4.3-7.4-8.9-14.6-13.7-21.7
			c-4.8-7-9.9-13.9-15.3-20.5c-5.4-6.6-11-13-16.9-19.2c-1.5-1.5-3-3.1-4.5-4.6c-1.5-1.5-3-3-4.6-4.5c-1.5-1.5-3.1-3-4.6-4.4
			l-2.3-2.2c-0.4-0.4-0.9-0.8-0.9-1.4c0-0.2,0.1-0.3,0.2-0.4c0.1-0.1,0.3-0.1,0.4,0c0.1,0.1,0.2,0.2,0.3,0.3c0,0.1,0.1,0.1,0,0.2
			C251.6,28.8,251.6,28.8,251.5,28.8z"/>
	</g>
	<g>
		<path class="st9" d="M250.1,37.4c4.5,3.6,8.7,7.4,12.7,11.6c4,4.1,7.7,8.5,11.2,13c3.5,4.5,6.8,9.2,9.7,14.1c3,4.9,5.7,9.9,8,15.2
			c-3-4.9-6.1-9.6-9.3-14.3c-3.2-4.7-6.5-9.3-10-13.8c-3.5-4.5-7.1-8.9-10.8-13.2C257.9,45.8,254,41.6,250.1,37.4z"/>
	</g>
	<g>
		<path class="st9" d="M248.3,26c-0.2,0.1-0.2,0.3-0.2,0.4c0,0.1,0.1,0.2,0.2,0.3c0.1,0,0.2,0,0.3-0.1c0.1-0.1,0.2-0.3,0.2-0.5
			c0-0.2-0.1-0.4-0.3-0.5c-0.1-0.1-0.2-0.1-0.3,0c-0.1,0-0.2,0.2-0.2,0.3c0,0.1,0,0.3,0.2,0.4c0.2,0.2,0.1,0.4,0,0.6
			c-0.1,0.1-0.3,0.3-0.5,0.3c-0.2,0-0.4,0-0.6-0.1c-0.2-0.1-0.4-0.4-0.4-0.7c0-0.3,0.1-0.6,0.3-0.8c0.2-0.2,0.4-0.2,0.6-0.2
			c0.2,0,0.4,0.1,0.5,0.2C248.4,25.6,248.5,25.8,248.3,26z"/>
	</g>
	<g>
		<path class="st9" d="M248.5,28.8c13.7,5.5,26.3,13.8,37.3,23.8c5.4,5,10.5,10.5,15,16.4c4.5,5.9,8.5,12.2,11.8,18.8
			c-4-6.2-8.3-12.2-13-17.8c-4.7-5.6-9.7-11-15.1-15.9C273.7,44.1,261.6,35.7,248.5,28.8z"/>
	</g>
	<g>
		<path class="st9" d="M245.8,27.7c9.1,3.5,17.8,8.2,25.9,13.9c8.1,5.6,15.4,12.2,22.1,19.5c6.6,7.3,12.4,15.3,17.2,23.9
			c4.8,8.6,8.6,17.7,11.2,27.1c-3.3-9.2-7.6-18-12.6-26.3c-5-8.3-10.8-16.2-17.3-23.3C279.2,48,263.4,36.2,245.8,27.7z"/>
	</g>
	<g>
		<path class="st9" d="M52.5,80.8c1.1-1.5,2.3-3,3.6-4.3c1.3-1.3,2.7-2.6,4.2-3.7l0.5,0.9c-4.8,2.5-8.7,6.2-12.3,10.3
			c-3.6,4.1-6.9,8.4-10.2,12.7c-3.3,4.3-6.5,8.7-9.8,13.1c-3.2,4.4-6.5,8.8-9.8,13.1c2.8-4.7,5.6-9.4,8.6-14c3-4.6,6.1-9.1,9.4-13.5
			c1.6-2.2,3.3-4.4,5.1-6.5c1.7-2.1,3.5-4.2,5.4-6.2c3.7-4,8-7.8,13.2-10l0.5,0.9c-1.5,1-3,2.1-4.4,3.3
			C55.1,78.2,53.7,79.5,52.5,80.8z"/>
	</g>
	<g>
		<path class="st9" d="M65.6,75.7c-2.7,0.7-5.1,2-7.1,3.7c-2.1,1.7-3.9,3.7-5.6,5.8c-3.4,4.2-6.6,8.7-9.8,13.1
			c-1.6,2.2-3.1,4.5-4.7,6.7l-4.6,6.8c-3.1,4.5-6.2,9.1-9.4,13.5c2.6-4.9,5.2-9.7,8.1-14.4c2.8-4.7,5.8-9.3,9-13.8
			c3.2-4.5,6.5-8.8,10.2-13c1.9-2.1,3.9-4,6.2-5.6C60.3,77.1,62.9,75.9,65.6,75.7z"/>
	</g>
	<g>
		<path class="st9" d="M73.2,70.6c-3.7,3.5-7.1,7.3-10.2,11.3c-3.1,4-5.8,8.2-8.4,12.6c-2.6,4.3-5,8.8-7.3,13.4
			c-2.3,4.5-4.6,9.1-7,13.6c1.7-4.8,3.5-9.6,5.6-14.3c2.1-4.7,4.4-9.3,7-13.7c2.6-4.4,5.5-8.7,8.9-12.6C65.2,77.1,69,73.5,73.2,70.6
			z"/>
	</g>
	<g>
		<path class="st9" d="M79.4,69.1c-4.7,3.8-8,8.9-10.8,14.1c-1.4,2.6-2.8,5.3-4.2,8c-1.4,2.7-2.7,5.4-4.1,8.1
			c-2.7,5.4-5.3,10.8-7.9,16.2l-7.7,16.4c1.8-5.8,3.9-11.4,6.2-17c2.3-5.6,4.8-11.1,7.5-16.5c2.7-5.4,5.5-10.7,8.7-15.9
			c1.6-2.6,3.3-5.1,5.3-7.4C74.6,72.8,76.8,70.7,79.4,69.1z"/>
	</g>
	<g>
		<path class="st9" d="M83.3,73.8c-2.3,0.6-3.9,2.6-5.1,4.5c-0.6,1-1.2,2-1.7,3.1l-1.7,3.1c-2.2,4.2-4.3,8.4-6.3,12.7
			c-2,4.3-3.9,8.6-5.9,12.9c-1.9,4.3-3.9,8.6-6,12.9c1.3-4.6,2.9-9,4.5-13.5c1.7-4.4,3.5-8.8,5.5-13.1c2-4.3,4.2-8.5,6.7-12.6
			c1.3-2,2.5-4,4-5.9c0.8-0.9,1.6-1.9,2.6-2.6C81,74.4,82.2,73.9,83.3,73.8z"/>
	</g>
	<g>
		<path class="st9" d="M99.7,60.7c-2.5,2.8-4.6,6-6.4,9.3c-1.8,3.3-3.5,6.7-5.2,10.1c-3.4,6.8-6.7,13.6-9.8,20.4
			c-3.2,6.8-6.2,13.8-9.2,20.7c-1.5,3.5-3,6.9-4.2,10.5c-1.2,3.5-2.1,7.2-2.5,11c-0.1-3.8,0.6-7.6,1.5-11.3c1-3.7,2.3-7.3,3.7-10.8
			c2.7-7.1,5.7-14.1,8.9-21c3.2-6.9,6.6-13.7,10.3-20.3c1.8-3.3,3.7-6.6,5.7-9.9C94.5,66.3,96.8,63.2,99.7,60.7z"/>
	</g>
	<g>
		<path class="st9" d="M110.7,56.8c-5.2,6-8.7,13.1-12.2,20.2c-3.5,7.1-6.8,14.3-9.8,21.6c-3.1,7.3-5.9,14.7-8.6,22.1
			c-2.6,7.5-5.1,15-7.4,22.6c1.6-7.8,3.5-15.5,5.9-23.1c2.4-7.6,5.1-15.1,8.2-22.4c1.5-3.7,3.2-7.3,4.9-10.9
			c1.7-3.6,3.5-7.1,5.4-10.6c1.9-3.5,3.8-7,6-10.3C105.4,62.7,107.8,59.5,110.7,56.8z"/>
	</g>
	<g>
		<path class="st9" d="M107.9,60.6c-2.3,5.9-4.5,11.8-6.6,17.7c-2.1,5.9-4.2,11.9-6,17.9c-1.9,6-3.6,12-5.3,18.1
			c-1.6,6.1-3.2,12.2-4.7,18.3c0.7-6.3,1.8-12.5,3.2-18.7c1.4-6.2,3-12.3,4.9-18.3c1.9-6,4.1-12,6.5-17.8
			C102.2,71.9,104.9,66.2,107.9,60.6z"/>
	</g>
	<g>
		<path class="st9" d="M112.4,63.2c-2.6,6.3-5,12.6-7.3,19c-2.3,6.4-4.4,12.8-6.2,19.3c-1.9,6.5-3.6,13-5.1,19.6
			c-1.5,6.6-2.9,13.2-4.1,19.9c0.5-6.8,1.3-13.5,2.6-20.2c1.2-6.7,2.8-13.3,4.7-19.8c1.9-6.5,4.1-13,6.7-19.3
			C106.2,75.3,109.1,69.2,112.4,63.2z"/>
	</g>
	<g>
		<path class="st9" d="M116.9,66.9c-4.2,12.1-7.7,24.4-9.9,37c-1.2,6.3-2,12.6-2.6,18.9c-0.6,6.4-0.9,12.7-1.1,19.2
			c-0.6-6.4-0.8-12.8-0.5-19.3c0.3-6.4,1.1-12.8,2.2-19.2C107.4,90.8,111.2,78.4,116.9,66.9z"/>
	</g>
	<g>
		<path class="st9" d="M121.3,75c-1.6,2.4-2.6,5-3.3,7.7c-0.7,2.7-1.3,5.5-1.9,8.2c-1.2,5.5-2.3,11.1-3.2,16.6
			c-1,5.6-1.8,11.2-2.5,16.8c-0.7,5.6-1.3,11.2-1.8,16.9c-0.2-5.7-0.1-11.4,0.3-17c0.4-5.7,1.1-11.3,2-16.9c1-5.6,2.2-11.2,3.7-16.7
			c0.8-2.7,1.5-5.5,2.5-8.2C118.1,79.8,119.4,77.1,121.3,75z"/>
	</g>
	<g>
		<path class="st9" d="M118.1,89.1l-1.8,13.3c-0.5,4.4-1.1,8.8-1.5,13.3c-0.4,4.4-0.8,8.9-1,13.3l-0.7,13.4
			c-0.6-4.5-0.8-8.9-0.8-13.4c0-4.5,0.2-9,0.6-13.4c0.4-4.5,1.1-8.9,1.9-13.3C115.6,97.7,116.7,93.4,118.1,89.1z"/>
	</g>
	<g>
		<path class="st9" d="M87.9,71.7c-1,0.2-1.8,0.7-2.5,1.4c-0.7,0.7-1.3,1.4-1.8,2.2c-1,1.6-2,3.3-3,5c-2,3.3-3.9,6.7-5.9,10.1
			c-3.8,6.8-7.5,13.6-10.9,20.6c-3.5,7-6.7,14-9.8,21.2c-3.1,7.2-6,14.4-8.7,21.7c2-7.5,4.5-15,7.3-22.3c2.8-7.3,6-14.5,9.4-21.5
			c3.5-7,7.3-13.9,11.4-20.5l3.1-5c1.1-1.6,2.2-3.3,3.3-4.9c1.1-1.6,2.2-3.2,3.4-4.8c0.6-0.8,1.3-1.5,2-2.2
			C86,72.3,86.9,71.9,87.9,71.7z"/>
	</g>
	<g>
		<path class="st9" d="M74,80.1c-4.3,5.2-8.1,10.7-11.7,16.3c-3.5,5.7-6.8,11.5-9.8,17.5c-3.1,5.9-6,12-9,18c-3,6-6,12-9.3,17.9
			c2.6-6.2,5.2-12.4,7.9-18.6c2.7-6.2,5.5-12.3,8.6-18.3c3.1-6,6.5-11.9,10.3-17.4C64.8,90,69.1,84.8,74,80.1z"/>
	</g>
	<g>
		<path class="st9" d="M66.7,79.8c-0.2-0.4-0.7-0.3-1-0.1c-0.3,0.2-0.6,0.4-0.8,0.7l-1.2,2c-0.8,1.3-1.6,2.6-2.5,3.9l-4.9,7.9
			c-3.3,5.3-6.5,10.5-9.7,15.8c-3.2,5.3-6.3,10.6-9.4,16L27.9,142c2.4-5.7,5.1-11.3,7.9-16.8c2.8-5.5,5.9-10.9,9.1-16.2
			c3.2-5.3,6.6-10.5,10.1-15.6c1.8-2.6,3.6-5.1,5.4-7.6c0.9-1.2,1.9-2.5,2.8-3.7l1.4-1.8c0.3-0.3,0.6-0.5,1-0.7
			c0.2-0.1,0.4-0.1,0.6-0.1C66.4,79.4,66.6,79.6,66.7,79.8z"/>
	</g>
	<g>
		<path class="st9" d="M67,75.4c-1.6,0.6-3,1.7-4.1,2.9c-1.2,1.2-2.2,2.6-3.3,4c-1.1,1.3-2.2,2.7-3.2,4c-1.1,1.4-2.1,2.7-3.2,4.1
			c-4.2,5.5-8.3,11-12.2,16.7c-3.9,5.6-7.7,11.4-11.3,17.2c-3.6,5.8-7.2,11.7-10.7,17.7c2.8-6.3,5.9-12.5,9.3-18.5
			c3.4-6,7.1-11.9,11-17.6c4-5.7,8.1-11.2,12.6-16.5c2.2-2.7,4.5-5.3,6.8-7.8c1.2-1.3,2.3-2.5,3.7-3.7C63.8,76.7,65.3,75.8,67,75.4z
			"/>
	</g>
	<g>
		<path class="st9" d="M66,73.7c-0.5-0.9-1.5-1.3-2.4-1.4c-1-0.1-1.9,0.1-2.7,0.6c-1.7,0.9-3,2.5-4.4,3.9c-1.4,1.4-2.8,2.8-4.2,4.2
			c-1.4,1.4-2.8,2.8-4.2,4.2c-5.5,5.7-10.9,11.5-16.1,17.5c-5.2,5.9-10.3,12-15.4,18.1L1.4,139.2c4.4-6.6,9.1-13.1,13.9-19.4
			c4.8-6.3,9.9-12.5,15.1-18.5c5.3-6,10.7-11.8,16.5-17.3c2.9-2.8,5.8-5.5,8.8-8.1c0.8-0.6,1.5-1.3,2.3-1.9c0.8-0.6,1.6-1.3,2.6-1.7
			c0.9-0.4,2-0.6,3-0.4C64.6,72.2,65.5,72.8,66,73.7z"/>
	</g>
	<g>
		<path class="st9" d="M107.7,31.5C87.3,45.1,68.6,61,52.1,79c-8.3,9-16,18.5-23.1,28.4c-7.1,9.9-13.6,20.3-19.6,31
			c5.2-11.1,11.4-21.7,18.3-31.9c6.9-10.2,14.6-19.8,22.9-28.8C67.3,59.6,86.5,43.8,107.7,31.5z"/>
	</g>
	<g>
		<path class="st9" d="M278.9,55.5c7.1,4.5,14.2,9.1,21.1,14c6.9,4.9,13.6,10,20.1,15.4c6.4,5.5,12.5,11.5,17.2,18.7
			c2.3,3.6,4.3,7.4,5.8,11.4c1.4,4,2.3,8.2,2.5,12.4c-1.1-8.4-4.7-16.1-9.5-22.9c-2.4-3.4-5.1-6.6-8-9.5c-2.9-3-6-5.8-9.2-8.5
			c-6.4-5.4-13-10.6-19.7-15.7C292.4,65.7,285.6,60.6,278.9,55.5z"/>
	</g>
	<g>
		<path class="st9" d="M309,88.2c4.1,2.3,8.1,5,11.9,7.9c3.8,2.9,7.4,6,10.9,9.2c3.4,3.3,6.7,6.7,9.8,10.4c3.1,3.6,5.9,7.4,8.5,11.5
			c-3.2-3.5-6.4-7-9.6-10.4c-3.3-3.4-6.6-6.7-10-10c-3.4-3.3-6.9-6.4-10.5-9.5C316.3,94.2,312.7,91.2,309,88.2z"/>
	</g>
	<g>
		<path class="st9" d="M307.3,95.2c3,1.7,5.8,3.6,8.6,5.6c2.8,2,5.4,4.2,8,6.4c2.6,2.3,5.1,4.6,7.4,7.1c2.4,2.5,4.7,5,6.7,7.7
			c-2.7-2.1-5.2-4.4-7.8-6.6l-7.7-6.7l-7.7-6.7C312.4,99.8,309.8,97.6,307.3,95.2z"/>
	</g>
	<g>
		<path class="st9" d="M298.5,82.4c10.6,6.2,20.3,14.1,28.9,23c4.3,4.5,8.3,9.2,12,14.1c3.7,4.9,7,10.2,9.9,15.6
			c-3.6-5-7.3-9.9-11.2-14.6c-3.9-4.7-7.9-9.3-12.2-13.7C317.5,97.9,308.3,89.9,298.5,82.4z"/>
	</g>
	<g>
		<path class="st9" d="M301.9,73.4c12.5,7.9,23.7,17.9,33.6,29c4.9,5.6,9.5,11.5,13.6,17.6c4.1,6.2,7.8,12.6,11,19.3
			c-3.8-6.3-7.9-12.5-12.2-18.4c-4.3-5.9-8.9-11.7-13.8-17.2C324.3,92.6,313.5,82.6,301.9,73.4z"/>
	</g>
	<g>
		<path class="st9" d="M286.9,70c5.6,3.9,10.8,8.4,15.5,13.3c4.8,4.9,9.2,10.1,13.3,15.5c4.1,5.4,8,11,11.6,16.8
			c3.7,5.7,7.1,11.6,10.4,17.5c-4-5.5-7.8-11.1-11.7-16.7c-3.9-5.5-7.8-11.1-11.9-16.4c-4.1-5.4-8.4-10.6-12.9-15.7
			C296.7,79.3,291.9,74.5,286.9,70z"/>
	</g>
	<g>
		<path class="st9" d="M282.5,71.4c5.2,4.4,10.2,9.2,14.8,14.3c4.6,5.1,8.9,10.5,12.9,16.1c3.9,5.6,7.6,11.5,10.8,17.5
			c3.3,6,6.1,12.3,8.5,18.7c-3.1-6.1-6.4-12.1-9.8-18c-3.5-5.9-7.2-11.6-11.1-17.2c-3.9-5.6-8.1-11-12.4-16.2
			C291.7,81.5,287.2,76.4,282.5,71.4z"/>
	</g>
	<g>
		<path class="st9" d="M278.8,77.2c4.3,4.1,8.3,8.5,12,13.1c3.8,4.6,7.3,9.3,10.7,14.2c3.3,4.9,6.5,10,9.4,15.2
			c2.9,5.2,5.5,10.5,7.8,16c-3-5.1-6-10.2-9.1-15.2c-3.1-5-6.3-10-9.7-14.8c-3.3-4.9-6.8-9.7-10.3-14.4
			C286.1,86.5,282.5,81.8,278.8,77.2z"/>
	</g>
	<g>
		<path class="st9" d="M281.2,81c3.8,4.3,7.3,8.9,10.5,13.7c3.2,4.8,6.1,9.7,8.9,14.8c2.7,5.1,5.1,10.3,7.2,15.7
			c2.1,5.3,4,10.8,5.4,16.4c-2.2-5.3-4.5-10.6-6.8-15.8c-2.4-5.2-4.9-10.3-7.6-15.4c-2.6-5.1-5.5-10-8.4-14.9
			C287.4,90.7,284.4,85.8,281.2,81z"/>
	</g>
	<g>
		<path class="st9" d="M270.8,79.4c3.7,4.3,7.1,8.9,10.3,13.6c3.2,4.7,6.1,9.5,8.9,14.5c2.7,5,5.3,10,7.6,15.2
			c2.3,5.2,4.4,10.5,6.1,15.9c-2.5-5.1-5-10.2-7.5-15.2c-2.6-5-5.2-10-7.9-14.9c-2.7-4.9-5.6-9.8-8.5-14.6
			C276.8,88.9,273.8,84.1,270.8,79.4z"/>
	</g>
	<g>
		<path class="st9" d="M267.8,79.3c3.6,4.8,7,9.9,10,15.1c3.1,5.2,5.8,10.6,8.3,16.1c2.5,5.5,4.7,11.1,6.7,16.9
			c2,5.7,3.6,11.6,4.8,17.5c-2-5.7-4.1-11.3-6.3-16.9c-2.2-5.6-4.5-11.1-7-16.6c-2.5-5.5-5.1-10.8-7.9-16.2
			C273.6,89.8,270.7,84.5,267.8,79.3z"/>
	</g>
	<g>
		<path class="st9" d="M263.2,79.2c3.5,4.7,6.7,9.7,9.6,14.8c2.9,5.1,5.6,10.3,8.1,15.7c2.4,5.4,4.7,10.8,6.6,16.4
			c1.9,5.6,3.6,11.2,4.9,16.9c-2-5.5-4.2-11-6.3-16.4c-2.2-5.4-4.5-10.8-6.9-16.1c-2.4-5.3-5-10.6-7.6-15.8
			C268.8,89.5,266,84.3,263.2,79.2z"/>
	</g>
	<g>
		<path class="st9" d="M264.7,84c2.6,4.3,4.9,8.7,7.1,13.2c2.2,4.5,4.1,9.1,6,13.7c1.8,4.7,3.5,9.4,5,14.1c1.5,4.8,2.8,9.6,3.9,14.5
			c-1.8-4.6-3.6-9.3-5.4-14c-1.8-4.6-3.6-9.3-5.4-13.9c-1.8-4.6-3.7-9.2-5.6-13.8C268.4,93.2,266.5,88.7,264.7,84z"/>
	</g>
	<g>
		<path class="st9" d="M253.4,80.4c0.2-0.2-0.1-0.4-0.2-0.4c-0.2,0-0.4,0-0.4,0.2c-0.1,0.4,0.1,0.7,0.3,1l1.4,2
			c0.9,1.4,1.9,2.7,2.8,4.1c1.8,2.8,3.5,5.6,5.2,8.4c3.3,5.7,6.4,11.5,9.2,17.5c2.8,6,5.4,12,7.6,18.2c2.3,6.2,4.2,12.5,5.9,18.8
			c-2.4-6.1-4.8-12.2-7.3-18.3c-2.5-6-5.2-12-8-17.9c-2.8-5.9-5.7-11.8-8.7-17.6c-0.8-1.5-1.5-2.9-2.3-4.3c-0.8-1.4-1.5-2.9-2.3-4.3
			c-0.8-1.4-1.6-2.9-2.4-4.3l-1.2-2.1c-0.2-0.4-0.4-0.8-0.2-1.3c0.1-0.2,0.4-0.3,0.6-0.2C253.4,80,253.6,80.2,253.4,80.4z"/>
	</g>
	<g>
		<path class="st9" d="M255.4,93.7c2.5,4.3,4.8,8.8,6.9,13.3c2.1,4.5,4,9.2,5.8,13.8c1.8,4.7,3.4,9.4,4.8,14.2
			c1.4,4.8,2.7,9.7,3.6,14.6c-1.7-4.7-3.4-9.4-5.1-14.1c-1.7-4.7-3.4-9.4-5.2-14c-1.7-4.7-3.6-9.3-5.4-13.9
			C259,103,257.2,98.3,255.4,93.7z"/>
	</g>
	<g>
		<path class="st9" d="M235.1,80c3.5,5.2,6.8,10.6,9.8,16.2c3,5.5,5.8,11.2,8.4,17c2.6,5.8,4.9,11.6,7,17.6c2.1,6,3.9,12,5.5,18.1
			c-2.3-5.9-4.6-11.7-6.9-17.6c-2.4-5.8-4.8-11.6-7.4-17.3c-2.5-5.7-5.2-11.4-8-17.1C240.7,91.3,237.9,85.6,235.1,80z"/>
	</g>
	<g>
		<path class="st9" d="M232.2,76.9c3.4,5,6.6,10.2,9.5,15.5c2.9,5.3,5.5,10.9,7.8,16.5c2.3,5.6,4.4,11.3,6.2,17.1
			c1.8,5.8,3.3,11.7,4.4,17.7c-1.9-5.8-3.8-11.5-5.9-17.2c-2.1-5.7-4.2-11.3-6.6-16.9c-2.3-5.6-4.8-11.1-7.4-16.5
			C237.7,87.7,235,82.3,232.2,76.9z"/>
	</g>
	<g>
		<path class="st9" d="M225,77.5c3.6,5.3,6.8,10.8,9.7,16.5c2.9,5.7,5.5,11.6,7.8,17.5c2.3,6,4.3,12.1,5.9,18.3
			c1.7,6.2,2.9,12.5,3.8,18.8c-1.6-6.2-3.4-12.3-5.3-18.3c-1.9-6.1-4-12.1-6.3-18c-2.3-5.9-4.7-11.8-7.4-17.6
			C230.6,88.9,227.9,83.2,225,77.5z"/>
	</g>
	<g>
		<path class="st9" d="M215.6,80.4c3.4,5.3,6.4,10.7,9.1,16.4c2.7,5.6,5.1,11.4,7.3,17.3c2.1,5.9,4,11.9,5.5,17.9
			c1.5,6.1,2.7,12.2,3.4,18.4c-1.5-6-3.2-12-5-18c-1.8-5.9-3.7-11.8-5.8-17.7c-2.1-5.8-4.4-11.6-6.8-17.3
			C220.9,91.7,218.3,86,215.6,80.4z"/>
	</g>
	<g>
		<path class="st9" d="M211.2,76c2.5,5.7,4.7,11.5,6.7,17.3c2,5.9,3.8,11.8,5.4,17.8c1.6,6,3.1,12,4.3,18.1c1.2,6.1,2.2,12.2,3,18.4
			l-4.5-18c-1.5-6-3-12-4.7-17.9c-1.6-6-3.3-11.9-5-17.8L211.2,76z"/>
	</g>
	<g>
		<path class="st9" d="M205.2,79.2c2.2,4.7,4.2,9.6,5.9,14.5c1.7,4.9,3.2,9.9,4.5,15c1.3,5.1,2.4,10.2,3.2,15.3
			c0.9,5.1,1.5,10.3,1.8,15.5l-3.3-15.3c-1.1-5.1-2.3-10.1-3.6-15.1c-1.3-5-2.6-10-4.1-15L205.2,79.2z"/>
	</g>
	<g>
		<path class="st9" d="M199.1,76c1.9,5.6,3.6,11.3,5.1,17c1.4,5.7,2.6,11.6,3.7,17.4c1,5.8,1.8,11.7,2.4,17.6
			c0.6,5.9,0.9,11.8,1,17.8l-2.5-17.6c-0.9-5.8-1.8-11.7-2.8-17.5c-1-5.8-2.1-11.6-3.2-17.4L199.1,76z"/>
	</g>
	<g>
		<path class="st9" d="M196.3,76c1.1,6.1,2.1,12.2,3,18.3c0.9,6.1,1.8,12.3,2.6,18.4c0.8,6.1,1.6,12.3,2.3,18.4
			c0.7,6.1,1.4,12.3,1.9,18.5c-1.3-6.1-2.4-12.2-3.4-18.3c-1-6.1-1.9-12.2-2.7-18.4c-0.8-6.1-1.6-12.3-2.2-18.5
			C197.1,88.4,196.6,82.2,196.3,76z"/>
	</g>
	<g>
		<path class="st9" d="M194.2,78c-0.4-0.6-1.2-0.9-1.8-0.8l0.2-0.2c0.3,4.4,0.5,8.7,0.8,13.1l0.6,13.1l0.5,13.1
			c0.1,4.4,0.3,8.7,0.3,13.1c-0.8-4.3-1.3-8.7-1.8-13c-0.4-4.4-0.7-8.7-0.9-13.1c-0.2-4.4-0.3-8.8-0.3-13.1c0-4.4,0.2-8.8,0.5-13.1
			l0-0.2l0.2,0C193.1,76.9,193.8,77.4,194.2,78z"/>
	</g>
	<g>
		<path class="st9" d="M183.9,75.6c0.3,6.4,0.6,12.7,0.9,19c0.3,6.3,0.5,12.7,0.9,19c0.3,6.3,0.7,12.7,1,19c0.4,6.3,0.7,12.7,1.1,19
			c-1.1-6.3-2-12.6-2.6-18.9c-0.7-6.3-1.1-12.7-1.5-19c-0.3-6.4-0.5-12.7-0.4-19.1C183.2,88.3,183.4,82,183.9,75.6z"/>
	</g>
	<g>
		<path class="st9" d="M177.6,72.9c0.2,6.5,0.3,12.9,0.5,19.4c0.1,6.5,0.3,12.9,0.5,19.4c0.2,6.5,0.4,12.9,0.6,19.4
			c0.2,6.5,0.4,12.9,0.6,19.4c-0.9-6.4-1.6-12.8-2.1-19.3c-0.5-6.5-0.8-12.9-1-19.4c-0.2-6.5-0.2-12.9,0-19.4
			C176.6,85.8,177,79.3,177.6,72.9z"/>
	</g>
	<g>
		<path class="st9" d="M172.2,74.1c-0.5,0.4-0.8,1-0.9,1.6c-0.1,0.6-0.1,1.2-0.1,1.9l0,3.9l-0.1,7.7c-0.1,5.1-0.3,10.3-0.4,15.4
			c-0.2,5.1-0.4,10.3-0.6,15.4c-0.2,5.1-0.5,10.3-0.9,15.4c-0.4-5.1-0.6-10.3-0.6-15.4c-0.1-5.1,0-10.3,0.2-15.4
			c0.2-5.1,0.5-10.3,0.9-15.4c0.2-2.6,0.4-5.1,0.7-7.7l0.4-3.8c0.1-0.6,0.1-1.3,0.3-1.9C171.3,75,171.6,74.4,172.2,74.1z"/>
	</g>
	<g>
		<path class="st9" d="M168.6,66.6l-1.9,18.8c-0.6,6.3-1.2,12.5-1.6,18.8c-0.5,6.3-0.8,12.6-1.2,18.9L163,142
			c-0.5-6.3-0.8-12.6-0.7-19c0-6.3,0.3-12.6,0.7-19c0.5-6.3,1.1-12.6,2-18.9C166,78.9,167.1,72.7,168.6,66.6z"/>
	</g>
	<g>
		<path class="st9" d="M157.1,70.1c-0.2,6.3-0.4,12.6-0.7,18.9l-0.8,18.9l-0.9,18.9c-0.3,6.3-0.6,12.6-1,18.9
			c-0.4-6.3-0.6-12.6-0.5-19c0-6.3,0.2-12.6,0.4-19c0.3-6.3,0.7-12.6,1.3-18.9C155.5,82.6,156.2,76.4,157.1,70.1z"/>
	</g>
	<g>
		<path class="st9" d="M155.5,79.9c-0.6,0-1.2,0.2-1.7,0.6c-0.4,0.4-0.8,0.9-1,1.5c-0.5,1.1-0.7,2.3-1,3.5c-0.5,2.4-1,4.9-1.5,7.3
			c-0.9,4.9-1.8,9.8-2.5,14.7c-0.7,4.9-1.3,9.8-1.9,14.8c-0.5,4.9-0.9,9.9-1.4,14.9c-0.4-5-0.4-10-0.2-15c0.2-5,0.7-10,1.5-14.9
			c0.8-5,1.7-9.9,3-14.7c0.6-2.4,1.3-4.8,2.1-7.2c0.4-1.2,0.7-2.4,1.4-3.5c0.3-0.5,0.8-1.1,1.3-1.4
			C154.2,79.9,154.9,79.7,155.5,79.9z"/>
	</g>
	<g>
		<path class="st9" d="M144.5,86.4c-0.4,5.1-0.9,10.2-1.3,15.3c-0.4,5.1-0.9,10.2-1.2,15.3c-0.4,5.1-0.7,10.2-1,15.3
			c-0.3,5.1-0.6,10.2-1,15.3c-0.5-5.1-0.6-10.2-0.6-15.4c0-5.1,0.2-10.3,0.6-15.4c0.4-5.1,0.9-10.2,1.7-15.3
			C142.4,96.4,143.3,91.4,144.5,86.4z"/>
	</g>
	<g>
		<path class="st9" d="M137,77.3l-2.2,16.6c-0.7,5.5-1.4,11-1.9,16.6c-0.6,5.5-1.1,11.1-1.6,16.6l-1.4,16.7
			c-0.3-5.6-0.4-11.2-0.2-16.8c0.2-5.6,0.6-11.2,1.2-16.7c0.6-5.6,1.4-11.1,2.4-16.6C134.2,88.2,135.5,82.7,137,77.3z"/>
	</g>
	<g>
		<path class="st9" d="M131.3,76.7c-1.1,2.6-1.6,5.3-2.3,8l-0.9,4.1l-0.8,4.1c-1,5.4-1.7,10.9-2.2,16.4c-0.5,5.5-0.6,11-0.5,16.5
			c0.1,5.5,0.5,11.1,1.1,16.6c-1.4-5.4-2.3-10.9-2.7-16.5c-0.4-5.6-0.4-11.2,0-16.8c0.5-5.6,1.3-11.1,2.6-16.6
			c0.3-1.4,0.7-2.7,1.1-4.1l1.2-4l1.4-3.9C129.9,79.2,130.5,77.9,131.3,76.7z"/>
	</g>
	<g>
		<path class="st9" d="M127.6,74.9c-0.9,6-1.7,11.9-2.4,17.9c-0.7,6-1.2,12-1.6,18c-0.4,6-0.6,12-0.6,18c0,6,0,12,0.2,18.1
			c-0.9-6-1.5-12-1.8-18c-0.3-6-0.2-12.1,0.2-18.2c0.4-6,1-12.1,2-18C124.6,86.6,125.9,80.7,127.6,74.9z"/>
	</g>
	<g>
		<path class="st9" d="M107.1,29.2c-8.5,6.3-16.8,12.8-25.1,19.4C73.9,55.2,65.8,62,57.9,69C50,76,42.3,83.2,34.7,90.6
			c-1.9,1.8-3.8,3.7-5.7,5.5c-1.9,1.8-3.7,3.7-5.6,5.6c-1.9,1.9-3.7,3.8-5.5,5.7l-1.4,1.4c-0.5,0.5-0.9,0.9-1.3,1.5
			c-0.4,0.5-0.7,1.1-0.8,1.8c-0.1,0.6,0.1,1.4,0.6,1.7c-0.6-0.3-0.8-1.1-0.7-1.7c0.1-0.7,0.4-1.3,0.7-1.9c0.3-0.6,0.8-1.1,1.3-1.5
			l1.3-1.5c1.8-1.9,3.6-3.9,5.4-5.8c1.8-1.9,3.6-3.8,5.5-5.7c1.8-1.9,3.7-3.8,5.6-5.6c7.5-7.5,15.2-14.7,23.1-21.7
			c7.9-7,16-13.8,24.4-20.3C89.9,41.4,98.4,35.1,107.1,29.2z"/>
	</g>
</g>
</svg>
