<?xml version="1.0" encoding="utf-8"?>
<!-- Generator: Adobe Illustrator 21.0.2, SVG Export Plug-In . SVG Version: 6.00 Build 0)  -->
<svg version="1.1" id="Layer_1" xmlns="http://www.w3.org/2000/svg" xmlns:xlink="http://www.w3.org/1999/xlink" x="0px" y="0px"
	 viewBox="0 0 361.146 433.254" style="enable-background:new 0 0 361.146 433.254;" xml:space="preserve">
<style type="text/css">
	.st0{fill:url(#SVGID_1_);}
	.st1{fill:#B98E68;}
	.st2{fill:url(#SVGID_2_);}
	.st3{fill:url(#SVGID_3_);}
	.st4{fill:url(#SVGID_4_);}
	.st5{fill:url(#SVGID_5_);}
	.st6{fill:url(#SVGID_6_);}
	.st7{fill:url(#SVGID_7_);}
	.st8{fill:url(#SVGID_8_);}
	.st9{fill:url(#SVGID_9_);}
</style>
<g>
	<linearGradient id="SVGID_1_" gradientUnits="userSpaceOnUse" x1="324.0287" y1="297.6954" x2="324.0287" y2="137.5387">
		<stop  offset="0" style="stop-color:#9D6D51"/>
		<stop  offset="0.4893" style="stop-color:#9B6C50"/>
		<stop  offset="0.6655" style="stop-color:#96684C"/>
		<stop  offset="0.7911" style="stop-color:#8D6146"/>
		<stop  offset="0.8926" style="stop-color:#80583D"/>
		<stop  offset="0.9786" style="stop-color:#6F4C32"/>
		<stop  offset="1" style="stop-color:#6A492F"/>
	</linearGradient>
	<polyline class="st0" points="350.856,266.39 350.856,137.539 297.201,137.539 297.201,297.695 350.856,266.39 	"/>
	<polygon class="st1" points="350.856,374.795 338.66,374.795 338.66,273.506 350.856,266.546 	"/>
	<rect x="173.153" y="293.479" class="st1" width="7.37" height="139.775"/>
	<rect x="126.73" y="293.479" class="st1" width="7.37" height="139.775"/>
	
		<rect x="149.997" y="290.173" transform="matrix(-1.836970e-16 1 -1 -1.836970e-16 470.8074 163.4431)" class="st1" width="7.37" height="53.904"/>
	
		<rect x="149.997" y="314.536" transform="matrix(-1.836970e-16 1 -1 -1.836970e-16 495.17 187.8056)" class="st1" width="7.37" height="53.904"/>
	
		<rect x="149.997" y="338.898" transform="matrix(-1.836970e-16 1 -1 -1.836970e-16 519.5325 212.1681)" class="st1" width="7.37" height="53.904"/>
	
		<rect x="149.997" y="363.261" transform="matrix(-1.836970e-16 1 -1 -1.836970e-16 543.895 236.5306)" class="st1" width="7.37" height="53.904"/>
	<rect x="10.163" y="290.175" class="st1" width="17.498" height="121.408"/>
	<rect x="86.209" y="290.175" class="st1" width="12.196" height="84.62"/>
	<rect x="279.703" y="290.175" class="st1" width="17.498" height="121.408"/>
	<linearGradient id="SVGID_2_" gradientUnits="userSpaceOnUse" x1="10.1632" y1="293.9353" x2="297.2011" y2="293.9353">
		<stop  offset="0" style="stop-color:#7D4930"/>
		<stop  offset="0.4093" style="stop-color:#875438"/>
		<stop  offset="1" style="stop-color:#9C6B4B"/>
	</linearGradient>
	<rect x="10.163" y="290.175" class="st2" width="287.038" height="7.52"/>
	<linearGradient id="SVGID_3_" gradientUnits="userSpaceOnUse" x1="153.6822" y1="291.1002" x2="153.6822" y2="137.5387">
		<stop  offset="0" style="stop-color:#BD8360"/>
		<stop  offset="0.4492" style="stop-color:#BB825F"/>
		<stop  offset="0.611" style="stop-color:#B57E5B"/>
		<stop  offset="0.7263" style="stop-color:#AB7755"/>
		<stop  offset="0.8196" style="stop-color:#9D6D4C"/>
		<stop  offset="0.8994" style="stop-color:#8B6042"/>
		<stop  offset="0.9689" style="stop-color:#755136"/>
		<stop  offset="1" style="stop-color:#6A492F"/>
	</linearGradient>
	<rect x="10.163" y="137.539" class="st3" width="287.038" height="153.562"/>
	<linearGradient id="SVGID_4_" gradientUnits="userSpaceOnUse" x1="180.5729" y1="137.5387" x2="180.5729" y2="0">
		<stop  offset="0" style="stop-color:#6F5140"/>
		<stop  offset="0.3449" style="stop-color:#795741"/>
		<stop  offset="0.9736" style="stop-color:#936641"/>
		<stop  offset="1" style="stop-color:#946640"/>
	</linearGradient>
	<path class="st4" d="M0,137.539C0,137.539,102.191,0,180.709,0s180.437,137.539,180.437,137.539H0z"/>
	<linearGradient id="SVGID_5_" gradientUnits="userSpaceOnUse" x1="153.6822" y1="293.6502" x2="153.6822" y2="172.2872">
		<stop  offset="0" style="stop-color:#7E5737"/>
		<stop  offset="0.5926" style="stop-color:#553D2C"/>
		<stop  offset="1" style="stop-color:#392A21"/>
	</linearGradient>
	<path class="st5" d="M183.737,202.333v91.317h-60.109v-91.317c0-16.592,13.454-30.046,30.063-30.046
		C170.283,172.287,183.737,185.741,183.737,202.333z"/>
	<linearGradient id="SVGID_6_" gradientUnits="userSpaceOnUse" x1="71.0646" y1="232.9688" x2="71.0646" y2="178.0431">
		<stop  offset="0" style="stop-color:#7E5737"/>
		<stop  offset="0.5926" style="stop-color:#553D2C"/>
		<stop  offset="1" style="stop-color:#392A21"/>
	</linearGradient>
	<path class="st6" d="M94.956,232.969H47.173c-5.133,0-9.333-4.2-9.333-9.333v-36.259c0-5.133,4.2-9.333,9.333-9.333h47.784
		c5.133,0,9.333,4.2,9.333,9.333v36.259C104.29,228.769,100.09,232.969,94.956,232.969z"/>
	<linearGradient id="SVGID_7_" gradientUnits="userSpaceOnUse" x1="236.2998" y1="233.0367" x2="236.2998" y2="178.1111">
		<stop  offset="0" style="stop-color:#7E5737"/>
		<stop  offset="0.5926" style="stop-color:#553D2C"/>
		<stop  offset="1" style="stop-color:#392A21"/>
	</linearGradient>
	<path class="st7" d="M260.192,233.037h-47.784c-5.133,0-9.333-4.2-9.333-9.333v-36.259c0-5.133,4.2-9.333,9.333-9.333h47.784
		c5.133,0,9.333,4.2,9.333,9.333v36.259C269.525,228.837,265.325,233.037,260.192,233.037z"/>
</g>
</svg>
