<?xml version="1.0" encoding="utf-8"?>
<!-- Generator: Adobe Illustrator 21.0.2, SVG Export Plug-In . SVG Version: 6.00 Build 0)  -->
<svg version="1.1" id="Layer_1" xmlns="http://www.w3.org/2000/svg" xmlns:xlink="http://www.w3.org/1999/xlink" x="0px" y="0px"
	 viewBox="0 0 135.2 391.9" style="enable-background:new 0 0 135.2 391.9;" xml:space="preserve">
<style type="text/css">
	.st0{fill:#F9C7DA;}
	.st1{fill:#F9B1DA;}
	.st2{fill:none;stroke:#FFFFFF;stroke-width:0.75;stroke-miterlimit:10;}
	.st3{fill:#FB7BB0;}
	.st4{fill:url(#SVGID_1_);}
</style>
<g>
	<g>
		<path class="st0" d="M11.7,203.5c17,99,34.8,141.7,45.3,159.6c4.5,7.6,13.6,11.3,22.1,9.1l1.2-0.3l1-0.3
			c8.8,0.2,16.7-5.4,19.4-13.8c6.5-20,13.8-66.1,3.7-166.2C91.3,61.9,50.5,16.5,37.7,5.2c-1.3-1.2-3.1-1.5-4.6-1
			c-1,0.3-1.8,0.9-2.5,1.7C20.2,19.8-10.7,73.5,11.7,203.5z"/>
		<path class="st1" d="M11.7,203.5c17,99,34.8,141.7,45.3,159.6c4.5,7.6,13.6,11.3,22.1,9.1l1.2-0.3L33,4.2c-1,0.3-1.8,0.9-2.5,1.7
			C20.2,19.8-10.7,73.5,11.7,203.5z"/>
		<line class="st2" x1="33" y1="4.2" x2="81.3" y2="371.7"/>
		<path class="st3" d="M91.1,370.4L75.3,246.9l0,0c7.4-1,14.4,3.7,16.3,10.9c4,14.9,10.4,42,14.6,74.7l-5.5,25.2L91.1,370.4z"/>
		<path class="st3" d="M70.5,373L54.7,249.6h0c-7.4,1-13,7.2-13,14.7c-0.1,15.4,0.5,43.2,4.7,76l14.8,27.8L70.5,373z"/>
		<path class="st2" d="M11.7,203.5c17,99,34.8,141.7,45.3,159.6c4.5,7.6,13.6,11.3,22.1,9.1l1.2-0.3l1-0.3
			c8.8,0.2,16.7-5.4,19.4-13.8c6.5-20,13.8-66.1,3.7-166.2C91.3,61.9,50.5,16.5,37.7,5.2c-1.3-1.2-3.1-1.5-4.6-1
			c-1,0.3-1.8,0.9-2.5,1.7C20.2,19.8-10.7,73.5,11.7,203.5z"/>
	</g>
	
		<linearGradient id="SVGID_1_" gradientUnits="userSpaceOnUse" x1="-8557.374" y1="369.8705" x2="-8557.374" y2="395.4987" gradientTransform="matrix(-1 0 0 1 -8483.5596 0)">
		<stop  offset="0" style="stop-color:#FBD9B1"/>
		<stop  offset="0.273" style="stop-color:#FCCD9E;stop-opacity:0.727"/>
		<stop  offset="0.8241" style="stop-color:#FEAE6D;stop-opacity:0.1759"/>
		<stop  offset="1" style="stop-color:#FFA35C;stop-opacity:0"/>
	</linearGradient>
	<path class="st4" d="M115.6,371.4c0,0-5.6-14.2-14.5-9.7s-16.8,7.9-22.8,6.8c-6.1-1.1-14-10.6-20.1-8.8
		c-6.1,1.8-18.7,13.4-28.2,23.7c-9.7,10.5,88.3,8.3,88.3,8.3L115.6,371.4z"/>
</g>
</svg>
