<?xml version="1.0" encoding="utf-8"?>
<!-- Generator: Adobe Illustrator 21.0.2, SVG Export Plug-In . SVG Version: 6.00 Build 0)  -->
<svg version="1.1" id="Layer_1" xmlns="http://www.w3.org/2000/svg" xmlns:xlink="http://www.w3.org/1999/xlink" x="0px" y="0px"
	 viewBox="0 0 135.187 391.879" style="enable-background:new 0 0 135.187 391.879;" xml:space="preserve">
<style type="text/css">
	.st0{fill:#F8C8DA;}
	.st1{fill:#F2B2D1;}
	.st2{fill:none;stroke:#FFFFFF;stroke-width:0.75;stroke-miterlimit:10;}
	.st3{fill:#EE7BAE;}
	.st4{fill:url(#SVGID_1_);}
</style>
<g>
	<g>
		<path class="st0" d="M118.371,210.912C95.73,313.726,75.106,357.562,63.18,375.812c-5.076,7.771-14.735,11.179-23.605,8.432
			l-1.221-0.377l-1.008-0.319c-9.255-0.21-17.25-6.491-19.682-15.421c-5.808-21.299-11.292-69.892,4.183-174.199
			C41.905,58.811,86.802,13.226,100.779,2.036c1.439-1.155,3.306-1.394,4.907-0.819c0.985,0.336,1.873,0.988,2.508,1.931
			C118.427,18.132,148.103,75.866,118.371,210.912z"/>
		<path class="st1" d="M118.371,210.912C95.73,313.726,75.106,357.562,63.18,375.812c-5.076,7.771-14.735,11.179-23.605,8.432
			l-1.221-0.377l67.332-382.65c0.985,0.336,1.873,0.988,2.508,1.931C118.427,18.132,148.103,75.866,118.371,210.912z"/>
		<line class="st2" x1="105.687" y1="1.217" x2="37.347" y2="383.548"/>
		<path class="st3" d="M27.129,381.75l22.605-128.468h0c-7.722-1.359-15.26,3.195-17.636,10.667
			c-4.906,15.43-12.955,43.414-18.955,77.512l4.521,26.666L27.129,381.75z"/>
		<path class="st3" d="M48.567,385.522l22.605-128.468h0c7.722,1.359,13.253,8.212,12.935,16.046
			c-0.656,16.177-2.643,45.228-8.643,79.326l-16.866,28.367L48.567,385.522z"/>
		<path class="st2" d="M118.372,210.913C95.73,313.726,75.107,357.562,63.181,375.812c-5.076,7.771-14.735,11.179-23.605,8.432
			l-1.221-0.377l-1.008-0.319c-9.255-0.21-17.25-6.491-19.682-15.421c-5.808-21.299-11.292-69.892,4.183-174.199
			C41.906,58.811,86.803,13.226,100.78,2.036c1.439-1.155,3.306-1.394,4.907-0.819c0.985,0.336,1.873,0.988,2.508,1.931
			C118.428,18.132,148.104,75.866,118.372,210.913z"/>
	</g>
	<linearGradient id="SVGID_1_" gradientUnits="userSpaceOnUse" x1="44.5521" y1="374.9214" x2="44.5521" y2="394.6679">
		<stop  offset="0" style="stop-color:#FBD9B2"/>
		<stop  offset="0.2856" style="stop-color:#FACD9E;stop-opacity:0.7144"/>
		<stop  offset="0.8622" style="stop-color:#F6AB6C;stop-opacity:0.1378"/>
		<stop  offset="1" style="stop-color:#F5A160;stop-opacity:0"/>
	</linearGradient>
	<path class="st4" d="M2.269,383.689c0,0,5.822-20.019,15.193-13.649c9.371,6.37,17.558,11.147,23.927,9.555
		c6.368-1.592,14.647-14.925,21.015-12.353c6.368,2.571,14.92,17.586,24.563,17.813c9.643,0.228-85.517,6.825-85.517,6.825
		L2.269,383.689z"/>
</g>
</svg>
