<?xml version="1.0" encoding="utf-8"?>
<!-- Generator: Adobe Illustrator 21.0.2, SVG Export Plug-In . SVG Version: 6.00 Build 0)  -->
<svg version="1.1" id="Layer_1" xmlns="http://www.w3.org/2000/svg" xmlns:xlink="http://www.w3.org/1999/xlink" x="0px" y="0px"
	 viewBox="0 0 505.604 409.114" style="enable-background:new 0 0 505.604 409.114;" xml:space="preserve">
<style type="text/css">
	.st0{fill:url(#SVGID_1_);}
	.st1{fill:none;stroke:#1AB6EB;stroke-miterlimit:10;}
</style>
<g>
	<linearGradient id="SVGID_1_" gradientUnits="userSpaceOnUse" x1="252.802" y1="0" x2="252.802" y2="213.121">
		<stop  offset="0" style="stop-color:#432B42"/>
		<stop  offset="0.4446" style="stop-color:#442D43"/>
		<stop  offset="0.6212" style="stop-color:#493448"/>
		<stop  offset="0.7502" style="stop-color:#524051"/>
		<stop  offset="0.856" style="stop-color:#5E525D"/>
		<stop  offset="0.9466" style="stop-color:#6D686D"/>
		<stop  offset="1" style="stop-color:#797979"/>
	</linearGradient>
	<path class="st0" d="M422.03,213.121c23.901,0,22.269-32.495,0-32.495h-39.487c-27.369,0-23.451-35.785,0-35.785h105.711
		c23.298,0,22.971-36.224-0.002-36.224H277.678c-12.256,0,101.231,0,115.377,0c57.085,0,55.84-68.71,1.651-70.034
		c-13.188-0.322-117.029-2.31-117.029-2.31h16.428C322.2,36.272,322.526,0,294.107,0H86.387c-24.054,0-24.054,36.209,0,36.209
		h61.175c25.639,0,25.639,36.726-0.003,36.726H18.417c-25.205,0-23.899,36.095,0,36.095h116.945c21.388,0,22.041,35.81,0,35.81
		H106.13c-21.925,0-21.925,35.785-0.185,35.785h66.224c-23.976,0-22.996,32.495,0.185,32.495H422.03z"/>
	<line class="st1" x1="193.745" y1="213.121" x2="282.04" y2="400.432"/>
	<line class="st1" x1="202.844" y1="268.854" x2="217.243" y2="299.4"/>
	<line class="st1" x1="229.368" y1="325.519" x2="243.767" y2="356.065"/>
	<line class="st1" x1="254.687" y1="378.567" x2="269.086" y2="409.114"/>
	<line class="st1" x1="177.279" y1="213.121" x2="192.195" y2="244.763"/>
	<line class="st1" x1="236.602" y1="268.854" x2="251.001" y2="299.4"/>
	<line class="st1" x1="263.126" y1="325.519" x2="277.526" y2="356.065"/>
	<line class="st1" x1="288.445" y1="378.567" x2="302.844" y2="409.114"/>
	<line class="st1" x1="211.037" y1="213.121" x2="225.953" y2="244.763"/>
	<line class="st1" x1="269.155" y1="268.854" x2="283.554" y2="299.4"/>
	<line class="st1" x1="295.679" y1="325.519" x2="310.078" y2="356.065"/>
	<line class="st1" x1="320.998" y1="378.567" x2="335.397" y2="409.114"/>
	<line class="st1" x1="243.59" y1="213.121" x2="258.505" y2="244.763"/>
	<line class="st1" x1="301.707" y1="268.854" x2="316.106" y2="299.4"/>
	<line class="st1" x1="328.231" y1="325.519" x2="342.63" y2="356.065"/>
	<line class="st1" x1="353.55" y1="378.567" x2="367.949" y2="409.114"/>
	<line class="st1" x1="276.142" y1="213.121" x2="291.058" y2="244.763"/>
	<line class="st1" x1="334.26" y1="268.854" x2="348.659" y2="299.4"/>
	<line class="st1" x1="360.784" y1="325.519" x2="375.183" y2="356.065"/>
	<line class="st1" x1="386.103" y1="378.567" x2="400.502" y2="409.114"/>
	<line class="st1" x1="308.695" y1="213.121" x2="323.61" y2="244.763"/>
	<line class="st1" x1="369.224" y1="268.854" x2="383.623" y2="299.4"/>
	<line class="st1" x1="395.748" y1="325.519" x2="410.147" y2="356.065"/>
	<line class="st1" x1="421.066" y1="378.567" x2="435.465" y2="409.114"/>
	<line class="st1" x1="343.659" y1="213.121" x2="358.574" y2="244.763"/>
	<line class="st1" x1="401.776" y1="268.854" x2="416.175" y2="299.4"/>
	<line class="st1" x1="428.3" y1="325.519" x2="442.699" y2="356.065"/>
	<line class="st1" x1="453.619" y1="378.567" x2="468.018" y2="409.114"/>
	<line class="st1" x1="376.211" y1="213.121" x2="391.127" y2="244.763"/>
	<line class="st1" x1="226.676" y1="213.121" x2="314.971" y2="400.432"/>
	<line class="st1" x1="259.607" y1="213.121" x2="347.902" y2="400.432"/>
	<line class="st1" x1="292.538" y1="213.121" x2="380.833" y2="400.432"/>
	<line class="st1" x1="325.469" y1="213.121" x2="413.764" y2="400.432"/>
	<line class="st1" x1="358.4" y1="213.121" x2="446.695" y2="400.432"/>
	<line class="st1" x1="391.331" y1="213.121" x2="479.626" y2="400.432"/>
</g>
</svg>
