<?xml version="1.0" encoding="utf-8"?>
<!-- Generator: Adobe Illustrator 21.0.2, SVG Export Plug-In . SVG Version: 6.00 Build 0)  -->
<svg version="1.1" id="Layer_1" xmlns="http://www.w3.org/2000/svg" xmlns:xlink="http://www.w3.org/1999/xlink" x="0px" y="0px"
	 viewBox="0 0 483.11 524.604" style="enable-background:new 0 0 483.11 524.604;" xml:space="preserve">
<style type="text/css">
	.st0{fill:#343130;}
	.st1{fill:url(#SVGID_1_);}
	.st2{fill:url(#SVGID_2_);}
	.st3{fill:url(#SVGID_3_);}
	.st4{fill:url(#SVGID_4_);}
	.st5{fill:url(#SVGID_5_);}
	.st6{fill:url(#SVGID_6_);}
	.st7{fill:url(#SVGID_7_);}
	.st8{fill:url(#SVGID_8_);}
	.st9{fill:url(#SVGID_9_);}
	.st10{fill:url(#SVGID_10_);}
	.st11{fill:#DED6DC;}
	.st12{fill:url(#SVGID_11_);}
</style>
<g>
	<path class="st0" d="M388.703,272.173l21.044,117.726c10.398,30.481,26.543,47.203,45.681,62.847
		c11.647-1.94,22.584-2.019,27.682,13.207l-49.416,4.988c-21.956-23.005-39.999-49.82-54.618-79.97
		c-8.942-13.089-16.333-30.953-17.255-42.301C364.074,309.494,375.589,287.561,388.703,272.173z"/>
	
		<linearGradient id="SVGID_1_" gradientUnits="userSpaceOnUse" x1="703.5566" y1="-288.3056" x2="870.1415" y2="0.2278" gradientTransform="matrix(-0.9949 0.1004 0.1004 0.9949 1116.507 239.8018)">
		<stop  offset="0" style="stop-color:#423841"/>
		<stop  offset="0.3883" style="stop-color:#554E54"/>
		<stop  offset="1" style="stop-color:#797979"/>
	</linearGradient>
	<path class="st1" d="M387.943,150.757c53.466,77.631,3.552,142.938-113.63,187.251c38.858-73.89,41.93-129.48,3.454-163.824
		c14.941-11.771,14.773-30.543,4.51-53.99c-18.16,0.659-33.862-3.076-46.479-12.323l66.811-37.039
		c10.983-12.846,26.016-18.256,44.273-17.749c12.478,2.307,24.116,2.53,34.595-0.126l32.522-17.438
		c11.469,9.75,13.01,19.583,1.795,29.522c5.322,4.766,4.396,8.193-1.18,10.621C392.861,98.777,383.102,123.68,387.943,150.757z"/>
	<path class="st0" d="M309.35,64.269l-6.741,6.564l-30.018,16.641c-13.745,0.756-20.895-4.468-24.839-12.597L309.35,64.269z"/>
	<path class="st0" d="M221.047,343.028c-34.304,11.051-56.515,30.7-47.982,63.95c4.734,25.63,15.487,48.952,32.962,69.696
		c13.6-4.855,24.135,1.459,31.042,14.01l-49.531,5c-10.471-29.329-26.729-53.411-48.913-72.117l-1.855-8.156
		c6.699-10.462,11.729-20.691,12.596-33.216C153.993,352.766,185.35,343.221,221.047,343.028z"/>
	
		<linearGradient id="SVGID_2_" gradientUnits="userSpaceOnUse" x1="801.4529" y1="-149.5263" x2="970.1765" y2="142.7115" gradientTransform="matrix(-0.9949 0.1004 0.1004 0.9949 1116.507 239.8018)">
		<stop  offset="0" style="stop-color:#423841"/>
		<stop  offset="0.3883" style="stop-color:#554E54"/>
		<stop  offset="1" style="stop-color:#797979"/>
	</linearGradient>
	<path class="st2" d="M286.915,163.792c-112.672,128.062-175.49,231.153-189.84,284.603c34.711-18.716,49.792-40.541,54.264-72.801
		c2.229-16.191,17.062-21.604,37.697-28.082l52.475-6.549C398.884,338.648,325.041,186.368,286.915,163.792z"/>
	
		<linearGradient id="SVGID_3_" gradientUnits="userSpaceOnUse" x1="983.8626" y1="-328.6857" x2="1080.5211" y2="-161.2682" gradientTransform="matrix(-0.9949 0.1004 0.1004 0.9949 1116.507 239.8018)">
		<stop  offset="0" style="stop-color:#423841"/>
		<stop  offset="0.3883" style="stop-color:#554E54"/>
		<stop  offset="1" style="stop-color:#797979"/>
	</linearGradient>
	<path class="st3" d="M1.069,29.002c45.705,5.437,70.712,28.924,67.16,77.318c-19.614,77.136-16.517,115.342,22.028,97.633
		c5.69-16.276,18.552-22.183,37.274-38.957C184.66,89.138,135.96,1.62,62.344,0.919C35.354,1.955,16.212,12.942,1.069,29.002z"/>
	
		<linearGradient id="SVGID_4_" gradientUnits="userSpaceOnUse" x1="967.5874" y1="-182.971" x2="1024.9741" y2="-83.5744" gradientTransform="matrix(-0.9949 0.1004 0.1004 0.9949 1116.507 239.8018)">
		<stop  offset="0" style="stop-color:#423841"/>
		<stop  offset="0.3883" style="stop-color:#554E54"/>
		<stop  offset="1" style="stop-color:#797979"/>
	</linearGradient>
	<path class="st4" d="M64.216,122.871c-8.882,59.759-14.717,96.739,26.041,81.082c-18.257,30.021,48.977,43.114,99.85,30.955
		c-52.398,29.829-104.544,42.022-155.773-9.905c-10.837-14.218-9.773-29.198-0.513-44.704
		C47.239,164.659,57.562,145.72,64.216,122.871z"/>
	
		<linearGradient id="SVGID_5_" gradientUnits="userSpaceOnUse" x1="1027.4501" y1="47.4732" x2="919.2626" y2="-139.913" gradientTransform="matrix(-0.9949 0.1004 0.1004 0.9949 1116.507 239.8018)">
		<stop  offset="0" style="stop-color:#423841"/>
		<stop  offset="0.3883" style="stop-color:#554E54"/>
		<stop  offset="1" style="stop-color:#797979"/>
	</linearGradient>
	<path class="st5" d="M190.107,234.908c-66.773,10.504-104.823,3.659-108.831,63.349l8.453,87.784
		c19.979-76.076,73.881-129.467,152.609-168.589C224.191,229.634,207.341,235.735,190.107,234.908z"/>
	
		<linearGradient id="SVGID_6_" gradientUnits="userSpaceOnUse" x1="800.6277" y1="-18.2857" x2="699.4887" y2="156.8921" gradientTransform="matrix(-0.9949 0.1004 0.1004 0.9949 1116.507 239.8018)">
		<stop  offset="0" style="stop-color:#423841"/>
		<stop  offset="0.3883" style="stop-color:#554E54"/>
		<stop  offset="1" style="stop-color:#797979"/>
	</linearGradient>
	<path class="st6" d="M388.129,266.486c-30.438,3.107-55.425,18.227-71.252,53.54l9.335,91.349
		c6.659,57.965,26.054,88.26,77.179,78.488c-5.089-11.796-13.924-18.673-27.118-16.039c-6.15-3.246-10.633-11.872-13.809-24.719
		c-9.377-63.047-1.826-94.515,5.302-134.323L388.129,266.486z"/>
	
		<linearGradient id="SVGID_7_" gradientUnits="userSpaceOnUse" x1="798.7861" y1="121.7369" x2="761.9142" y2="185.6009" gradientTransform="matrix(-0.9949 0.1004 0.1004 0.9949 1116.507 239.8018)">
		<stop  offset="0" style="stop-color:#423841"/>
		<stop  offset="0.3883" style="stop-color:#554E54"/>
		<stop  offset="1" style="stop-color:#797979"/>
	</linearGradient>
	<path class="st7" d="M331.87,442.67c11.748,23.125,30.281,42.618,58.761,48.557l-38.48,3.706
		C344.085,479.413,336.314,460.837,331.87,442.67z"/>
	
		<linearGradient id="SVGID_8_" gradientUnits="userSpaceOnUse" x1="960.0185" y1="65.4592" x2="1039.4147" y2="-72.0591" gradientTransform="matrix(-0.9949 0.1004 0.1004 0.9949 1116.507 239.8018)">
		<stop  offset="0" style="stop-color:#423841"/>
		<stop  offset="0.3883" style="stop-color:#554E54"/>
		<stop  offset="1" style="stop-color:#797979"/>
	</linearGradient>
	<path class="st8" d="M97.075,448.394c32.617-13.225,48.294-33.572,54.264-72.801c1.111-7.302,13.905-17.925,17.874-20.938
		c35.47-120.048-31.897-135.682-74.415-95.374c-13.282,14.035-16.649,39.37-10.628,69.032c4.071,31.645,6.777,60.117,3.828,75.437
		C82.827,424.038,84.998,439.484,97.075,448.394z"/>
	
		<linearGradient id="SVGID_9_" gradientUnits="userSpaceOnUse" x1="895.0099" y1="-58.2657" x2="929.5143" y2="-118.0289" gradientTransform="matrix(-0.9949 0.1004 0.1004 0.9949 1116.507 239.8018)">
		<stop  offset="0" style="stop-color:#423841"/>
		<stop  offset="0.3883" style="stop-color:#554E54"/>
		<stop  offset="1" style="stop-color:#797979"/>
	</linearGradient>
	<path class="st9" d="M243.165,215.741c-12.859,33.749-33.841,63.367-64.681,86.002c1.842-33.643-9.202-53.884-31.692-62.219
		c11.408,1.519,26.944-1.127,43.316-4.617C209.771,235.297,226.408,226.334,243.165,215.741z"/>
	<path class="st11" d="M383.775,279.888c-6.192-4.138-14.567-13.202-14.112-33.27c2.905-15.148,8.084-26.012,8.783-39.092
		c4.662,12.682,7.516,24.605,5.636,34.542c5.025-5.829,8.376-11.806,8.567-18.062c2.06,6.67,3.297,13.242,1.969,19.507
		c4.258-9.833,6.142-20.986,6.904-32.763C407.521,229.288,404.68,253.681,383.775,279.888z"/>
	
		<linearGradient id="SVGID_10_" gradientUnits="userSpaceOnUse" x1="1081.4386" y1="59.6137" x2="1016.6517" y2="171.8277" gradientTransform="matrix(-0.9949 0.1004 0.1004 0.9949 1116.507 239.8018)">
		<stop  offset="0" style="stop-color:#423841"/>
		<stop  offset="0.3883" style="stop-color:#554E54"/>
		<stop  offset="1" style="stop-color:#797979"/>
	</linearGradient>
	<path class="st10" d="M88.841,377.245c0.382,25.873-8.466,53.291-30.26,63.499l7.856,83.86l45.96-4.639
		c-4.957-8.897-13.48-13.602-23.577-11.763c-8.801-10.517-8.605-23.388-6.035-39.036c5.026-6.002,7.554-11.587,14.292-20.771
		C102.848,426.815,99.073,397.277,88.841,377.245z"/>
</g>
</svg>
