<?xml version="1.0" encoding="utf-8"?>
<!-- Generator: Adobe Illustrator 21.0.2, SVG Export Plug-In . SVG Version: 6.00 Build 0)  -->
<svg version="1.1" id="Layer_1" xmlns="http://www.w3.org/2000/svg" xmlns:xlink="http://www.w3.org/1999/xlink" x="0px" y="0px"
	 viewBox="0 0 484.526 246.095" style="enable-background:new 0 0 484.526 246.095;" xml:space="preserve">
<style type="text/css">
	.st0{fill:url(#SVGID_1_);}
	.st1{fill:url(#SVGID_2_);}
	.st2{fill:#BB9657;}
	.st3{fill:url(#SVGID_3_);}
	.st4{fill:url(#SVGID_4_);}
	.st5{fill:url(#SVGID_5_);}
	.st6{fill:url(#SVGID_6_);}
</style>
<g>
	<linearGradient id="SVGID_1_" gradientUnits="userSpaceOnUse" x1="327.536" y1="100.4036" x2="523.3307" y2="100.4036">
		<stop  offset="0" style="stop-color:#FBD9B2"/>
		<stop  offset="0.0866" style="stop-color:#FBD4A5"/>
		<stop  offset="0.3478" style="stop-color:#FAC485"/>
		<stop  offset="0.5945" style="stop-color:#F9B96C"/>
		<stop  offset="0.8187" style="stop-color:#F8B25D"/>
		<stop  offset="1" style="stop-color:#F8AF58"/>
	</linearGradient>
	<polygon class="st0" points="484.526,171.728 338.609,172.442 288.732,153.335 396.043,28.365 	"/>
	<linearGradient id="SVGID_2_" gradientUnits="userSpaceOnUse" x1="394.3275" y1="16.6984" x2="313.1747" y2="163.7869">
		<stop  offset="0" style="stop-color:#E5AB62"/>
		<stop  offset="0.097" style="stop-color:#E3A860"/>
		<stop  offset="0.5847" style="stop-color:#DE9B59"/>
		<stop  offset="1" style="stop-color:#DC9756"/>
	</linearGradient>
	<polygon class="st1" points="396.043,28.365 338.609,172.442 288.732,153.335 	"/>
	<g>
		<g>
			<path class="st2" d="M385.961,120.755c9.682,0,19.364,0,29.046,0c0.804,0,0.806-1.25,0-1.25c-9.682,0-19.364,0-29.046,0
				C385.156,119.505,385.155,120.755,385.961,120.755L385.961,120.755z"/>
		</g>
	</g>
	<g>
		<g>
			<path class="st2" d="M381.233,112.995c9.682,0,19.364,0,29.046,0c0.804,0,0.806-1.25,0-1.25c-9.682,0-19.364,0-29.046,0
				C380.429,111.745,380.428,112.995,381.233,112.995L381.233,112.995z"/>
		</g>
	</g>
	<g>
		<g>
			<path class="st2" d="M379.062,95.96c9.682,0,19.364,0,29.046,0c0.804,0,0.806-1.25,0-1.25c-9.682,0-19.364,0-29.046,0
				C378.258,94.71,378.256,95.96,379.062,95.96L379.062,95.96z"/>
		</g>
	</g>
	<g>
		<g>
			<path class="st2" d="M387.527,86.416c8.071,0,16.142,0,24.213,0c0.804,0,0.806-1.25,0-1.25c-8.071,0-16.142,0-24.213,0
				C386.723,85.166,386.722,86.416,387.527,86.416L387.527,86.416z"/>
		</g>
	</g>
	<g>
		<g>
			<path class="st2" d="M381.739,74.789c4.841,0,9.682,0,14.523,0c0.804,0,0.806-1.25,0-1.25c-4.841,0-9.682,0-14.523,0
				C380.935,73.539,380.933,74.789,381.739,74.789L381.739,74.789z"/>
		</g>
	</g>
	<g>
		<g>
			<path class="st2" d="M388.524,65.69c4.841,0,9.682,0,14.523,0c0.804,0,0.806-1.25,0-1.25c-4.841,0-9.682,0-14.523,0
				C387.719,64.44,387.718,65.69,388.524,65.69L388.524,65.69z"/>
		</g>
	</g>
	<g>
		<g>
			<path class="st2" d="M371.046,105.503c7.129,0,14.257,0,21.386,0c0.804,0,0.806-1.25,0-1.25c-7.129,0-14.257,0-21.386,0
				C370.242,104.253,370.24,105.503,371.046,105.503L371.046,105.503z"/>
		</g>
	</g>
	<g>
		<g>
			<path class="st2" d="M366.191,128.516c14.034,0,28.068,0,42.102,0c0.804,0,0.806-1.25,0-1.25c-14.034,0-28.068,0-42.102,0
				C365.386,127.266,365.385,128.516,366.191,128.516L366.191,128.516z"/>
		</g>
	</g>
	<g>
		<g>
			<path class="st2" d="M374.079,148.977c14.034,0,28.068,0,42.102,0c0.804,0,0.806-1.25,0-1.25c-14.034,0-28.068,0-42.102,0
				C373.275,147.727,373.273,148.977,374.079,148.977L374.079,148.977z"/>
		</g>
	</g>
	<g>
		<g>
			<path class="st2" d="M378.727,139.055c5.676,0,11.353,0,17.029,0c0.804,0,0.806-1.25,0-1.25c-5.676,0-11.353,0-17.029,0
				C377.923,137.805,377.922,139.055,378.727,139.055L378.727,139.055z"/>
		</g>
	</g>
	<g>
		<g>
			<path class="st2" d="M421.162,139.055c8.898,0,17.795,0,26.693,0c0.804,0,0.806-1.25,0-1.25c-8.898,0-17.795,0-26.693,0
				C420.358,137.805,420.357,139.055,421.162,139.055L421.162,139.055z"/>
		</g>
	</g>
	<g>
		<g>
			<path class="st2" d="M348.595,158.808c34.776,0,69.552,0,104.328,0c5.023,0,10.045,0,15.068,0c0.804,0,0.806-1.25,0-1.25
				c-34.776,0-69.552,0-104.328,0c-5.023,0-10.045,0-15.068,0C347.79,157.558,347.789,158.808,348.595,158.808L348.595,158.808z"/>
		</g>
	</g>
	<g>
		<g>
			<path class="st2" d="M422.183,108.117c2.84,0,5.679,0,8.519,0c0.804,0,0.806-1.25,0-1.25c-2.84,0-5.679,0-8.519,0
				C421.379,106.867,421.377,108.117,422.183,108.117L422.183,108.117z"/>
		</g>
	</g>
</g>
<g>
	<linearGradient id="SVGID_3_" gradientUnits="userSpaceOnUse" x1="64.2817" y1="86.9391" x2="186.8286" y2="86.9391">
		<stop  offset="0" style="stop-color:#FBD9B2"/>
		<stop  offset="0.0866" style="stop-color:#FBD4A5"/>
		<stop  offset="0.3478" style="stop-color:#FAC485"/>
		<stop  offset="0.5945" style="stop-color:#F9B96C"/>
		<stop  offset="0.8187" style="stop-color:#F8B25D"/>
		<stop  offset="1" style="stop-color:#F8AF58"/>
	</linearGradient>
	<polygon class="st3" points="219.916,167.194 55.73,167.997 -0.393,137.069 120.354,5.881 	"/>
	<linearGradient id="SVGID_4_" gradientUnits="userSpaceOnUse" x1="105.1333" y1="-3.0035" x2="25.4053" y2="157.0777">
		<stop  offset="0" style="stop-color:#E5AB62"/>
		<stop  offset="0.097" style="stop-color:#E3A860"/>
		<stop  offset="0.5847" style="stop-color:#DE9B59"/>
		<stop  offset="1" style="stop-color:#DC9756"/>
	</linearGradient>
	<polygon class="st4" points="120.354,5.881 55.73,167.997 -0.393,137.069 	"/>
	<g>
		<g>
			<path class="st2" d="M109.01,109.761c10.894,0,21.788,0,32.682,0c0.804,0,0.806-1.25,0-1.25c-10.894,0-21.788,0-32.682,0
				C108.206,108.511,108.205,109.761,109.01,109.761L109.01,109.761z"/>
		</g>
	</g>
	<g>
		<g>
			<path class="st2" d="M103.691,101.029c10.894,0,21.788,0,32.682,0c0.804,0,0.806-1.25,0-1.25c-10.894,0-21.788,0-32.682,0
				C102.886,99.779,102.885,101.029,103.691,101.029L103.691,101.029z"/>
		</g>
	</g>
	<g>
		<g>
			<path class="st2" d="M101.248,81.86c10.894,0,21.788,0,32.682,0c0.804,0,0.806-1.25,0-1.25c-10.894,0-21.788,0-32.682,0
				C100.443,80.61,100.442,81.86,101.248,81.86L101.248,81.86z"/>
		</g>
	</g>
	<g>
		<g>
			<path class="st2" d="M110.773,71.122c9.082,0,18.163,0,27.245,0c0.804,0,0.806-1.25,0-1.25c-9.082,0-18.163,0-27.245,0
				C109.968,69.872,109.967,71.122,110.773,71.122L110.773,71.122z"/>
		</g>
	</g>
	<g>
		<g>
			<path class="st2" d="M104.26,58.039c5.447,0,10.894,0,16.341,0c0.804,0,0.806-1.25,0-1.25c-5.447,0-10.894,0-16.341,0
				C103.455,56.789,103.454,58.039,104.26,58.039L104.26,58.039z"/>
		</g>
	</g>
	<g>
		<g>
			<path class="st2" d="M111.894,47.801c5.447,0,10.894,0,16.341,0c0.804,0,0.806-1.25,0-1.25c-5.447,0-10.894,0-16.341,0
				C111.09,46.551,111.088,47.801,111.894,47.801L111.894,47.801z"/>
		</g>
	</g>
	<g>
		<g>
			<path class="st2" d="M92.228,92.599c8.021,0,16.042,0,24.063,0c0.804,0,0.806-1.25,0-1.25c-8.021,0-16.042,0-24.063,0
				C91.424,91.349,91.422,92.599,92.228,92.599L92.228,92.599z"/>
		</g>
	</g>
	<g>
		<g>
			<path class="st2" d="M86.765,118.493c15.791,0,31.582,0,47.373,0c0.804,0,0.806-1.25,0-1.25c-15.791,0-31.582,0-47.373,0
				C85.961,117.243,85.959,118.493,86.765,118.493L86.765,118.493z"/>
		</g>
	</g>
	<g>
		<g>
			<path class="st2" d="M95.641,141.516c15.791,0,31.582,0,47.373,0c0.804,0,0.806-1.25,0-1.25c-15.791,0-31.582,0-47.373,0
				C94.837,140.266,94.835,141.516,95.641,141.516L95.641,141.516z"/>
		</g>
	</g>
	<g>
		<g>
			<path class="st2" d="M100.871,130.352c6.387,0,12.774,0,19.161,0c0.804,0,0.806-1.25,0-1.25c-6.387,0-12.774,0-19.161,0
				C100.067,129.102,100.065,130.352,100.871,130.352L100.871,130.352z"/>
		</g>
	</g>
	<g>
		<g>
			<path class="st2" d="M148.619,130.352c10.012,0,20.023,0,30.035,0c0.804,0,0.806-1.25,0-1.25c-10.012,0-20.023,0-30.035,0
				C147.815,129.102,147.814,130.352,148.619,130.352L148.619,130.352z"/>
		</g>
	</g>
	<g>
		<g>
			<path class="st2" d="M66.966,152.577c39.219,0,78.438,0,117.656,0c5.563,0,11.126,0,16.688,0c0.804,0,0.806-1.25,0-1.25
				c-39.219,0-78.438,0-117.656,0c-5.563,0-11.126,0-16.688,0C66.161,151.327,66.16,152.577,66.966,152.577L66.966,152.577z"/>
		</g>
	</g>
	<g>
		<g>
			<path class="st2" d="M149.767,95.54c3.195,0,6.39,0,9.586,0c0.804,0,0.806-1.25,0-1.25c-3.195,0-6.39,0-9.586,0
				C148.963,94.29,148.962,95.54,149.767,95.54L149.767,95.54z"/>
		</g>
	</g>
</g>
<g>
	<linearGradient id="SVGID_5_" gradientUnits="userSpaceOnUse" x1="97.8717" y1="123.0473" x2="432.3028" y2="123.0473">
		<stop  offset="0" style="stop-color:#FBD9B2"/>
		<stop  offset="0.0866" style="stop-color:#FBD4A5"/>
		<stop  offset="0.3478" style="stop-color:#FAC485"/>
		<stop  offset="0.5945" style="stop-color:#F9B96C"/>
		<stop  offset="0.8187" style="stop-color:#F8B25D"/>
		<stop  offset="1" style="stop-color:#F8AF58"/>
	</linearGradient>
	<polygon class="st5" points="432.303,244.875 183.066,246.095 97.872,200.856 281.167,0 	"/>
	<linearGradient id="SVGID_6_" gradientUnits="userSpaceOnUse" x1="259.091" y1="2.2971" x2="140.3436" y2="223.7087">
		<stop  offset="0" style="stop-color:#E5AB62"/>
		<stop  offset="0.097" style="stop-color:#E3A860"/>
		<stop  offset="0.5847" style="stop-color:#DE9B59"/>
		<stop  offset="1" style="stop-color:#DC9756"/>
	</linearGradient>
	<polygon class="st6" points="281.167,0 183.066,246.095 97.872,200.856 	"/>
	<g>
		<g>
			<path class="st2" d="M263.946,157.992c16.537,0,33.075,0,49.612,0c1.609,0,1.611-2.5,0-2.5c-16.537,0-33.075,0-49.612,0
				C262.338,155.492,262.335,157.992,263.946,157.992L263.946,157.992z"/>
		</g>
	</g>
	<g>
		<g>
			<path class="st2" d="M255.871,144.737c16.537,0,33.075,0,49.612,0c1.609,0,1.611-2.5,0-2.5c-16.537,0-33.075,0-49.612,0
				C254.263,142.237,254.26,144.737,255.871,144.737L255.871,144.737z"/>
		</g>
	</g>
	<g>
		<g>
			<path class="st2" d="M252.163,115.639c16.537,0,33.075,0,49.612,0c1.609,0,1.611-2.5,0-2.5c-16.537,0-33.075,0-49.612,0
				C250.554,113.139,250.551,115.639,252.163,115.639L252.163,115.639z"/>
		</g>
	</g>
	<g>
		<g>
			<path class="st2" d="M266.622,99.338c13.786,0,27.572,0,41.357,0c1.609,0,1.611-2.5,0-2.5c-13.786,0-27.572,0-41.357,0
				C265.013,96.838,265.01,99.338,266.622,99.338L266.622,99.338z"/>
		</g>
	</g>
	<g>
		<g>
			<path class="st2" d="M256.735,79.478c8.269,0,16.537,0,24.806,0c1.609,0,1.611-2.5,0-2.5c-8.269,0-16.537,0-24.806,0
				C255.126,76.978,255.124,79.478,256.735,79.478L256.735,79.478z"/>
		</g>
	</g>
	<g>
		<g>
			<path class="st2" d="M268.324,63.937c8.269,0,16.537,0,24.806,0c1.609,0,1.611-2.5,0-2.5c-8.269,0-16.537,0-24.806,0
				C266.715,61.437,266.712,63.937,268.324,63.937L268.324,63.937z"/>
		</g>
	</g>
	<g>
		<g>
			<path class="st2" d="M238.471,131.94c12.176,0,24.352,0,36.528,0c1.609,0,1.611-2.5,0-2.5c-12.176,0-24.352,0-36.528,0
				C236.862,129.44,236.86,131.94,238.471,131.94L238.471,131.94z"/>
		</g>
	</g>
	<g>
		<g>
			<path class="st2" d="M230.177,171.248c23.971,0,47.942,0,71.913,0c1.609,0,1.611-2.5,0-2.5c-23.971,0-47.942,0-71.913,0
				C228.569,168.748,228.566,171.248,230.177,171.248L230.177,171.248z"/>
		</g>
	</g>
	<g>
		<g>
			<path class="st2" d="M243.651,206.196c23.971,0,47.942,0,71.913,0c1.609,0,1.611-2.5,0-2.5c-23.971,0-47.942,0-71.913,0
				C242.043,203.696,242.04,206.196,243.651,206.196L243.651,206.196z"/>
		</g>
	</g>
	<g>
		<g>
			<path class="st2" d="M251.591,189.25c9.695,0,19.391,0,29.086,0c1.609,0,1.611-2.5,0-2.5c-9.695,0-19.391,0-29.086,0
				C249.982,186.75,249.98,189.25,251.591,189.25L251.591,189.25z"/>
		</g>
	</g>
	<g>
		<g>
			<path class="st2" d="M324.073,189.25c15.198,0,30.395,0,45.593,0c1.609,0,1.611-2.5,0-2.5c-15.198,0-30.395,0-45.593,0
				C322.464,186.75,322.462,189.25,324.073,189.25L324.073,189.25z"/>
		</g>
	</g>
	<g>
		<g>
			<path class="st2" d="M210.13,222.988c21.831,0,43.662,0,65.492,0c34.807,0,69.615,0,104.422,0c8.005,0,16.01,0,24.015,0
				c1.609,0,1.611-2.5,0-2.5c-21.831,0-43.662,0-65.492,0c-34.807,0-69.615,0-104.422,0c-8.005,0-16.01,0-24.015,0
				C208.521,220.488,208.519,222.988,210.13,222.988L210.13,222.988z"/>
		</g>
	</g>
	<g>
		<g>
			<path class="st2" d="M325.816,136.405c4.85,0,9.701,0,14.551,0c1.609,0,1.611-2.5,0-2.5c-4.85,0-9.701,0-14.551,0
				C324.207,133.905,324.205,136.405,325.816,136.405L325.816,136.405z"/>
		</g>
	</g>
</g>
</svg>
