<?xml version="1.0" encoding="utf-8"?>
<!-- Generator: Adobe Illustrator 21.0.2, SVG Export Plug-In . SVG Version: 6.00 Build 0)  -->
<svg version="1.1" id="Layer_1" xmlns="http://www.w3.org/2000/svg" xmlns:xlink="http://www.w3.org/1999/xlink" x="0px" y="0px"
	 viewBox="0 0 480.953 249.764" style="enable-background:new 0 0 480.953 249.764;" xml:space="preserve">
<style type="text/css">
	.st0{fill:url(#SVGID_1_);}
	.st1{fill:url(#SVGID_2_);}
	.st2{fill:url(#SVGID_3_);}
	.st3{fill:url(#SVGID_4_);}
	.st4{fill:url(#SVGID_5_);}
	.st5{fill:url(#SVGID_6_);}
	.st6{fill:#2C130D;}
	.st7{fill:#FFFFFF;}
	.st8{fill:url(#SVGID_7_);}
</style>
<linearGradient id="SVGID_1_" gradientUnits="userSpaceOnUse" x1="232.0701" y1="128.1952" x2="205.5372" y2="-29.4488">
	<stop  offset="0" style="stop-color:#FFFFFF"/>
	<stop  offset="0.1493" style="stop-color:#EFF1F3"/>
	<stop  offset="0.4474" style="stop-color:#C4CDD4"/>
	<stop  offset="0.8628" style="stop-color:#7D9AA6"/>
	<stop  offset="1" style="stop-color:#628A97"/>
</linearGradient>
<path class="st0" d="M471.651,128.591c-14.188-1.312-33.994-13.655-59.746-16.28c-25.793-2.583-46.706-0.738-46.706-0.738
	s-14.967,26.121-49.494,17.674c-0.943-0.246-1.23-1.476-0.451-2.091c2.01-1.681,4.88-4.593,5.126-7.75
	c0,0-87.835,8.652-102.761,11.236c-14.926,2.624-33.256,6.889-41.785,10.825c-4.798,2.173-36.208,13.819-63.108,36.578
	c-26.9,22.799-33.625,29.155-33.625,29.155s-7.463,4.47-2.214,15.295c5.208,10.826,9.718,20.544,7.832,27.269
	c0,0-16.812-19.806-29.524-25.014c-12.343-5.126-53.021,8.57-55.194,9.267c1.517-1.517,26.531-25.506,51.093-28.335
	c0,0,12.712-2.583,16.074-15.295c3.363-12.712,31.001-70.981,81.028-104.197c0,0,4.06-2.337,9.718-6.192
	c0,0,0.041-0.041,0.164-0.164c5.987-4.06,13.737-9.842,20.462-16.443c0.041-0.041,0.082-0.041,0.123-0.082
	c9.349-9.185,16.731-19.929,14.721-29.811c0,0-1.476-10.826-15.664-19.765c-14.188-8.98-9.349-12.343-5.249-12.343
	c4.141,0,30.672,3.158,42.974,12.712c8.898,6.889,18.863,12.179,25.67,14.434c3.198,1.066,6.602,1.476,9.964,1.189
	c0.738-0.082,1.476-0.164,2.173-0.287c1.148-0.205,2.461-0.451,4.019-0.779c2.788-0.615,15.623-3.24,33.092-5.208
	c0.246-0.041,0.533-0.041,0.779-0.082h0.082c31.903-3.526,78.691-4.593,108.338,13.122c0,0,9.349,2.993,27.269,14.598
	c17.92,11.564,33.994,31.739,31.739,47.403c0,0,12.343,7.873,17.182,12.712C480.632,116.043,485.84,129.944,471.651,128.591z"/>
<linearGradient id="SVGID_2_" gradientUnits="userSpaceOnUse" x1="208.6742" y1="41.898" x2="236.9851" y2="162.9244">
	<stop  offset="0" style="stop-color:#FFFFFF"/>
	<stop  offset="0.1493" style="stop-color:#EFF1F3"/>
	<stop  offset="0.4474" style="stop-color:#C4CDD4"/>
	<stop  offset="0.8628" style="stop-color:#7D9AA6"/>
	<stop  offset="1" style="stop-color:#628A97"/>
</linearGradient>
<path class="st1" d="M475.219,128.55c-0.451,0.082-0.902,0.123-1.435,0.123c-0.656,0-1.353,0-2.132-0.082
	c-14.188-1.312-33.994-13.655-59.746-16.28c-25.793-2.583-46.706-0.738-46.706-0.738l-0.041,0.041
	c-0.779,1.353-15.869,25.834-49.453,17.633c-0.943-0.246-1.23-1.476-0.451-2.091c2.01-1.681,4.88-4.593,5.126-7.75
	c0,0-87.835,8.652-102.761,11.236c-14.926,2.624-33.256,6.889-41.785,10.825c-4.798,2.173-36.208,13.819-63.108,36.578
	c-26.9,22.799-33.625,29.155-33.625,29.155s-7.463,4.47-2.214,15.295c5.208,10.826,9.718,20.544,7.832,27.269
	c0,0-16.812-19.806-29.524-25.014c-12.343-5.126-53.021,8.57-55.194,9.267c1.517-1.517,26.531-25.506,51.093-28.335
	c0,0,12.712-2.583,16.074-15.295c3.363-12.712,31.001-70.981,81.028-104.197c0,0,9.596-8.037,15.254-11.892l15.09-10.908
	c0.041-0.041,41.047-25.506,72.54-33.666c12.138-3.157,25.26-5.413,39.284-6.274c0.246,0,0.451-0.041,0.697-0.041l0.082-0.041h0.082
	c31.903-3.526,78.691-4.593,108.338,13.122c0.041,0,0.082,0.041,0.123,0.041l0.328,0.123c1.558,0.574,7.504,2.87,17.509,8.694
	c2.789,1.599,5.905,3.526,9.308,5.741c17.223,11.113,32.764,30.18,31.903,45.558c0,0.615-0.082,1.23-0.164,1.845
	c0,0,12.343,7.873,17.182,12.712C480.181,115.592,484.855,127.361,475.219,128.55z"/>
<linearGradient id="SVGID_3_" gradientUnits="userSpaceOnUse" x1="356.0583" y1="81.7583" x2="323.9748" y2="157.5849">
	<stop  offset="0" style="stop-color:#FFFFFF"/>
	<stop  offset="0.1493" style="stop-color:#EFF1F3"/>
	<stop  offset="0.4474" style="stop-color:#C4CDD4"/>
	<stop  offset="0.8628" style="stop-color:#7D9AA6"/>
	<stop  offset="1" style="stop-color:#628A97"/>
</linearGradient>
<path class="st2" d="M365.2,111.574l-0.041,0.041c-0.779,1.353-15.869,25.834-49.453,17.633c-0.943-0.246-1.23-1.476-0.451-2.091
	c2.01-1.681,4.88-4.593,5.126-7.75c0,0,4.224-18.617,39.571-18.617C359.951,100.789,368.562,101.322,365.2,111.574z"/>
<linearGradient id="SVGID_4_" gradientUnits="userSpaceOnUse" x1="451.0439" y1="66.2966" x2="413.203" y2="82.4339">
	<stop  offset="0" style="stop-color:#FFFFFF"/>
	<stop  offset="0.0615" style="stop-color:#F0F3F5"/>
	<stop  offset="0.1835" style="stop-color:#C9D2D8"/>
	<stop  offset="0.2622" style="stop-color:#ABBDC4"/>
	<stop  offset="0.9945" style="stop-color:#638A97"/>
	<stop  offset="1" style="stop-color:#628A97"/>
</linearGradient>
<path class="st3" d="M458.735,96.647c0,0.615-0.082,1.23-0.164,1.845l-0.8-0.475c0,0,5.443-24.509-40.534-52.71l0.287,0.041
	c2.789,1.599,5.905,3.526,9.308,5.741C444.054,62.202,459.596,81.27,458.735,96.647z"/>
<linearGradient id="SVGID_5_" gradientUnits="userSpaceOnUse" x1="444.1937" y1="79.9054" x2="400.6353" y2="98.4809" gradientTransform="matrix(1 -0.0034 0.0034 1 -1.879 0.6429)">
	<stop  offset="0" style="stop-color:#FFFFFF"/>
	<stop  offset="0.0615" style="stop-color:#F0F3F5"/>
	<stop  offset="0.1835" style="stop-color:#C9D2D8"/>
	<stop  offset="0.2622" style="stop-color:#ABBDC4"/>
	<stop  offset="0.9945" style="stop-color:#638A97"/>
	<stop  offset="1" style="stop-color:#628A97"/>
</linearGradient>
<path class="st4" d="M415.649,83.026c0,0,5.964,1.767,8.349,2.454c2.385,0.687,3.085,2.075,5.571,3.258
	c2.486,1.183,7.452,1.563,9.333-0.032s3.856-4.779,1.561-8.147s-8.153-3.249-8.153-3.249S422.086,78.238,415.649,83.026z"/>
<linearGradient id="SVGID_6_" gradientUnits="userSpaceOnUse" x1="436.1345" y1="69.1347" x2="401.8597" y2="83.7512" gradientTransform="matrix(0.9999 0.0153 -0.0153 0.9999 8.5374 -2.0388)">
	<stop  offset="0" style="stop-color:#FFFFFF"/>
	<stop  offset="0.0615" style="stop-color:#F0F3F5"/>
	<stop  offset="0.1835" style="stop-color:#C9D2D8"/>
	<stop  offset="0.2622" style="stop-color:#ABBDC4"/>
	<stop  offset="0.9945" style="stop-color:#638A97"/>
	<stop  offset="1" style="stop-color:#628A97"/>
</linearGradient>
<path class="st5" d="M421.993,75.691c0,0,16.86-1.033,20.446,2.695l1.626,2.011c0,0-1.392-6.377-5.855-6.743
	S427.587,73.492,421.993,75.691z"/>
<path class="st6" d="M423.528,83.661c0,0,9.382,6.345,13.776,2.785c4.189-3.395-0.586-6.302-0.586-6.302s-2.276-1.212-8.793,1.612
	C423.528,83.661,423.528,83.661,423.528,83.661z"/>
<circle class="st7" cx="430.297" cy="85.652" r="1.319"/>
<circle class="st7" cx="435.72" cy="83.014" r="1.319"/>
<path class="st7" d="M114.133,125.577c0,0,83.856-104.31,242.443-95.288c0,0,4.772,3.165-1.271,4.028
	C355.306,34.318,232.378,10.887,114.133,125.577z"/>
<path class="st7" d="M18.904,222.281c0,0,14.535-11.98,32.585-13.178c0,0,1.24-0.2,1.438,0.399c0.28,0.848-0.422,0.766-0.752,0.808
	C43.424,211.427,36.954,210.461,18.904,222.281z"/>
<path class="st7" d="M355.022,120.19c0,0-16.349,9.355-34.341,7.49c0,0-1.256-0.012-1.35-0.636
	c-0.133-0.883,0.546-0.684,0.878-0.669C329.022,126.751,335.237,128.794,355.022,120.19z"/>
<path class="st7" d="M463.214,105.748c0,0,8.637,3.349,13.495,10.801c0,0,0.384,0.484,0.175,0.713
	c-0.296,0.324-0.43,0.003-0.528-0.128C473.772,113.65,472.628,110.643,463.214,105.748z"/>
<linearGradient id="SVGID_7_" gradientUnits="userSpaceOnUse" x1="471.3066" y1="113.0389" x2="426.713" y2="132.0559">
	<stop  offset="0" style="stop-color:#FFFFFF"/>
	<stop  offset="0.0615" style="stop-color:#F0F3F5"/>
	<stop  offset="0.1835" style="stop-color:#C9D2D8"/>
	<stop  offset="0.2622" style="stop-color:#ABBDC4"/>
	<stop  offset="0.9945" style="stop-color:#638A97"/>
	<stop  offset="1" style="stop-color:#628A97"/>
</linearGradient>
<path class="st8" d="M475.219,128.55c-0.451,0.082-0.902,0.123-1.435,0.123c-21.282-7.381-32.067-18.125-33.461-19.601
	C450.287,118.422,466.198,125.229,475.219,128.55z"/>
</svg>
