<?xml version="1.0" encoding="utf-8"?>
<!-- Generator: Adobe Illustrator 21.0.2, SVG Export Plug-In . SVG Version: 6.00 Build 0)  -->
<svg version="1.1" id="Layer_1" xmlns="http://www.w3.org/2000/svg" xmlns:xlink="http://www.w3.org/1999/xlink" x="0px" y="0px"
	 viewBox="0 0 290.207 290.055" style="enable-background:new 0 0 290.207 290.055;" xml:space="preserve">
<style type="text/css">
	.st0{fill:#008154;}
	.st1{fill:#017D54;}
	.st2{fill:#018656;}
	.st3{fill:#009357;}
	.st4{fill:#059457;}
	.st5{fill:#019557;}
	.st6{fill:#057452;}
	.st7{fill:#EC6253;}
	.st8{fill:#E74B4F;}
	.st9{fill:#ED6E55;}
	.st10{fill:#DE5645;}
	.st11{fill:#EB5D51;}
	.st12{fill:#FFE998;}
	.st13{fill:#FFDE96;}
	.st14{fill:#FDD194;}
	.st15{fill:#FFDA83;}
	.st16{fill:#076631;}
	.st17{fill:#007F54;}
	.st18{fill:#018C56;}
	.st19{fill:#038B56;}
	.st20{fill:#EC625C;}
	.st21{fill:#FFE9A2;}
</style>
<g>
	<path class="st0" d="M224.259,289.815l-32.877,0.129l-30.572,0.111c-23.122-40.842-18.845-73.35-18.845-73.35
		s8.316-42.926,52.44-31.641c4.757,1.217,9.92,3.061,15.544,5.661C267.738,217.443,224.259,289.815,224.259,289.815z"/>
	<path class="st1" d="M189.04,191.444l-8.925-0.314l-10.584-0.387c0,0-30.055-39.939-32.102-77.425
		c-0.074-1.18,0.111-2.36,0.516-3.485c1.309-3.651,5.015-11.377,13.036-11.893c5.181-0.313,12.188,2.397,21.518,11.211
		C200.731,135.795,189.04,191.444,189.04,191.444z"/>
	<path class="st2" d="M153.932,241.395c-1.304,2.716-2.95,4.872-2.95,4.872c-68.832,4.905-96.657-72.34-96.657-72.34
		s-4.241-18.439,6.527-29.005c4.776-4.72,12.502-7.855,24.893-7.154c40.271,2.323,63.485,80.246,63.485,80.246
		C156.777,236.614,157.071,234.86,153.932,241.395z"/>
	<path class="st3" d="M96.053,154.603c0.276,6.472-2.047,10.086-4.702,12.059c-3.43,2.637-7.505,2.655-7.615,2.655
		C14.737,153.699,8.357,99.968,8.357,99.968s0.59-11.967,6.122-21.02c3.651-6.011,9.514-10.75,18.808-9.865
		C56.612,71.333,96.053,154.603,96.053,154.603z"/>
	<path class="st4" d="M224.259,289.815l-32.877,0.129l3.024-104.881c4.757,1.217,9.92,3.061,15.544,5.661
		C267.738,217.443,224.259,289.815,224.259,289.815z"/>
	<path class="st5" d="M189.04,191.444l-8.925-0.314l-29.133-93.19c5.181-0.313,12.188,2.397,21.518,11.211
		C200.731,135.795,189.04,191.444,189.04,191.444z"/>
	<path class="st6" d="M153.932,241.395c-1.494,3.43-2.95,4.872-2.95,4.872c-68.832,4.905-96.657-72.34-96.657-72.34
		s-4.241-18.439,6.527-29.005L153.932,241.395z"/>
	<path class="st2" d="M91.351,166.662c-3.43,2.637-7.505,2.655-7.615,2.655C14.737,153.699,8.357,99.968,8.357,99.968
		s0.59-11.967,6.122-21.02L91.351,166.662z"/>
	<path class="st7" d="M140.27,105.017c0,0-12.198-1.396-11.815-12.318s15.931-3.613,18.476,6.234
		C149.034,107.069,140.27,105.017,140.27,105.017z"/>
	<path class="st7" d="M32.786,77.555c0,0-12.198-1.396-11.815-12.318c0.383-10.922,16.34-3.71,18.476,6.234
		C41.178,79.529,32.786,77.555,32.786,77.555z"/>
	<path class="st8" d="M164.74,110.424c0,0-4.388-18.509,8.088-12.823c10.008,4.561,3.124,13.881,0.009,17.39
		c-1.402,1.579-3.851,1.745-5.38,0.289C166.508,114.377,165.542,112.877,164.74,110.424z"/>
	<path class="st9" d="M54.299,174.002c0,0-18.954,1.606-11.487-9.893c7.466-11.499,18.369,4.057,18.369,4.057
		S62.426,172.626,54.299,174.002z"/>
	<path class="st10" d="M16.007,115.898c0,0-16.699,9.109-14.501-4.424c1.39-8.557,8.397-7.769,13.362-6.032
		c4.486,1.569,5.281,7.66,1.342,10.32C16.143,115.807,16.075,115.853,16.007,115.898z"/>
	<path class="st11" d="M5.908,82.406c-4.274,4.302-0.97,11.604,5.084,11.957c2.696,0.157,5.427-0.588,5.822-4.094
		c0.81-7.191-5.074-10.882-8.926-9.237C7.166,81.341,6.496,81.814,5.908,82.406z"/>
	<path class="st12" d="M17.552,76.265c0,0-3.272,7.15-5.214,3.628c-0.698-1.266-0.821-2.773-0.523-4.188l0.284-1.354
		c0,0-4.409-0.643-3.609-4.45s7.3,0.398,7.3,0.398s0.055-5.668,4.135-4.811c4.08,0.857-0.012,6.813-0.012,6.813
		s6.027,2.403,3.709,5.323C21.304,80.546,17.552,76.265,17.552,76.265z"/>
	<path class="st13" d="M5.365,87.973c0,0-0.885,2.963-3.042,1.985c-2.156-0.978,0.693-3.922,0.693-3.922s-2.938-3.504-1.721-4.298
		c1.217-0.794,3.736,1.473,3.736,1.473s0.886-2.366,2.712-2.559c1.825-0.193-0.183,4.371-0.183,4.371s2.858,1.388,2.389,2.995
		C9.479,89.625,5.365,87.973,5.365,87.973z"/>
	<path class="st14" d="M26.166,61.344c0,0-6.384,3.447-8.339-1.753s7.656-5.356,7.656-5.356s0.94-10.686,4.275-9.985
		s3.789,8.915,3.789,8.915s6.679-3.819,8.709-0.021c2.557,4.786-7.555,6.946-7.555,6.946s2.438,7.043-1.006,8.931
		S26.166,61.344,26.166,61.344z"/>
	<path class="st12" d="M144.103,92.305c0,0-0.186,5.995-5.841,4.806c-5.655-1.188-2.705-8.684-2.705-8.684s-9.029-2.869-6.72-6.65
		c1.297-2.124,3.716-1.969,8.31,1.747c0,0,3.309-6.885,7.403-6.025c4.094,0.86,1.099,7.812,1.099,7.812s7.677-1.136,6.543,4.261
		C151.058,94.97,144.103,92.305,144.103,92.305z"/>
	<path class="st15" d="M43.07,170.7c0,0-0.186,5.995-5.841,4.806c-5.655-1.188-1.928-9.464-1.928-9.464s-8.571-0.641-5.945-5.556
		c1.173-2.195,3.501-2.555,6.758,1.432c0,0,3.309-6.885,7.403-6.025s1.099,7.812,1.099,7.812s7.677-1.136,6.543,4.261
		C50.024,173.365,43.07,170.7,43.07,170.7z"/>
	<path class="st16" d="M30.117,111.492c-0.167,1.205,1.84,4.422,3.968,2.813C35.056,113.572,30.775,106.741,30.117,111.492z"/>
	<path class="st16" d="M59.494,141.619c0.339,1.146,3.08,3.427,4.052,1.292C63.989,141.938,58.156,137.1,59.494,141.619z"/>
	<path class="st16" d="M166.832,174.214c-0.656,0.999-0.629,4.565,1.629,3.929C169.49,177.853,169.419,170.275,166.832,174.214z"/>
	<path class="st16" d="M176.257,140.92c-0.126,1.188,1.532,4.346,3.248,2.746C180.287,142.936,176.752,136.233,176.257,140.92z"/>
	<path class="st16" d="M122.316,234.647c0.106,1.19,2.34,3.969,3.716,2.069C126.659,235.849,121.9,229.952,122.316,234.647z"/>
	<path class="st16" d="M215.288,249.703c-0.136,1.187,1.496,4.358,3.225,2.773C219.301,251.753,215.823,245.021,215.288,249.703z"/>
	<path class="st16" d="M164.926,249.252c-0.475,1.097,0.163,4.605,2.279,3.591C168.169,252.381,166.799,244.928,164.926,249.252z"/>
	<path class="st16" d="M178.688,219.309c-0.792,0.895-1.277,4.427,1.049,4.121C180.797,223.291,181.813,215.781,178.688,219.309z"/>
	<path class="st16" d="M76.689,174.596c0.34,1.146,3.081,3.426,4.052,1.291C81.184,174.914,75.35,170.078,76.689,174.596z"/>
	<path class="st16" d="M80.036,201.888c0.381,1.133,3.203,3.313,4.096,1.144C84.54,202.043,78.535,197.421,80.036,201.888z"/>
	<path class="st16" d="M59.769,120.189c0.76,0.286,2.008,2.489,0.386,3.225C59.415,123.75,56.772,119.061,59.769,120.189z"/>
	<path class="st16" d="M152.416,134.428c0.76,0.286,2.008,2.489,0.386,3.225C152.063,137.988,149.42,133.3,152.416,134.428z"/>
	<path class="st16" d="M111.791,205.731c0.76,0.286,2.008,2.489,0.386,3.225C111.437,209.291,108.794,204.602,111.791,205.731z"/>
	<path class="st16" d="M185.293,282.263c0.332,0.741-0.356,3.178-2.02,2.544C182.515,284.517,183.986,279.339,185.293,282.263z"/>
	<path class="st16" d="M218.738,276.571c0.76,0.286,2.008,2.489,0.386,3.225C218.384,280.131,215.741,275.442,218.738,276.571z"/>
	<path class="st6" d="M221.308,245.009l-11.654-14.106l-7.394-8.924c0,0-13.35-114.487,25.483-121.199
		c12.17-2.102,21.242-0.147,27.953,3.54c14.714,8.076,18.144,24.413,18.144,24.413C292.981,202.12,221.308,245.009,221.308,245.009z
		"/>
	<path class="st17" d="M246.791,118.942l-8.224,5.974l-6.952,5.052c-16.742-8.132-30.387-34.591-30.387-34.591
		s-33.135-62.563-6.269-71.137c2.305-0.738,5.071-1.069,8.334-0.94C244.449,25.032,246.791,118.942,246.791,118.942z"/>
	<path class="st18" d="M246.791,118.942l-8.224,5.974L194.959,24.24c2.305-0.738,5.071-1.069,8.334-0.94
		C244.449,25.032,246.791,118.942,246.791,118.942z"/>
	<path class="st19" d="M221.308,245.009l-11.654-14.106l46.042-126.583c14.714,8.076,18.144,24.413,18.144,24.413
		C292.981,202.12,221.308,245.009,221.308,245.009z"/>
	<path class="st20" d="M259.377,115.859c0.753,1.685,2.433,2.781,4.267,2.992c4.739,0.546,14.44,0.626,15.374-7.664
		c1.241-11.011-7.77-16.662-13.667-14.144C260.191,99.247,256.429,109.266,259.377,115.859z"/>
	<path class="st7" d="M173.345,27.81c2.168,5.687,7.982,9.373,13.978,8.33c1.12-0.195,2.307-0.535,3.557-1.059
		c10.005-4.189,2.638-20.4-3.826-22.662c-3.325-1.164-15.608-2.356-16.595,2.342C169.832,17.749,171.817,23.8,173.345,27.81z"/>
	<path class="st21" d="M172.086,24.901c0,0-5.523,9.234-9.194,2.399c-1.259-2.344-1.51-5.101-0.963-7.704l0.563-2.677
		c0,0-8.333-1.215-6.82-8.411s13.798,0.753,13.798,0.753s0.105-10.713,7.815-9.093c7.711,1.621-0.023,12.878-0.023,12.878
		s11.391,4.541,7.01,10.062C179.891,28.627,172.086,24.901,172.086,24.901z"/>
	<path class="st12" d="M269.735,101.722c0,0-7.871,4.25-10.281-2.161c-2.41-6.411,9.439-6.604,9.439-6.604
		s-1.26-11.723,5.271-12.311c6.229-0.561,5.287,11.543,5.287,11.543s7.548-5.221,10.121-0.576c3.601,6.501-9.315,8.564-9.315,8.564
		s3.006,8.683-1.241,11.011C274.771,113.516,269.735,101.722,269.735,101.722z"/>
	<path class="st16" d="M213.039,196.871c-0.499,1.086,0.062,4.607,2.199,3.64C216.213,200.07,215.007,192.588,213.039,196.871z"/>
	<path class="st16" d="M254.688,185.678c-1.047,0.575-2.693,3.739-0.4,4.234C255.333,190.138,258.819,183.409,254.688,185.678z"/>
	<path class="st16" d="M250.732,161.728c-0.783,0.903-1.23,4.441,1.092,4.11C252.883,165.688,253.82,158.168,250.732,161.728z"/>
	<path class="st16" d="M257.443,125.109c0.875-0.813,1.7-4.283-0.645-4.204C255.73,120.941,253.991,128.317,257.443,125.109z"/>
	<path class="st16" d="M206.315,82.193c-0.136,1.187,1.496,4.358,3.225,2.773C210.327,84.243,206.849,77.511,206.315,82.193z"/>
	<path class="st16" d="M198.379,44.854c-0.136,1.187,1.496,4.358,3.225,2.773C202.392,46.905,198.913,40.172,198.379,44.854z"/>
	<path class="st16" d="M220.883,61.417c-0.136,1.187,1.496,4.358,3.225,2.773C224.896,63.467,221.418,56.734,220.883,61.417z"/>
	<path class="st16" d="M229.551,89.374c-0.136,1.187,1.496,4.358,3.225,2.773C233.563,91.425,230.085,84.692,229.551,89.374z"/>
	<path class="st16" d="M217.711,134.366c-0.791,0.895-1.271,4.429,1.054,4.12C219.825,138.345,220.832,130.834,217.711,134.366z"/>
</g>
</svg>
